<?xml version="1.0" encoding="UTF-8" standalone="no"?>
<!-- Created with Inkscape (http://www.inkscape.org/) -->

<svg
   xmlns:dc="http://purl.org/dc/elements/1.1/"
   xmlns:cc="http://creativecommons.org/ns#"
   xmlns:rdf="http://www.w3.org/1999/02/22-rdf-syntax-ns#"
   xmlns:svg="http://www.w3.org/2000/svg"
   xmlns="http://www.w3.org/2000/svg"
   xmlns:sodipodi="http://sodipodi.sourceforge.net/DTD/sodipodi-0.dtd"
   xmlns:inkscape="http://www.inkscape.org/namespaces/inkscape"
   version="1.1"
   id="svg2"
   width="2419"
   height="2424"
   viewBox="0 0 2419 2424"
   sodipodi:docname="flatALlogoOrg.svg"
   inkscape:version="0.92.1 r">
  <metadata
     id="metadata8">
    <rdf:RDF>
      <cc:Work
         rdf:about="">
        <dc:format>image/svg+xml</dc:format>
        <dc:type
           rdf:resource="http://purl.org/dc/dcmitype/StillImage" />
        <dc:title></dc:title>
      </cc:Work>
    </rdf:RDF>
  </metadata>
  <defs
     id="defs6">
    <filter
       style="color-interpolation-filters:sRGB;"
       inkscape:label="Colorize"
       id="filter3691">
      <feComposite
         in2="SourceGraphic"
         operator="arithmetic"
         k1="0"
         k2="1"
         result="composite1"
         id="feComposite3677" />
      <feColorMatrix
         in="composite1"
         values="1"
         type="saturate"
         result="colormatrix1"
         id="feColorMatrix3679" />
      <feFlood
         flood-opacity="1"
         flood-color="rgb(188,67,0)"
         result="flood1"
         id="feFlood3681" />
      <feBlend
         in="flood1"
         in2="colormatrix1"
         mode="multiply"
         result="blend1"
         id="feBlend3683" />
      <feBlend
         in2="blend1"
         mode="screen"
         result="blend2"
         id="feBlend3685" />
      <feColorMatrix
         in="blend2"
         values="1"
         type="saturate"
         result="colormatrix2"
         id="feColorMatrix3687" />
      <feComposite
         in="colormatrix2"
         in2="SourceGraphic"
         operator="in"
         k2="1"
         result="fbSourceGraphic"
         id="feComposite3689" />
      <feColorMatrix
         result="fbSourceGraphicAlpha"
         in="fbSourceGraphic"
         values="0 0 0 -1 0 0 0 0 -1 0 0 0 0 -1 0 0 0 0 1 0"
         id="feColorMatrix3693" />
      <feComposite
         in2="fbSourceGraphic"
         id="feComposite3695"
         operator="arithmetic"
         k1="0"
         k2="1"
         result="composite1"
         in="fbSourceGraphic" />
      <feColorMatrix
         id="feColorMatrix3697"
         in="composite1"
         values="1"
         type="saturate"
         result="colormatrix1" />
      <feFlood
         id="feFlood3699"
         flood-opacity="1"
         flood-color="rgb(173,127,0)"
         result="flood1" />
      <feBlend
         in2="colormatrix1"
         id="feBlend3701"
         in="flood1"
         mode="multiply"
         result="blend1" />
      <feBlend
         in2="blend1"
         id="feBlend3703"
         mode="screen"
         result="blend2" />
      <feColorMatrix
         id="feColorMatrix3705"
         in="blend2"
         values="1"
         type="saturate"
         result="colormatrix2" />
      <feComposite
         in2="fbSourceGraphic"
         id="feComposite3707"
         in="colormatrix2"
         operator="in"
         k2="1"
         result="fbSourceGraphic" />
      <feColorMatrix
         result="fbSourceGraphicAlpha"
         in="fbSourceGraphic"
         values="0 0 0 -1 0 0 0 0 -1 0 0 0 0 -1 0 0 0 0 1 0"
         id="feColorMatrix3757" />
      <feComposite
         in2="fbSourceGraphic"
         id="feComposite3759"
         operator="arithmetic"
         k1="0"
         k2="1"
         result="composite1"
         in="fbSourceGraphic" />
      <feColorMatrix
         id="feColorMatrix3761"
         in="composite1"
         values="1"
         type="saturate"
         result="colormatrix1" />
      <feFlood
         id="feFlood3763"
         flood-opacity="1"
         flood-color="rgb(224,127,136)"
         result="flood1" />
      <feBlend
         in2="colormatrix1"
         id="feBlend3765"
         in="flood1"
         mode="multiply"
         result="blend1" />
      <feBlend
         in2="blend1"
         id="feBlend3767"
         mode="screen"
         result="blend2" />
      <feColorMatrix
         id="feColorMatrix3769"
         in="blend2"
         values="1"
         type="saturate"
         result="colormatrix2" />
      <feComposite
         in2="fbSourceGraphic"
         id="feComposite3771"
         in="colormatrix2"
         operator="in"
         k2="1"
         result="fbSourceGraphic" />
      <feColorMatrix
         result="fbSourceGraphicAlpha"
         in="fbSourceGraphic"
         values="0 0 0 -1 0 0 0 0 -1 0 0 0 0 -1 0 0 0 0 1 0"
         id="feColorMatrix3773" />
      <feComposite
         in2="fbSourceGraphic"
         id="feComposite3775"
         operator="arithmetic"
         k1="0"
         k2="1"
         result="composite1"
         in="fbSourceGraphic" />
      <feColorMatrix
         id="feColorMatrix3777"
         in="composite1"
         values="1"
         type="saturate"
         result="colormatrix1" />
      <feFlood
         id="feFlood3779"
         flood-opacity="1"
         flood-color="rgb(224,127,136)"
         result="flood1" />
      <feBlend
         in2="colormatrix1"
         id="feBlend3781"
         in="flood1"
         mode="multiply"
         result="blend1" />
      <feBlend
         in2="blend1"
         id="feBlend3783"
         mode="screen"
         result="blend2" />
      <feColorMatrix
         id="feColorMatrix3785"
         in="blend2"
         values="1"
         type="saturate"
         result="colormatrix2" />
      <feComposite
         in2="fbSourceGraphic"
         id="feComposite3787"
         in="colormatrix2"
         operator="in"
         k2="1"
         result="composite2" />
    </filter>
  </defs>
  <sodipodi:namedview
     pagecolor="#ffffff"
     bordercolor="#666666"
     borderopacity="1"
     objecttolerance="10"
     gridtolerance="10"
     guidetolerance="10"
     inkscape:pageopacity="0"
     inkscape:pageshadow="2"
     inkscape:window-width="1920"
     inkscape:window-height="1037"
     id="namedview4"
     showgrid="false"
     inkscape:zoom="0.19471947"
     inkscape:cx="798.32815"
     inkscape:cy="1322.8773"
     inkscape:window-x="0"
     inkscape:window-y="0"
     inkscape:window-maximized="1"
     inkscape:current-layer="svg2" />
  <path
     style="fill:#b1b2b3;fill-opacity:1;filter:url(#filter3691)"
     d="m 2.0150864,2428.0212 c 0.023,-3.3978 2.0226,-8.4016 6.8941,-17.25 13.7148996,-24.9108 74.9850996,-128.2374 102.5849036,-173 36.409,-59.05 79.2291,-135.2706 156.7396,-279 101.7235,-188.6279 208.7345,-393.9568 314.2649,-603 39.41,-78.0666 70.2687,-138.363 89.3062,-174.5 19.1055,-36.266 44.1003,-88.2125 104.4125,-217.00001 164.7984,-351.90134 276.55581,-600.85655 381.79441,-850.5 25.5519,-60.613394 45.3194,-103.559204 48.8582,-106.146844 1.2396,-0.90638 1.9634,-0.91123 3.0553,-0.0205 3.4326,2.80046 20.1395,41.22645 57.8986,133.167324 62.8766,153.10052 100.6909,240.73605 228.9078,530.5 34.9234,78.925 69.9994,158.35 77.9467,176.5 13.7465,31.39414 19.4616,43.02672 53.7975,109.5 13.1708,25.49842 53.5323,107.06683 68.5321,138.50003 49.7004,104.1503 171.3214,345.866 242.2703,481.5 49.6136,94.8469 70.5021,133.1215 100.6917,184.5 19.6794,33.4915 45.1447,78.1873 84.0376,147.4999 85.6501,152.6405 167.9132,295.1338 255.4606,442.5 34.2951,57.7281 41.5319,71.0258 41.5319,76.3153 0,2.8838 -6.8042,-0.2501 -19,-8.751 -44.8197,-31.2409 -129.3368,-86.2423 -175.5,-114.2107 -57.8441,-35.0454 -138.8814,-76.2712 -213.5,-108.613 -148.974,-64.5695 -321.5467,-114.1216 -476.2999,-136.7636 -59.2882,-8.6745 -140.03,-17.4269 -161.2001,-17.4742 -9.9432,-0.022 -20.2558,-1.6307 -23.3381,-3.6401 -1.818,-1.1852 -2.208,-2.1181 -1.7531,-4.1935 1.0259,-4.6799 13.3987,-28.3511 25.7895,-49.3391 6.6014,-11.1815 18.8513,-32.2551 27.2221,-46.8301 58.9805,-102.6951 84.0158,-165.0566 102.5711,-255.4999 10.6502,-51.9113 13.5491,-86.7727 12.7355,-153.1545 -0.5436,-44.3618 -1.815,-63.0042 -6.2571,-91.7515 -11.3957,-73.7476 -48.9908,-177.305 -94.4085,-260.0522 -13.4984,-24.5929 -22.7957,-39.9754 -46.565,-77.0418 -41.0477,-64.0107 -55.3001,-90.4758 -77.2801,-143.50003 -20.714,-49.97001 -26.8065,-75.85196 -29.189,-124 -1.1717,-23.67822 -2.7875,-41.23915 -4.116,-44.73327 -1.1938,-3.14003 -3.5675,-2.84571 -10.4438,1.29498 -33.793,20.34909 -117.6781,95.36178 -164.877,147.43829 -77.9181,85.97003 -119.39371,165.19063 -149.47251,285.50003 -7.286,29.1427 -11.5087,54.7099 -14.7817,89.5 -2.1309,22.6493 -2.4399,89.9396 -0.5237,114 6.4567,81.0677 19.9297,151.4738 45.757,239.1127 13.2998,45.1299 29.6228,92.1422 32.9515,94.9048 5.25731,4.3632 9.47891,-9.2565 9.47891,-30.5807 0,-15.5005 4.2985,-53.9636 10.6099,-94.9368 20.9462,-135.9823 59.4374,-232.4569 115.8396,-290.3408 16.0775,-16.4998 32.1587,-29.1592 37.041,-29.1592 8.979,0 53.4051,46.572 78.2217,82 65.9031,94.0827 93.3417,219.1873 79.2462,361.3185 -6.272,63.2434 -22.7442,171.6393 -35.534,233.8319 -5.0724,24.6653 -8.5291,36.7569 -11.1668,39.0612 -4.6006,4.0191 -15.7439,5.2876 -59.2576,6.7456 -17.325,0.5805 -45.225,1.5206 -62,2.0891 -195.81591,6.6358 -377.28061,39.0099 -567.00001,101.1552 -173.0946,56.6996 -358.4529,145.1907 -529.500004,252.7863 -45.5667,28.6634 -58.1974996,35.9092 -62.7499996,35.9975 -0.4125,0.01 -0.7432,-0.9979 -0.7349,-2.2354 z"
     id="path4487"
     inkscape:connector-curvature="0" />
</svg>
