<?xml version="1.0" encoding="UTF-8" standalone="no"?>
<svg
   xmlns:dc="http://purl.org/dc/elements/1.1/"
   xmlns:cc="http://creativecommons.org/ns#"
   xmlns:rdf="http://www.w3.org/1999/02/22-rdf-syntax-ns#"
   xmlns:svg="http://www.w3.org/2000/svg"
   xmlns="http://www.w3.org/2000/svg"
   xmlns:sodipodi="http://sodipodi.sourceforge.net/DTD/sodipodi-0.dtd"
   xmlns:inkscape="http://www.inkscape.org/namespaces/inkscape"
   enable-background="new 0 0 515.91 728.5"
   height="16"
   id="Layer_1"
   version="1.1"
   viewBox="0 0 16.000001 16"
   width="16"
   xml:space="preserve"
   sodipodi:docname="activities.svg"
   inkscape:version="0.92.2 5c3e80d, 2017-08-06"><sodipodi:namedview
     pagecolor="#ffffff"
     bordercolor="#666666"
     borderopacity="1"
     objecttolerance="10"
     gridtolerance="10"
     guidetolerance="10"
     inkscape:pageopacity="0"
     inkscape:pageshadow="2"
     inkscape:window-width="1366"
     inkscape:window-height="713"
     id="namedview7"
     showgrid="true"
     inkscape:zoom="2.6074563"
     inkscape:cx="-92.51705"
     inkscape:cy="-28.153711"
     inkscape:window-x="0"
     inkscape:window-y="27"
     inkscape:window-maximized="1"
     inkscape:current-layer="Layer_1"><inkscape:grid
       type="xygrid"
       id="grid3699"
       empspacing="4"
       originx="4.5002142e-08"
       originy="-1.2365503e-06" /></sodipodi:namedview><metadata
     id="metadata9"><rdf:RDF><cc:Work
         rdf:about=""><dc:format>image/svg+xml</dc:format><dc:type
           rdf:resource="http://purl.org/dc/dcmitype/StillImage" /><dc:title></dc:title></cc:Work></rdf:RDF></metadata><defs
     id="defs7" /><g
     transform="matrix(0.04684219,0,0,0.04637681,3.0253409,4.5728589)"
     id="g3824"
     style="fill:#ffffff;fill-opacity:1"><path
       style="opacity:1;fill:#ffffff;fill-opacity:1;fill-rule:evenodd;stroke:none"
       id="path2518"
       d="M 107.84949,-98.602257 C 92.493787,-60.954304 83.231987,-36.328024 66.135387,0.20085614 76.617787,11.312106 89.484387,24.251686 110.3795,38.865776 87.915087,29.621786 72.591587,20.341076 61.140187,10.710446 39.259887,56.367046 4.9797874,121.40283 -64.585822,246.39777 c 54.6762094,-31.56545 97.060109,-51.0259 136.559909,-58.45149 -1.696,-7.29506 -2.6605,-15.1861 -2.595,-23.41953 l 0.065,-1.7516 c 0.8677,-35.02952 19.09,-61.96722 40.676113,-60.13821 21.5861,1.82902 38.3647,31.72582 37.4971,66.75537 -0.1631,6.59145 -0.9065,12.93234 -2.2057,18.81346 39.0709,7.64297 81.0017,27.0536 134.93811,58.192 C 269.7144,226.81765 260.2216,209.1676 251.1563,192.3577 236.8771,181.29028 221.983,166.88599 191.602,151.29245 c 20.8822,5.42606 35.8334,11.68629 47.4876,18.68371 C 146.9204,-1.6272139 139.4566,-24.429744 107.84949,-98.602257 Z"
       inkscape:connector-curvature="0" /></g></svg>