<svg xmlns="http://www.w3.org/2000/svg" height="300" width="700" version="1.1" viewBox="0 0 700.00001 300"><title>XFCE 4 Logo</title><defs><mask id="mask4616" maskUnits="userSpaceOnUse"><rect height="145" width="520" y="560" x="70" fill="#fff"/></mask><filter id="filter4976" style="color-interpolation-filters:sRGB" height="1.3852" width="1.1074" y="-.19262" x="-.053712"><feGaussianBlur stdDeviation="11.6375"/></filter></defs><path opacity="0" d="m117 575-22 22 30 35-32 33 20 20 30-37 32 37 20-23-33-33 33-34-22-20-28 35zm243 4c-27.765 6.073-78.334 21.409-72.084 71.824 1.0688 11.194 18.701 42.521 82.084 34.176-0.23636-8.6171 0.2363-17.383 0-26-13.974 0.35096-46.629 7.7378-49.965-18.268 1.26-26.54 26.82-27.62 44.96-33.73-1.896-9.0118-3.104-18.988-5-28zm28 1v102l58 3v-25h-28v-15l23-3v-22h-23l-2-17h30v-23zm147.71 0.24023c-11.44 0.30338-14.834 29.107-15.41 29.945-1.4013 2.0396-60.739-8.1243-69.658 17.666-5.009 14.174 40.478 42.969 44.621 47.301 4.1415 4.3316 2.6901 9.6122 0.14063 12.559-2.8874 3.1709-19.709 12.44-18.957 18.625 0.64499 3.6152 29.93-3.2416 31.121-0.31641 2.9085 5.7154-22.977 13.337-16.658 23.721 2.782 2.7425 43.15-7.3712 43.016-7.1836 0.9139 0.57573 50.255 19.821 91.936 15.865 1.463-0.11168 20.546 28.14 23.418 27.881 3.979-0.61154-1.3603-21.484 0.41601-25.035 2.0874-1.7569 15.21 11.931 17.16 6.7852 2.4587-6.7843-10.361-17.751-8.7559-22.252 9.0268-25.59 6.7627-42.089 0.22656-56.787-2.0897-5.347 42.668-26.804 73.105-32.707 30.436-5.9035 47.414-12.707 45.928-13.959-0.94934-0.36245-28.051 7.6289-45.418 8.7773-30.874 1.5832-62.223 18.788-77.793 29.148-1.1843 0.91658-9.5725-9.8288-20.338-11.346-14.709-2.0499-62.228 1.5205-66.5-8.3008-2.6238-5.7891-1.1135-11.952-5.1465-15.408-2.3088-1.1782 13.472-19.997 2.5684-29.234-7.8654-6.1352-20.189 16.888-22.988 19.178-1.2536 1.0242-6.6486 0.26208-5.4531-2.4062 1.2971-2.8987 14.625-24.661 4.832-30.736-1.9779-1.2846-3.7778-1.8226-5.4121-1.7793zm-275.9 1.8086c-16.614-0.0334-49.832 0.0996-49.832 0.0996l0.02 102.85h33l-0.52539-37.852h27.5l-1.97-22.15h-28v-18l30-1-0.96094-23.852c-0.002-0.0594-3.6946-0.0885-9.2324-0.0996zm197.77 3.4356c-0.0721-0.0129-0.12234-0.008-0.18164 0.0234-0.87149 0.57109 5.3622 24.136 7.3144 23.209 3.1412-1.4727-4.8997-22.825-7.1328-23.232zm15.115 0.13867c-0.0292-0.0199-0.0374 0.0208-0.0684 0.0449-1.7764 0.81627-3.2434 23.234-1.291 22.307 2.1016-0.54455 2.2549-21.73 1.3594-22.352zm36.697 34.48c0.34641-0.01 0.69748 0.019 1.0488 0.0898 2.8107 0.56673 4.5613 3.5889 3.916 6.7891-0.64524 3.2002-3.4412 5.3616-6.252 4.7949-2.8108-0.56674-4.5495-3.6436-3.9043-6.8438 0.56464-2.8002 2.7666-4.7629 5.1914-4.8301zm11.76 5.873c4.3387 4.5975-7.5458 23.249-18.053 8.8301 10.067 2.3396 14.009 0.067 18.053-8.8301zm-33.264 18.76c0.31112-0.006 0.66793 0.0507 1.0625 0.16406 5.5241 1.5878 18.532 13.741 18.072 14.629-0.45477 1.3316-25.371-13.769-19.922-14.586 0.21048-0.13379 0.47598-0.20143 0.78711-0.20703zm-3.8965 5.6172c0.13157-0.007 0.26944 0.004 0.40625 0.043v-0.002c4.1041 1.1642 12.965 17.34 11.16 17.988 0.14989 0.41599-17.689-14.169-11.936-17.965 0.11328-0.0322 0.23757-0.0574 0.36914-0.0644z" mask="url(#mask4616)" transform="translate(-42.07,-437.98)" stroke-width=".49951"/><g transform="translate(62.076 49.573)"><rect opacity=".5" height="145" filter="url(#filter4976)" width="520" stroke="#000" y="27.93" x="27.93" stroke-width="4"/><rect fill-opacity=".98125" height="145" width="520" y="22.88" x="27.93" fill="#a070be"/><path fill-rule="evenodd" fill="#fff" d="m74.93 37.881-22 22 30 35-32 33 20 20 30-37 32 37 20-23-33-33 33-34-22-20-28 35zm243 4c-27.765 6.073-78.334 21.409-72.084 71.824 1.0688 11.194 18.701 42.521 82.084 34.176-0.23636-8.6171 0.2363-17.383 0-26-13.974 0.35096-46.629 7.7378-49.965-18.268 1.268-26.545 26.828-27.618 44.965-33.732-1.896-9.0118-3.104-18.988-5-28zm28 1v102l58 3v-25h-28v-15l23-3v-21.997h-23l-2-17h30v-23zm147.71 0.24024c-11.44 0.30338-14.834 29.107-15.41 29.945-1.4013 2.0396-60.739-8.1243-69.658 17.666-5.009 14.173 40.478 42.969 44.621 47.301 4.1415 4.3316 2.6901 9.6122 0.14062 12.559-2.6865 2.9502-17.427 11.176-18.861 17.289h113.46v-57.689c-11.431-0.80788-20.899-2.5548-22.695-6.6836-2.6238-5.7891-1.1135-11.952-5.1465-15.408-2.3088-1.1782 13.472-19.997 2.5684-29.234-7.8654-6.1352-20.189 16.888-22.988 19.178-1.2536 1.0242-6.6487 0.26208-5.4531-2.4062 1.2971-2.8987 14.625-24.661 4.832-30.736-1.9779-1.2846-3.7778-1.8226-5.4121-1.7793zm-325.73 1.9082 0.0254 102.85h33l-0.54-37.85 26.53-0.15-1-21.999h-28v-18l30-1 0.00031-24.001c-18.441-0.24332-40.12 0.0717-60.026 0.1493zm247.6 3.3359c-0.0721-0.0129-0.12234-0.008-0.18164 0.02344-0.87149 0.57109 5.3622 24.136 7.3144 23.209 3.1412-1.4727-4.8997-22.825-7.1328-23.232zm15.115 0.13867c-0.0292-0.0199-0.0374 0.02082-0.0684 0.04492-1.7764 0.81627-3.2434 23.234-1.291 22.307 2.1016-0.54455 2.2549-21.73 1.3594-22.352zm36.697 34.48c0.34641-0.01 0.69748 0.01904 1.0488 0.08984 2.8107 0.56673 4.5613 3.5889 3.916 6.7891-0.64524 3.2002-3.4412 5.3617-6.252 4.7949-2.8108-0.56674-4.5496-3.6436-3.9043-6.8438 0.56464-2.8002 2.7666-4.7629 5.1914-4.8301zm11.76 5.873c4.3387 4.5975-7.5458 23.249-18.053 8.8301 10.067 2.3396 14.009 0.067 18.053-8.8301zm-33.264 18.76c0.31112-0.006 0.66793 0.0507 1.0625 0.16406 5.5241 1.5878 18.532 13.741 18.072 14.629-0.45477 1.3316-25.371-13.769-19.922-14.586 0.21048-0.13379 0.47598-0.20143 0.78711-0.20703zm-3.8965 5.6172c0.13157-0.007 0.26944 0.004 0.40625 0.043v-0.002c4.1041 1.1642 12.965 17.34 11.16 17.988 0.14989 0.41599-17.689-14.169-11.936-17.965 0.11328-0.0322 0.23757-0.0575 0.36914-0.0644z"/><rect opacity=".2" height="1" width="518.31" y="23.88" x="28.979" fill="#fff"/><path opacity=".8" fill-opacity=".98125" d="m27.93 22.881v145h520v-145l-520 0.001zm1.049 1h518.02v143.01h-518.02l-0.003-143.01z"/></g></svg>
