/* XPM */
static char * closeI_xpm[] = {
"32 48 6 1",
" 	c None",
".	c #323131",
"+	c #656666",
"@	c #141313",
"#	c #CC0000",
"$	c #FFFFFF",
"................................",
"................................",
"................................",
"................................",
"................................",
"................................",
"...........++......++...........",
"..........++++....++++..........",
"..........+++++..+++++..........",
"...........++++++++++...........",
"............++++++++............",
".............++++++.............",
".............++++++.............",
"............++++++++............",
"...........++++++++++...........",
"..........+++++..+++++..........",
"..........++++....++++..........",
"...........++......++...........",
"................................",
"................................",
"................................",
"................................",
"................................",
"@@@@@@@@@@@@@@@@@@@@@@@@@@@@@@@@",
"################################",
"################################",
"################################",
"################################",
"################################",
"################################",
"###########$$######$$###########",
"##########$$$$####$$$$##########",
"##########$$$$$##$$$$$##########",
"###########$$$$$$$$$$###########",
"############$$$$$$$$############",
"#############$$$$$$#############",
"#############$$$$$$#############",
"############$$$$$$$$############",
"###########$$$$$$$$$$###########",
"##########$$$$$##$$$$$##########",
"##########$$$$####$$$$##########",
"###########$$######$$###########",
"################################",
"################################",
"################################",
"################################",
"################################",
"@@@@@@@@@@@@@@@@@@@@@@@@@@@@@@@@"};
