/* XPM */
static char * frameABR_xpm[] = {
"5 5 3 1",
" 	c None",
".	c #141313",
"+	c #323131",
".....",
"++++.",
"++++.",
"++++.",
"....."};
