/* XPM */
static char * hide_prelight_xpm[] = {
"24 26 4 1",
" 	c None",
".	c #0c1015",
"+	c #181C24",
"@	c #0c1015",
"@@@@@@@@@@@@@@@@@@@@@@@@",
"........................",
"........................",
"........................",
"........................",
"........................",
"........................",
"........................",
"........................",
"........................",
"........................",
"........................",
"........++++++++........",
"........++++++++........",
"........................",
"........................",
"........................",
"........................",
"........................",
"........................",
"........................",
"........................",
"........................",
"........................",
"........................",
"........................"};
