<svg xmlns="http://www.w3.org/2000/svg" viewBox="-4 -4 24 24">
    <path d="M8 1.031c-3.86 0-7 3.156-7 7C1 11.876 4.14 15 8 15s7-3.124 7-6.969c0-3.844-3.14-7-7-7zm0 2c1.073 0 2.062.37 2.875.938l-6.938 6.937A4.88 4.88 0 0 1 3 8.031c0-2.765 2.223-5 5-5zm4.25 2.375c.478.765.781 1.653.781 2.625C13.031 10.797 10.777 13 8 13c-.957 0-1.835-.296-2.594-.75z" style="line-height:normal;-inkscape-font-specification:Sans;text-indent:0;text-align:start;text-decoration-line:none;text-transform:none;marker:none" color="#000" font-weight="400" font-family="Sans" overflow="visible" fill="#c00"/>
</svg>
