<?xml version="1.0" encoding="UTF-8" standalone="no"?>
<svg id="svg4" xmlns="http://www.w3.org/2000/svg" viewBox="-4 -4 24 24" version="1.1"><path id="path4798" style="fill:#f1f2f2;text-decoration-line:none;text-transform:none;text-indent:0" d="m1.8125 1c-0.1139 0.0226-0.2229 0.0649-0.3223 0.125-0.0043 0.0026-0.0094 0.0032-0.0136 0.0059-0.0958 0.0588-0.181 0.1335-0.252 0.2207-0.0708 0.0877-0.1263 0.1867-0.1641 0.2929-0.0014 0.0041-0.0025 0.0077-0.0039 0.0117-0.0388 0.1104-0.058 0.2268-0.0566 0.3438v8.09a0.99813 0.99813 0 0 0 0.0059 0.111 0.99813 0.99813 0 0 0 0.0156 0.098 0.99813 0.99813 0 0 0 0.0058 0.021 0.99813 0.99813 0 0 0 0.0567 0.17 0.99813 0.99813 0 0 0 0.043 0.088 0.99813 0.99813 0 0 0 0.0019 0.002 0.99813 0.99813 0 0 0 0.1133 0.162 0.99813 0.99813 0 0 0 0.1445 0.137 0.99813 0.99813 0 0 0 0.168 0.105 0.99813 0.99813 0 0 0 0.0527 0.024 0.99813 0.99813 0 0 0 0.0391 0.017 0.99813 0.99813 0 0 0 0.1933 0.051 0.99813 0.99813 0 0 0 0.0977 0.012 0.99813 0.99813 0 0 0 0.002 0 0.99813 0.99813 0 0 0 0.2968 -0.027 0.99813 0.99813 0 0 0 0.0957 -0.03c0.077-0.027 0.1253-0.035 0.166-0.035 0.2954 0 0.502 0.207 0.502 0.502s-0.2066 0.502-0.502 0.502c-0.0407 0-0.089-0.008-0.166-0.035a0.99813 0.99813 0 0 0 -0.0273 -0.008 0.99813 0.99813 0 0 0 -0.0801 -0.023 0.99813 0.99813 0 0 0 -0.0859 -0.016 0.99813 0.99813 0 0 0 -0.0137 -0.002 0.99813 0.99813 0 0 0 -0.0859 -0.008 0.99813 0.99813 0 0 0 -0.0118 0 0.99813 0.99813 0 0 0 -0.1015 0.002 0.99813 0.99813 0 0 0 -0.1836 0.031 0.99813 0.99813 0 0 0 -0.0938 0.03 0.99813 0.99813 0 0 0 -0.0761 0.031 0.99813 0.99813 0 0 0 -0.0215 0.01 0.99813 0.99813 0 0 0 -0.0235 0.015 0.99813 0.99813 0 0 0 -0.0683 0.039 0.99813 0.99813 0 0 0 -0.0781 0.057 0.99813 0.99813 0 0 0 -0.0235 0.02 0.99813 0.99813 0 0 0 -0.0527 0.045 0.99813 0.99813 0 0 0 -0.0176 0.019 0.99813 0.99813 0 0 0 -0.0508 0.055 0.99813 0.99813 0 0 0 -0.0019 0.002 0.99813 0.99813 0 0 0 -0.0528 0.068 0.99813 0.99813 0 0 0 -0.0527 0.084 0.99813 0.99813 0 0 0 -0.0449 0.09 0.99813 0.99813 0 0 0 -0.0313 0.082 0.99813 0.99813 0 0 0 -0.0058 0.016 0.99813 0.99813 0 0 0 -0.0098 0.035 0.99813 0.99813 0 0 0 -0.0176 0.066 0.99813 0.99813 0 0 0 0 0.008 0.99813 0.99813 0 0 0 -0.0136 0.094 0.99813 0.99813 0 0 0 -0.0059 0.088 0.99813 0.99813 0 0 0 0 0.011v2.094c-0.00016 0.133 0.0264 0.266 0.0781 0.389 0.05 0.118 0.1223 0.225 0.2129 0.316 0.0013 0.001 0.0026 0.003 0.0039 0.004 0.089 0.088 0.1937 0.158 0.3086 0.207 0.0055 0.002 0.0102 0.006 0.0156 0.008 0.1208 0.05 0.2502 0.076 0.3809 0.076h2.1055a0.99813 0.99813 0 0 0 0.9297 -1.332c-0.0273-0.077-0.0352-0.125-0.0352-0.166 0-0.295 0.2066-0.502 0.502-0.502 0.2953 0 0.5019 0.207 0.5019 0.502 0 0.041-0.0079 0.089-0.0351 0.166a0.99813 0.99813 0 0 0 0.9414 1.332h6.0898c0.133 0 0.266-0.026 0.389-0.078 0.118-0.05 0.225-0.122 0.316-0.213l0.004-0.004c0.088-0.089 0.158-0.194 0.207-0.309 0.002-0.005 0.006-0.01 0.008-0.015 0.05-0.121 0.076-0.25 0.076-0.381v-9.4375c0.002-0.1309-0.021-0.2609-0.068-0.3828v-0.0039c-0.001-0.0014-0.002-0.0026-0.002-0.0039-0.048-0.1222-0.12-0.2337-0.211-0.3281l-3.563-3.5645c-0.095-0.0916-0.2082-0.1633-0.3318-0.2109-0.1231-0.0482-0.2545-0.0714-0.3867-0.0684h-7.4375c-0.0312-0.00147-0.0624-0.00147-0.0938 0-0.0312-0.00147-0.0625-0.00147-0.0937 0zm0.7871 1h4.8008c0.3324 0 0.5996 0.2672 0.5996 0.5996v2.9512h0.0098c0.0245 0.2343 0.2051 0.4149 0.4394 0.4394v0.0098h3.9508c0.333 0 0.6 0.2672 0.6 0.5996v7.8004c0 0.333-0.267 0.6-0.6 0.6h-4.6754c0.1711-0.295 0.2754-0.633 0.2754-1v-3c0-1.108-0.892-2-2-2h-3c-0.3669 0-0.705 0.1043-1 0.2754v-1.6758c0-0.0353 0.0137-0.066 0.0195-0.0996-0.0058-0.0336-0.0195-0.0643-0.0195-0.0996v-4.8008c0-0.3324 0.2672-0.5996 0.5996-0.5996zm6.4004 0l3 3h-2c-1 0.0001-1 0-1-1v-2z"/><path id="rect4489" style="fill:#f1f2f2" d="m5.5 6c-0.831 0-1.5 0.669-1.5 1.5 0 0.1768 0.0361 0.3428 0.0918 0.5h-1.9492c-0.6325 0-1.1415 0.5084-1.1426 1.1406v0.9494a0.99813 0.99813 0 0 0 0 0.012 0.99813 0.99813 0 0 0 0.998 0.986v-1.9454c0-0.0497 0.0125-0.0855 0.0372-0.1094-0.0232 0.0239-0.0352 0.0593-0.0352 0.1074v1.9474a0.99813 0.99813 0 0 0 0.332 -0.057c0.077-0.027 0.1253-0.035 0.166-0.035 0.2954 0 0.502 0.207 0.502 0.502s-0.2066 0.502-0.502 0.502c-0.0407 0-0.089-0.008-0.166-0.035a0.99813 0.99813 0 0 0 -0.332 -0.057v2.947c0 0.098 0.0467 0.145 0.1445 0.145h2.9434a0.99813 0.99813 0 0 0 -0.0527 -0.424c-0.0273-0.077-0.0352-0.125-0.0352-0.166 0-0.295 0.2066-0.502 0.502-0.502 0.2953 0 0.5019 0.207 0.5019 0.502 0 0.041-0.0079 0.089-0.0351 0.166a0.99813 0.99813 0 0 0 -0.0528 0.424h1.9434c0.0481 0 0.0835-0.012 0.1074-0.035-0.0239 0.025-0.0597 0.037-0.1094 0.037h-1.9453a0.99813 0.99813 0 0 0 0.9981 0.998h0.9492c0.6322-0.001 1.1406-0.51 1.1406-1.143v-1.949c0.1572 0.056 0.3232 0.092 0.5 0.092 0.831 0 1.5-0.669 1.5-1.5s-0.669-1.5-1.5-1.5c-0.1768 0-0.3428 0.036-0.5 0.092v-0.9494c0-0.6332-0.5094-1.1426-1.1426-1.1426h-0.9492c0.0557-0.1572 0.0918-0.3232 0.0918-0.5 0-0.831-0.669-1.5-1.5-1.5zm-0.4629 1.2949c-0.024 0.0609-0.0371 0.1293-0.0371 0.2031 0 0.0408 0.0079 0.0891 0.0352 0.1661a0.99813 0.99813 0 0 1 0.041 0.5058 0.99813 0.99813 0 0 0 -0.043 -0.5039c-0.0273-0.077-0.0352-0.1253-0.0352-0.166 0-0.0749 0.0145-0.1435 0.0391-0.2051zm-0.0254 1.0938a0.99813 0.99813 0 0 1 -0.0293 0.0644 0.99813 0.99813 0 0 1 -0.0508 0.086 0.99813 0.99813 0 0 0 0.0508 -0.086 0.99813 0.99813 0 0 0 0.0293 -0.0644zm-3.0137 3.5193a0.99813 0.99813 0 0 0 -0.998 0.998v1.951c0 0.634 0.5094 1.143 1.1426 1.143h1.9629a0.99813 0.99813 0 0 0 0.9863 -0.998h-2.9492c-0.0978 0-0.1446-0.047-0.1446-0.145v-2.949zm7.0332 0a0.99813 0.99813 0 0 1 0.2071 0.03 0.99813 0.99813 0 0 1 0.0976 0.027c0.077 0.027 0.1253 0.035 0.1661 0.035 0.0738 0 0.1422-0.013 0.2031-0.037-0.0616 0.025-0.1302 0.039-0.2051 0.039-0.0407 0-0.089-0.008-0.166-0.035a0.99813 0.99813 0 0 0 -0.0957 -0.029 0.99813 0.99813 0 0 0 -0.2969 -0.028 0.99813 0.99813 0 0 0 -0.3828 0.102 0.99813 0.99813 0 0 1 0.3828 -0.102 0.99813 0.99813 0 0 1 0.0898 -0.002z"/></svg>
