<svg xmlns="http://www.w3.org/2000/svg" viewBox="-4 -4 24 24">
    <g color="#000" font-weight="400" font-family="Sans" fill="#f1f2f2">
        <path style="line-height:normal;-inkscape-font-specification:Sans;text-indent:0;text-align:start;text-decoration-line:none;text-transform:none;marker:none" d="M7 14H4.031V3h4.563L12 6.406v5.578L14 15V5.969a1.013 1.013 0 0 0-.312-.719L9.719 1.312A1.013 1.013 0 0 0 9 1H3.031c-.523 0-1 .476-1 1v12.969c0 .523.477 1 1 1h5.016z" overflow="visible"/>
        <path style="line-height:normal;-inkscape-font-specification:Sans;text-indent:0;text-align:start;text-decoration-line:none;text-transform:none;marker:none" d="M9.02 7.863a3.264 3.264 0 0 0-.994-.003l.976 1.728c.2.356-.024.763-.45 1.01l-.77.444c-.43.24-.91.208-1.11-.147l-.976-1.73a3.22 3.22 0 0 0-.515.848c-.565 1.471.237 2.892 1.792 3.175.325.059.667.045.994.003.026-.004 1.518 2.765 1.518 2.765l3.505.062-2.667-4.13c.207-.256.37-.544.489-.851.565-1.47-.237-2.892-1.792-3.174z" overflow="visible"/>
    </g>
</svg>
