<svg xmlns="http://www.w3.org/2000/svg" viewBox="-4 -4 24 24">
    <g fill="#f1f2f2">
        <path d="M4.031 5.031V12h5l1.991-1.987L11 5.031H4.031zM5.53 0h4.002a.53.53 0 0 1 .53.53v2.94a.53.53 0 0 1-.53.53H5.53A.53.53 0 0 1 5 3.47V.53A.53.53 0 0 1 5.53 0z"/>
        <path style="line-height:normal;-inkscape-font-specification:'Bitstream Vera Sans';text-indent:0;text-align:start;text-decoration-line:none;text-transform:none;marker:none" d="M2.5 1c-.293 0-.647.036-1 .313-.353.276-.531.768-.531 1.125v12.03c0 .385.127.816.437 1.126.286.285.71.386 1.094.375V16h9.969c.363 0 .76-.128 1.062-.406.303-.279.469-.71.469-1.125V2.375c0-.333-.119-.73-.406-1A1.444 1.444 0 0 0 12.625 1h-1.656v2H12v11H2.969V3h.969V1z" color="#000" font-weight="400" font-family="Bitstream Vera Sans" overflow="visible"/>
    </g>
</svg>
