<svg xmlns="http://www.w3.org/2000/svg" viewBox="-4 -4 24 24">
    <path style="line-height:normal;-inkscape-font-specification:'Andale Mono';text-indent:0;text-align:start;text-decoration-line:none;text-transform:none;marker:none" d="M8 1.031A6.963 6.963 0 0 0 1.031 8 6.963 6.963 0 0 0 8 14.969 6.963 6.963 0 0 0 14.969 8 6.963 6.963 0 0 0 8 1.031zM5 5h1.031c.255.011.51.129.688.313L8 6.593l1.313-1.28c.265-.231.446-.306.687-.313h1v1c0 .286-.034.55-.25.75L9.469 8.031l1.25 1.25c.188.188.281.454.281.719v1h-1c-.265 0-.53-.093-.719-.281L8 9.438l-1.281 1.28A1.015 1.015 0 0 1 6 11H5v-1c0-.265.093-.53.281-.719l1.282-1.25L5.28 6.75A.909.909 0 0 1 5 6z" color="#f1f2f2" font-weight="400" font-family="Andale Mono" overflow="visible" fill="#c00"/>
</svg>
