<svg xmlns="http://www.w3.org/2000/svg" viewBox="-4 -4 24 24">
    <g color="#000" fill="#f1f2f2">
        <path d="M3 9h1v1H3zm-1 1h1v1H2zm1 1h1v1H3zm-1 1h1v1H2zm1 1h1v1H3zm-1 1h1v1H2zm2 0h1v1H4zm2 0h1v1H6zm2 0h1v1H8zm2 0h1v1h-1z" style="marker:none" overflow="visible" fill-rule="evenodd"/>
        <path style="line-height:normal;-inkscape-font-specification:Sans;text-indent:0;text-align:start;text-decoration-line:none;text-transform:none;marker:none" d="M2.813 1A1.032 1.032 0 0 0 2 2v8h2V3h5v3h3v7.997h2V5.562a1.013 1.013 0 0 0-.281-.718L10.156 1.28A1.012 1.012 0 0 0 9.438 1H3a1.464 1.464 0 0 0-.094 0 1.464 1.464 0 0 0-.093 0z" font-weight="400" font-family="Sans" overflow="visible"/>
        <path d="M3 15h1v1H3zm2 0h1v1H5zm2 0h1v1H7zm2 0h1v1H9zm2 0h1v1h-1zm1-1.188h1V15h-1z" style="marker:none" overflow="visible" fill-rule="evenodd"/>
    </g>
</svg>
