<svg xmlns="http://www.w3.org/2000/svg" viewBox="-4 -4 24 24">
    <path style="line-height:normal;text-indent:0;text-align:start;text-decoration-line:none;text-decoration-style:solid;text-decoration-color:#000;text-transform:none;isolation:auto;mix-blend-mode:normal" d="M1.531 1A1.53 1.53 0 0 0 0 2.531V13.47C0 14.287.713 15 1.531 15H8a1 1 0 1 0 0-2H2V3h4v1a1 1 0 0 0 1 1h7v2a1 1 0 1 0 2 0V4.594C16 3.724 15.277 3 14.406 3H8v-.469A1.53 1.53 0 0 0 6.469 1z" color="#000" font-weight="400" font-family="sans-serif" white-space="normal" overflow="visible" fill="#f1f2f2"/>
    <path d="M12 9.01v1.997h-2v1.996h2V15h2v-1.997h2v-1.996h-2V9.01z" fill="#690"/>
</svg>
