<svg xmlns="http://www.w3.org/2000/svg" viewBox="-4 -4 24 24">
    <g fill="#f1f2f2">
        <path d="M6 12v2H.469a.464.464 0 0 0-.469.469v1.062c0 .263.206.469.469.469H13.53a.464.464 0 0 0 .469-.469V14.47a.464.464 0 0 0-.469-.469H8v-2z"/>
        <path style="line-height:normal;-inkscape-font-specification:Sans;text-indent:0;text-align:start;text-decoration-line:none;text-transform:none;marker:none" d="M4 0C2.91 0 2 .91 2 2v8c0 1.09.91 2 2 2h6c1.09 0 2-.91 2-2V2c0-1.09-.91-2-2-2zm0 2h6v8H4z" color="#000" font-weight="400" font-family="Sans" overflow="visible"/>
        <path d="M5 3h4v1H5zm3 2h1v1H8z" style="marker:none" color="#000" overflow="visible"/>
    </g>
</svg>
