<svg xmlns="http://www.w3.org/2000/svg" viewBox="-4 -4 24 24">
    <path opacity=".5" fill="#f1f2f2" d="M5 1C2.784 1 1 2.784 1 5v6c0 2.216 1.784 4 4 4h3.436c-3.592-3.185-4.913-7.35-4.913-7.35a.5.5 0 0 1 .127-.507s3.978-3.872 9.288-5.645A3.994 3.994 0 0 0 11 1H5zm9.801 2.752c-4.378.922-6.429 3.75-6.725 4.188.087.307.64 2.089 1.924 3.908V10h.223c-.513-1.068-.711-1.89-.711-1.89a.5.5 0 0 1 .09-.413s1.884-2.484 5.332-3.41a3.983 3.983 0 0 0-.133-.535zM15 7.15a3.298 3.298 0 0 0-1.438 1c.031.173.202.974.6 1.85H15V7.15z"/>
    <path d="M11 11h1.375l1.125 1.094L14.594 11H16v1.469l-1.094 1.062L16 14.594V16h-1.438L13.5 14.937 12.437 16H11v-1.406l1.062-1.063L11 12.47z" overflow="visible" fill="#c00" color="#f1f2f2"/>
</svg>
