/* XPM */
static char * close_pressed_xpm[] = {
"64 44 3 1",
" 	c None",
".	c #CC0000",
"+	c #D02604",
"............++++++++++++++++++++++++++++++++++++++++++..........",
"............++++++++++++++++++++++++++++++++++++++++++..........",
"............++++++++++++++++++++++++++++++++++++++++++..........",
"............++++++++++++++++++++++++++++++++++++++++++..........",
"............++++++++++++++++++++++++++++++++++++++++++..........",
"............++++++++++++++++++++++++++++++++++++++++++..........",
"............++++++++++++++++++++++++++++++++++++++++++..........",
"............++++++++++++++++++++++++++++++++++++++++++..........",
"............++++++++++++++++++++++++++++++++++++++++++..........",
"............++++++++++++++++++++++++++++++++++++++++++..........",
"............++++++++++++++++++++++++++++++++++++++++++..........",
"............++++++++++++++++++++++++++++++++++++++++++..........",
"............++++++++++++++++++++++++++++++++++++++++++..........",
"............++++++++++++++++++++++++++++++++++++++++++..........",
"............++++++++++++++++++++++++++++++++++++++++++..........",
"............++++++++++++++++++++++++++++++++++++++++++..........",
"............++++++++++++++++++++++++++++++++++++++++++..........",
"............++++++++++++++++++++++++++++++++++++++++++..........",
"............++++++++++++++++++++++++++++++++++++++++++..........",
"............++++++++++++++++++++++++++++++++++++++++++..........",
"............++++++++++++++++++++++++++++++++++++++++++..........",
"............++++++++++++++++++++++++++++++++++++++++++..........",
"............++++++++++++++++++++++++++++++++++++++++++..........",
"............++++++++++++++++++++++++++++++++++++++++++..........",
"............++++++++++++++++++++++++++++++++++++++++++..........",
"............++++++++++++++++++++++++++++++++++++++++++..........",
"............++++++++++++++++++++++++++++++++++++++++++..........",
"............++++++++++++++++++++++++++++++++++++++++++..........",
"............++++++++++++++++++++++++++++++++++++++++++..........",
"............++++++++++++++++++++++++++++++++++++++++++..........",
"............++++++++++++++++++++++++++++++++++++++++++..........",
"............++++++++++++++++++++++++++++++++++++++++++..........",
"............++++++++++++++++++++++++++++++++++++++++++..........",
"............++++++++++++++++++++++++++++++++++++++++++..........",
"............++++++++++++++++++++++++++++++++++++++++++..........",
"............++++++++++++++++++++++++++++++++++++++++++..........",
"............++++++++++++++++++++++++++++++++++++++++++..........",
"............++++++++++++++++++++++++++++++++++++++++++..........",
"............++++++++++++++++++++++++++++++++++++++++++..........",
"............++++++++++++++++++++++++++++++++++++++++++..........",
"............++++++++++++++++++++++++++++++++++++++++++..........",
"............++++++++++++++++++++++++++++++++++++++++++..........",
"............++++++++++++++++++++++++++++++++++++++++++..........",
"............++++++++++++++++++++++++++++++++++++++++++.........."};
