/* XPM */
static char * top_right_active_xpm[] = {
"10 48 3 1",
" 	c None",
".	c #131212",
"+	c #323131",
"..........",
"..........",
"++++++++..",
"++++++++..",
"++++++++..",
"++++++++..",
"++++++++..",
"++++++++..",
"++++++++..",
"++++++++..",
"++++++++..",
"++++++++..",
"++++++++..",
"++++++++..",
"++++++++..",
"++++++++..",
"++++++++..",
"++++++++..",
"++++++++..",
"++++++++..",
"++++++++..",
"++++++++..",
"++++++++..",
"++++++++..",
"++++++++..",
"++++++++..",
"++++++++..",
"++++++++..",
"++++++++..",
"++++++++..",
"++++++++..",
"++++++++..",
"++++++++..",
"++++++++..",
"++++++++..",
"++++++++..",
"++++++++..",
"++++++++..",
"++++++++..",
"++++++++..",
"++++++++..",
"++++++++..",
"++++++++..",
"++++++++..",
"++++++++..",
"++++++++..",
"..........",
".........."};
