#define desk_toggled_width 16
#define desk_toggled_height 16
static unsigned char desk_toggled_bits[] = {
   0xe0, 0x03, 0xe0, 0x07, 0x30, 0x0c, 0x30, 0x0c, 0x30, 0x0c, 0x30, 0x0c,
   0x00, 0x0c, 0x00, 0x0c, 0x00, 0x0c, 0xfc, 0x3f, 0xfc, 0x3f, 0xfc, 0x3f,
   0xfc, 0x3f, 0xfc, 0x3f, 0xfc, 0x3f, 0xfc, 0x3f };
