#define desk_width 16
#define desk_height 16
static unsigned char desk_bits[] = {
   0x00, 0x00, 0x00, 0x00, 0xe0, 0x07, 0x70, 0x0e, 0x30, 0x0c, 0x30, 0x0c,
   0x30, 0x0c, 0x30, 0x0c, 0xfc, 0x3f, 0xfc, 0x3f, 0xfc, 0x3f, 0xfc, 0x3f,
   0xfc, 0x3f, 0xfc, 0x3f, 0x00, 0x00, 0x00, 0x00 };
