#define max_toggled_width 16
#define max_toggled_height 16
static unsigned char max_toggled_bits[] = {
   0x00, 0xcc, 0x00, 0x6c, 0x00, 0x7c, 0x00, 0x3c, 0x00, 0xfc, 0x00, 0xfc,
   0xff, 0x03, 0xff, 0x03, 0xff, 0x03, 0xff, 0x03, 0x03, 0x03, 0x03, 0x03,
   0x03, 0x03, 0x03, 0x03, 0xff, 0x03, 0xff, 0x03 };
