/* XPM */
static char * hide_prelight_xpm[] = {
"24 26 4 1",
" 	c None",
".	c #2B2A2F",
"+	c #e6e6e6",
"@	c #2B2A2F",
"@@@@@@@@@@@@@@@@@@@@@@@@",
"........................",
"........................",
"........................",
"........................",
"........................",
"........................",
"........................",
"........................",
"........................",
"........................",
"........................",
"........++++++++........",
"........++++++++........",
"........................",
"........................",
"........................",
"........................",
"........................",
"........................",
"........................",
"........................",
"........................",
"........................",
"........................",
"........................"};
