<?xml version="1.0" encoding="UTF-8" standalone="no"?>
<svg id="svg8" xmlns="http://www.w3.org/2000/svg" height="100" viewBox="0 0 26.458333 26.458333" width="100" version="1.1"><path id="path5040" style="color-rendering:auto;text-decoration-color:#000000;color:#000000;font-variant-numeric:normal;text-orientation:mixed;shape-rendering:auto;solid-color:#000000;text-decoration-line:none;stroke-width:.99999;fill:#ffffff;font-variant-position:normal;mix-blend-mode:normal;font-feature-settings:normal;opacity:.1;shape-padding:0;font-variant-alternates:normal;text-indent:0;dominant-baseline:auto;font-variant-caps:normal;image-rendering:auto;white-space:normal;text-decoration-style:solid;font-variant-ligatures:normal;isolation:auto;text-transform:none" d="m0 0v5.2305l5.2305-5.2305h-5.2305zm14.77 0l-14.77 14.77v10.459l25.229-25.229h-10.459zm20.003 0l-34.773 34.77v10.462l45.227-45.232h-10.454zm19.998 0l-54.771 54.766v10.463l65.23-65.229h-10.459zm19.997 0l-74.768 74.768v10.459l85.227-85.227h-10.459zm19.998 0l-94.766 94.77v5.226 0.002h0.0019531 5.2226l94.773-94.758v-5.24h-5.232zm5.232 14.771l-85.227 85.227h10.459l74.768-74.768v-10.459zm0 19.999l-65.228 65.228h10.464l54.764-54.769v-10.459zm0 20.003l-45.23 45.225h10.464l34.766-34.771v-10.454zm0 19.997l-25.227 25.228h10.459l14.768-14.769v-10.459zm0 19.998l-5.23 5.23h5.23v-5.23z" transform="scale(.26458)"/></svg>
