#define bullet_width 8
#define bullet_height 7
static unsigned char bullet_bits[] = {
   0x0f, 0x12, 0x6c, 0xc0, 0x6c, 0x12, 0x0f };
