/* XPM */
static char * errmail_xpm[] = {
"16 16 9 1",
" 	c None",
".	c #F2F2F2",
"+	c #F1F2F2",
"@	c #F0F2F2",
"#	c #F1F3F3",
"$	c #F1F1F1",
"%	c #FF6500",
"&	c #FF6600",
"*	c #FF6700",
"                ",
".++++++++++++@  ",
"++++++++++++++  ",
"++++#    #++++  ",
"++ +++  $++ ++  ",
"++  ++##++  ++  ",
"++   .+++   ++  ",
"++    ..        ",
"++      %&&&&&&&",
"++      &&&  &&&",
"+++++++ &&&  &&&",
"@++++++ &&&  &&&",
"        &&&  &&&",
"        &&&&&&&&",
"        &&&  &&&",
"        *&&&&&&*"};
