/* XPM */
static char * nomail_xpm[] = {
"16 16 4 1",
" 	c None",
".	c #8E8E8E",
"+	c #8F8F8F",
"@	c #8D8D8D",
"                ",
"                ",
"                ",
" .............+ ",
" .............. ",
" ....      .... ",
" .....+   ..... ",
" ..  ......  .. ",
" ..   +...   .. ",
" ..    @.    .. ",
" ..          .. ",
" ..          .. ",
" .............. ",
" +............. ",
"                ",
"                "};
