/* XPM */
static char * app_16x16_xpm[] = {
"16 16 6 1",
" 	c None",
".	c #F0F2F2",
"+	c #F1F2F2",
"@	c #F2F2F2",
"#	c #F1F1F1",
"$	c #F1F3F3",
"                ",
" .++          @ ",
"  +++        +  ",
"   ++#      $   ",
"    ++@    +    ",
"     ++.  .     ",
"     @++  @     ",
"      ++ +      ",
"      + ++      ",
"     @  ++@     ",
"     @  .++     ",
"    $    $++    ",
"   $      +++   ",
"  +        .+#  ",
" .          +++ ",
"                "};
