/* XPM */
static char * bomb_xpm[] = {
"16 16 4 1",
" 	c None",
".	c #CC0000",
"+	c #CB0000",
"@	c #CD0000",
"                ",
"                ",
"     ......     ",
"    ........    ",
"   ...    ...   ",
"  ... ...+ ...  ",
"  .. ...... ..  ",
"  .. ...... ..  ",
"  .. ...... ..  ",
"  .. ...... ..  ",
"  ... ...+ ...  ",
"   @..    ..+   ",
"    +.......    ",
"     ......     ",
"                ",
"                "};
