/* XPM */
static char * file_xpm[] = {
"16 16 4 1",
" 	c None",
".	c #F1F2F2",
"+	c #F0F2F2",
"@	c #F1F1F1",
"                ",
" ........+      ",
" .      .@.     ",
" .      .  .    ",
" .      .  @.   ",
" .      .....+  ",
" .           .  ",
" .           .  ",
" .           .  ",
" .           .  ",
" .           .  ",
" .           .  ",
" .           .  ",
" .           .  ",
" .           .  ",
" .............  "};
