/* XPM */
static char * folder_xpm[] = {
"16 16 2 1",
" 	c None",
".	c #F1F2F2",
"                ",
"......          ",
"......          ",
"..............  ",
"..............  ",
"..              ",
".. .............",
".. .............",
".. .............",
".. .............",
".. .............",
".. .............",
".. .............",
".. .............",
"................",
"................"};
