/* XPM */
static char * lock_xpm[] = {
"16 16 4 1",
" 	c None",
".	c #F0F2F2",
"+	c #F1F2F2",
"@	c #F2F2F2",
"                ",
"     .++++@     ",
"    @++++++@    ",
"    ++    ++    ",
"    ++    ++    ",
"    ++    ++    ",
"    ++    ++    ",
"  ++++++++++++  ",
"  ++++++++++++  ",
"  ++++++++++++  ",
"  ++++++++++++  ",
"  ++++++++++++  ",
"  ++++++++++++  ",
"  ++++++++++++  ",
"                ",
"                "};
