/* XPM */
static char * www_xpm[] = {
"16 16 9 1",
" 	c None",
".	c #F1F1F1",
"+	c #F1F2F2",
"@	c #F1F3F3",
"#	c #F0F2F2",
"$	c #F3F3F3",
"%	c #F0F0F0",
"&	c #F0F3F3",
"*	c #F2F2F2",
"                ",
"     .+++@      ",
"    ++++++++    ",
"   ++#    +++   ",
"  ++$      %++  ",
" .+&   *    @+@ ",
" .+   .+     ++ ",
" ++  *++     ++ ",
" ++ .+++     ++ ",
" +  ++++     ++ ",
"   +++++    *+  ",
"  ++++++    ++  ",
"    ++++  .++   ",
"   #+ @+ +++    ",
"   ++  + ..     ",
"   +            "};
