/* XPM */
static char * xedit_xpm[] = {
"16 16 5 1",
" 	c None",
".	c #F1F2F2",
"+	c #F1F3F3",
"@	c #F1F1F1",
"#	c #F2F2F2",
"     . . . .    ",
"   + . . . . .  ",
"  @. . . . . .+ ",
"  .. . . . . .. ",
"  ..         .. ",
"  ..         .. ",
"  .. ....... .. ",
"  ..         .. ",
"  .. ......  .. ",
"  ..         .. ",
"  .. ....... .. ",
"  ..         .. ",
"  .. ....    .. ",
"  ..         .. ",
"  #...........+ ",
"   #.........#  "};
