/* XPM */
static char * xmixer_xpm[] = {
"16 16 3 1",
" 	c None",
".	c #F2F2F2",
"+	c #F1F2F2",
"                ",
"                ",
"                ",
"             .+ ",
"          .++++ ",
"      .++++++++ ",
"   ++++++++++++ ",
"                ",
"                ",
"         ++     ",
" ++++++++++++++ ",
" ++++++++++++++ ",
"         ++     ",
"                ",
"                ",
"                "};
