/* XPM */
static char * xterm_xpm[] = {
"16 16 3 1",
" 	c None",
".	c #F1F2F2",
"+	c #F0F2F2",
"                ",
"................",
".              .",
". ............ .",
". ............ .",
". .  ......... .",
". ..  ........ .",
". ..+  ....... .",
". ..+  ....... .",
". ..  ........ .",
". .  ...    .. .",
". ............ .",
". ............ .",
".              .",
"................",
"                "};
