<?xml version="1.0" encoding="UTF-8" standalone="no"?>
<svg id="svg4" xmlns="http://www.w3.org/2000/svg" version="1.1" viewBox="0 0 16 16" width="32" height="32"><path id="path2" style="fill:#cc0000" d="m7.906 0.094c-0.525-0.029-1.038 0.283-1.437 0.969l-6.25 11.592c-0.534 0.965 0.048 2.345 1.094 2.345h13.156c0.982 0 1.903-1.16 1.219-2.344l-6.313-11.531c-0.399-0.646-0.943-1.003-1.469-1.031zm0.064 3.936c0.544-0.017 1.048 0.487 1.031 1.032v3.938c0.007 0.528-0.471 1-1 1-0.528 0-1.007-0.472-1-1v-3.938a1.033 1.033 0 0 1 0.813 -1 1 1 0 0 1 0.156 -0.03zm0.03 6.97a1 1 0 1 1 0 2 1 1 0 0 1 0 -2z" color="#f1f2f2" overflow="visible" fill="#f60"/></svg>
