<svg xmlns="http://www.w3.org/2000/svg" viewBox="0 0 16 16" width="32" height="32">
    <path d="M12 1v1.997h-2v1.996h2V6.99h2V4.993h2V2.997h-2V1z" fill="#690"/>
    <path style="line-height:normal;-inkscape-font-specification:Sans;text-indent:0;text-align:start;text-decoration-line:none;text-transform:none;marker:none" d="M6.406 6A.5.5 0 0 0 6 6.5V9H4.5a.5.5 0 1 0 0 1h2a.5.5 0 0 0 .5-.5v-3a.5.5 0 0 0-.594-.5z" color="#000" font-weight="400" font-family="Sans" overflow="visible" fill="#f1f2f2"/>
    <path style="line-height:normal;-inkscape-font-specification:Sans;text-indent:0;text-align:start;text-decoration-line:none;text-transform:none;marker:none" d="M6.5 3C2.922 3 0 5.922 0 9.5S2.922 16 6.5 16 13 13.078 13 9.5c0-.516-.073-1.018-.187-1.5h-2.094c.167.473.281.967.281 1.5 0 2.497-2.003 4.5-4.5 4.5A4.485 4.485 0 0 1 2 9.5C2 7.003 4.003 5 6.5 5c.932 0 1.79.27 2.5.75V3.5A6.442 6.442 0 0 0 6.5 3z" color="#000" font-weight="400" font-size="xx-small" font-family="Sans" overflow="visible" fill="#f1f2f2"/>
</svg>
