<?xml version="1.0" encoding="UTF-8" standalone="no"?>
<svg id="svg2408" xmlns="http://www.w3.org/2000/svg" xml:space="preserve" viewBox="0 0 16 16" width="32" height="32" version="1.1" xmlns:xlink="http://www.w3.org/1999/xlink"><defs id="defs16"><linearGradient id="linearGradient147" y2="62.786" xlink:href="#SVGID_1_" gradientUnits="userSpaceOnUse" x2="37.868" gradientTransform="matrix(1.0059 0 0 -.9942 9.9104 69.418)" y1="-22.713" x1="37.868"/></defs><filter id="filter3794" style="color-interpolation-filters:sRGB" height="1.384" width="1.384" y="-.192" x="-.192"><feGaussianBlur id="feGaussianBlur3796" stdDeviation="5.28"/></filter><filter id="filter3218" style="color-interpolation-filters:sRGB"><feGaussianBlur id="feGaussianBlur3220" stdDeviation="1.71"/></filter><path id="path22" style="fill:#f1f2f2" d="m6.0508 0.90039c-0.0368 0.00946-0.0683 0.03602-0.084 0.07031l-5.9551 12.847c-0.037471 0.077 0.02582 0.18 0.11135 0.182h2.1094c0.0466-0.001 0.0925-0.029 0.1133-0.07l1.3496-2.918h4.3164l0.4922 2.883c0.0102 0.058 0.0671 0.105 0.127 0.105h1.3691v-4h0.562l-1.5932-8.9941c-0.0102-0.05861-0.0671-0.10569-0.127-0.10551h-2.7637c-0.0093-0.00103-0.018-0.00103-0.0273 0zm0.8301 2.7148l0.8711 5.4219h-3.17l2.2989-5.4219z"/><g id="layer2" style="display:none" transform="translate(0,-80)"><g id="rect3745" style="opacity:.9;filter:url(#filter3218);display:inline"><linearGradient id="SVGID_1_" x1="37.868" gradientUnits="userSpaceOnUse" y1="-22.713" gradientTransform="matrix(1.0059 0 0 -.9942 9.9104 69.418)" x2="37.868" y2="62.786"><stop id="stop10" style="stop-color:#000000" offset="0"/><stop id="stop12" style="stop-color:#000000;stop-opacity:.5882" offset="1"/></linearGradient><path id="path14" style="fill:url(#SVGID_1_)" d="m12 7h72c3.866 0 7 3.134 7 7v71c0 3.866-3.134 7-7 7h-72c-3.866 0-7-3.134-7-7v-71c0-3.866 3.134-7 7-7z"/></g></g><g id="layer2-5" style="display:none" transform="translate(31.593 -80.61)"><g id="rect3745-6" style="opacity:.9;filter:url(#filter3218-5);display:inline"><path id="path14-1" d="m12 7h72c3.866 0 7 3.134 7 7v71c0 3.866-3.134 7-7 7h-72c-3.866 0-7-3.134-7-7v-71c0-3.866 3.134-7 7-7z" style="fill:url(#linearGradient147)"/></g></g><path id="path6" d="m11 11h1.375l1.125 1.094 1.093-1.094h1.407v1.469l-1.094 1.062 1.094 1.063v1.406h-1.438l-1.062-1.063-1.063 1.063h-1.437v-1.406l1.062-1.063-1.062-1.061z" style="color:#f1f2f2;fill:#cc0000" overflow="visible"/></svg>
