<svg xmlns="http://www.w3.org/2000/svg" viewBox="0 0 16 16" width="32" height="32">
    <path d="M5 11v2h2v-2z" class="error" fill="#c00"/>
    <path style="line-height:normal;-inkscape-font-specification:Sans;text-indent:0;text-align:start;text-decoration-line:none;text-transform:none;marker:none" d="M5.469 0c-.49 0-.797.228-1.032.469C4.202.709 4 1.027 4 1.5V2H2v14h5v-2H4V4h2V2h4v2h2v3h2V2h-2v-.437a1.576 1.576 0 0 0-.406-1A1.53 1.53 0 0 0 10.437.03V0H5.47z" color="#f1f2f2" font-weight="400" font-family="Sans" overflow="visible" fill="#f1f2f2"/>
    <path style="marker:none" d="M8.875 8A.863.863 0 0 0 8 8.875v6.25c0 .492.383.875.875.875h6.25a.863.863 0 0 0 .875-.875v-6.25A.863.863 0 0 0 15.125 8zM11 9h2v4h-2zm0 5h2v1h-2z" class="warning" color="#f1f2f2" overflow="visible" fill="#f60"/>
</svg>
