<?xml version="1.0" encoding="UTF-8" standalone="no"?>
<svg id="svg7384" xmlns="http://www.w3.org/2000/svg" viewBox="0 0 16.085 16.024" version="1.1"><title id="title9167">Gnome Symbolic Icon Theme</title><g id="layer12" style="fill:#f1f2f2" transform="translate(-60.952,-646.98)"><path id="rect13039" style="block-progression:tb;text-indent:0;color:#000000;enable-background:new;text-transform:none;fill:#f1f2f2" d="m61.906 653a1.0001 1.0001 0 0 0 -0.906 1v8a1.0001 1.0001 0 0 0 1 1h8a1.0001 1.0001 0 0 0 1 -1v-8a1.0001 1.0001 0 0 0 -1 -1h-8a1.0001 1.0001 0 0 0 -0.09375 0zm1.094 2h6v6h-6v-6z"/><path id="path13041" style="fill-rule:evenodd;block-progression:tb;text-indent:0;color:#000000;enable-background:new;text-transform:none;fill:#f1f2f2" d="m61.906 655a1.0011 1.0011 0 1 0 0.094 2h8a1.0001 1.0001 0 1 0 0 -2h-8a1.0001 1.0001 0 0 0 -0.09375 0z"/><path id="path12113-8" style="block-progression:tb;text-indent:0;color:#000000;enable-background:new;text-transform:none;fill:#f1f2f2" d="m76.235 653a1.0001 1.0001 0 0 0 0.781 -1v-4a1.0001 1.0001 0 0 0 -1 -1h-4a1.0001 1.0001 0 1 0 0 2h3v3a1.0001 1.0001 0 0 0 1.2188 1z"/><path id="path12147-8" style="block-progression:tb;text-indent:0;color:#000000;enable-background:new;text-transform:none;fill:#f1f2f2" d="m72.141 653a1.0001 1.0001 0 0 0 0.59375 -0.28125l4-4a1.0165 1.0165 0 1 0 -1.4375 -1.4375l-4 4a1.0001 1.0001 0 0 0 0.843 1.72z"/><rect id="rect12919-5" style="color:#000000;enable-background:new;fill:#f1f2f2" transform="scale(-1)" height="1" width="1" y="-648" x="-77.016"/><rect id="rect4479-2-9-9-0-8-6" style="color:#000000;fill:#f1f2f2" transform="scale(-1)" height="1" width="1" y="-648" x="-72.016"/><rect id="rect4479-2-9-9-0-8-6-6" style="color:#000000;fill:#f1f2f2" transform="scale(-1)" height="1" width="1" y="-653" x="-77.016"/><rect id="rect4479-2-9-9-0-8-6-9" style="color:#000000;fill:#f1f2f2" height="1" width="1" y="662" x="70"/><rect id="rect4479-2-9-9-0-8-6-4" style="color:#000000;fill:#f1f2f2" height="1" width="1" y="662" x="61"/></g></svg>
