<svg xmlns="http://www.w3.org/2000/svg" viewBox="0 0 16 16" width="32" height="32">
    <g color="#000" fill="#f1f2f2">
        <path style="line-height:normal;-inkscape-font-specification:'Bitstream Vera Sans';text-indent:0;text-align:start;text-decoration-line:none;text-transform:none;marker:none" d="M5 3C2.25 3 0 5.25 0 8s2.25 5 5 5c1.586 0 2.903-.845 3.813-2h5.593l.22-.75 1.03-4L15.97 5H8.813C7.903 3.845 6.586 3 5 3zm0 2c1.116 0 2.038.595 2.563 1.5l.312.5h5.531l-.53 2H7.874l-.312.5C7.038 10.405 6.116 11 5 11c-1.669 0-3-1.331-3-3s1.331-3 3-3z" font-weight="400" font-family="Bitstream Vera Sans" overflow="visible"/>
        <path style="marker:none" d="M14.498 8H9l-.562 2H14z" overflow="visible" opacity=".35"/>
        <path d="M5 8a1 1 0 0 1-1 1 1 1 0 0 1-1-1 1 1 0 0 1 1-1 1 1 0 0 1 1 1z" style="marker:none" overflow="visible"/>
    </g>
</svg>
