<svg xmlns="http://www.w3.org/2000/svg" viewBox="0 0 16 16" width="32" height="32">
    <g fill="#f1f2f2">
        <path style="line-height:normal;-inkscape-font-specification:Sans;text-indent:0;text-align:start;text-decoration-line:none;text-transform:none;marker:none" d="M3.188 0A2.197 2.197 0 0 0 1 2.188v11.624C1 15.012 1.986 16 3.188 16h9.624A2.197 2.197 0 0 0 15 13.812V2.188C15 .988 14.014 0 12.812 0zm0 2h9.624c.124 0 .188.057.188.188v11.624c0 .131-.064.188-.188.188H3.188C3.063 14 3 13.943 3 13.812V2.188C3 2.056 3.064 2 3.188 2z" color="#f1f2f2" font-weight="400" font-family="Sans" overflow="visible"/>
        <path d="M5 4h6v7H5z" style="marker:none" color="#000" overflow="visible"/>
        <path style="line-height:normal;-inkscape-font-specification:Sans;text-indent:0;text-align:start;text-decoration-line:none;text-transform:none;marker:none" d="M4.063 5v1H12V5H4.562zm0 2v1H12V7H4.562zm0 2v1H12V9H4.562z" color="#000" font-weight="400" font-family="Sans" overflow="visible"/>
        <path style="line-height:normal;-inkscape-font-specification:Sans;text-indent:0;text-align:start;text-decoration-line:none;text-transform:none;marker:none" d="M6 3v9h1V3zm2 0v9h1V3zm2 0v9h1V3z" color="#000" font-weight="400" font-family="Sans" overflow="visible"/>
    </g>
</svg>
