<svg xmlns="http://www.w3.org/2000/svg" viewBox="0 0 16 16" width="32" height="32">
    <path d="M.531 1A.537.537 0 0 0 0 1.531V15.47c0 .298.233.531.531.531H15.47a.525.525 0 0 0 .531-.531V6.53a.537.537 0 0 0-.532-.53H14V3.594A.595.595 0 0 0 13.406 3H6V1.531A.537.537 0 0 0 5.469 1zm2.063 6h1s.552.09.75.281L7 10l-2.656 2.719c-.198.19-.44.281-.75.281h-1v-1c0-.257.13-.528.312-.719L4.187 10l-1.28-1.281c-.183-.19-.132-.537-.313-.719zM12 7h1v1c0 .257-.13.528-.313.719L11.408 10l1.28 1.281c.183.19.313.462.313.719v1h-1c-.31 0-.552-.09-.75-.281L8.594 10l2.656-2.719c.198-.19.44-.281.75-.281z" fill="#f1f2f2"/>
</svg>
