<svg xmlns="http://www.w3.org/2000/svg" viewBox="0 0 16 16" width="32" height="32">
    <g color="#000" fill="#f1f2f2">
        <path d="M5.969 7.969A2.969 2.969 0 0 1 3 10.938a2.969 2.969 0 0 1-2.969-2.97A2.969 2.969 0 0 1 3.001 5a2.969 2.969 0 0 1 2.968 2.969zm9.969 5a2.969 2.969 0 0 1-2.97 2.968A2.969 2.969 0 0 1 10 12.97 2.969 2.969 0 0 1 12.969 10a2.969 2.969 0 0 1 2.969 2.969zm0-10a2.969 2.969 0 0 1-2.97 2.969A2.969 2.969 0 0 1 10 2.968 2.969 2.969 0 0 1 12.969 0a2.969 2.969 0 0 1 2.969 2.969z" style="marker:none" overflow="visible"/>
        <path style="line-height:normal;-inkscape-font-specification:Sans;text-indent:0;text-align:start;text-decoration-line:none;text-transform:none;marker:none" d="M12.625 2.156L2.562 7.031.75 7.938l1.812.906 10.032 5.062.906-1.812-8.22-4.156 8.219-4z" font-weight="400" font-family="Sans" overflow="visible"/>
    </g>
</svg>
