<?xml version="1.0" encoding="UTF-8" standalone="no"?>
<svg id="svg12" xmlns="http://www.w3.org/2000/svg" version="1.1" viewBox="0 0 16 16" width="32" height="32"><path id="path2" style="fill:#f1f2f2;text-decoration-line:none;text-transform:none;text-indent:0" d="m7.7734 1.0273a6.964 6.964 0 0 0 -3.3086 0.9454c-0.6094 0.355-1.143 0.7913-1.5996 1.2851a6.956 6.956 0 0 0 -0.0039 0.0039c-0.0863 0.0935-0.1635 0.1935-0.2441 0.291a6.956 6.956 0 0 0 -0.2227 0.2696 6.956 6.956 0 0 0 -0.4472 0.666c-0.3278 0.5626-0.5601 1.1549-0.7168 1.7578-0.0514 0.1976-0.0934 0.396-0.127 0.5957-0.0058 0.0339-0.0122 0.0676-0.0176 0.1016-0.0259 0.1692-0.0451 0.338-0.0586 0.5078-0.0054 0.0645-0.0119 0.1286-0.0156 0.1933-0.0065 0.1272-0.0082 0.2539-0.0078 0.3809-0.0004 0.1269 0.0013 0.2537 0.0078 0.3808 0.0037 0.0647 0.0102 0.1289 0.0156 0.1934 0.0135 0.1697 0.0327 0.3387 0.0586 0.5078 0.0054 0.034 0.0118 0.0677 0.0176 0.1016 0.0336 0.1996 0.0756 0.3981 0.127 0.5957 0.1568 0.6023 0.389 1.1953 0.7168 1.7573a6.956 6.956 0 0 0 0.4316 0.643c0.0611 0.083 0.1304 0.16 0.1953 0.24a6.956 6.956 0 0 0 0.211 0.258c0.4738 0.531 1.034 0.999 1.6796 1.375a6.98 6.98 0 0 0 4.2813 0.899 4.5 4.5 0 0 1 -0.7109 -1.959 4.973 4.973 0 0 1 -2.5528 -0.68 4.982 4.982 0 0 1 -0.7969 -0.574 4.982 4.982 0 0 1 -0.0097 -0.008 5.041 5.041 0 0 1 -0.9863 -1.211l-0.0176-0.018a4.982 4.982 0 0 1 -0.0879 -0.164 4.982 4.982 0 0 1 -0.125 -0.244 4.982 4.982 0 0 1 -0.0781 -0.1874 4.982 4.982 0 0 1 -0.1133 -0.2851 4.982 4.982 0 0 1 -0.0528 -0.1738 4.982 4.982 0 0 1 -0.0839 -0.2989 4.982 4.982 0 0 1 -0.0371 -0.1855 4.982 4.982 0 0 1 -0.0547 -0.3086 4.982 4.982 0 0 1 -0.0176 -0.1934 4.982 4.982 0 0 1 -0.0215 -0.2871 4.982 4.982 0 0 1 0.002 -0.2402 4.982 4.982 0 0 1 0.0058 -0.2617 4.982 4.982 0 0 1 0.0215 -0.2071 4.982 4.982 0 0 1 0.0371 -0.2968 4.982 4.982 0 0 1 0.0332 -0.1641 4.982 4.982 0 0 1 0.0762 -0.3301 4.982 4.982 0 0 1 0.0508 -0.1582 4.982 4.982 0 0 1 0.1015 -0.3008 4.982 4.982 0 0 1 0.0801 -0.1875 4.982 4.982 0 0 1 0.1289 -0.2832 4.982 4.982 0 0 1 0.0352 -0.0664 4.982 4.982 0 0 1 0.1113 -0.1914l0.0059-0.0058a5.041 5.041 0 0 1 0.2714 -0.4161 5.041 5.041 0 0 1 0.0079 -0.0117 5.041 5.041 0 0 1 0.289 -0.3574 4.982 4.982 0 0 1 0.0469 -0.0527 5.041 5.041 0 0 1 0.248 -0.252 4.982 4.982 0 0 1 0.1836 -0.1699 5.041 5.041 0 0 1 0.1035 -0.0859 4.982 4.982 0 0 1 0.6426 -0.4454 4.973 4.973 0 0 1 5.0356 -0.0019 4.973 4.973 0 0 1 0.017 0.0117 4.975 4.975 0 0 1 0.319 0.2051 4.973 4.973 0 0 1 0.13 0.0937 4.975 4.975 0 0 1 0.245 0.1954 4.973 4.973 0 0 1 0.162 0.1425 4.975 4.975 0 0 1 0.148 0.1446 4.973 4.973 0 0 1 0.225 0.2402 4.975 4.975 0 0 1 0.082 0.0977 4.973 4.973 0 0 1 0.242 0.3183 4.973 4.973 0 0 1 0.014 0.0176 4.975 4.975 0 0 1 0.025 0.041 4.973 4.973 0 0 1 0.184 0.2891 4.975 4.975 0 0 1 0.23 0.4414 4.975 4.975 0 0 1 0.18 0.4453 4.975 4.975 0 0 1 0.029 0.1015 4.975 4.975 0 0 1 0.109 0.375 4.975 4.975 0 0 1 0.028 0.1426 4.975 4.975 0 0 1 0.058 0.3184 4.975 4.975 0 0 1 0.028 0.2969 4.975 4.975 0 0 1 0.015 0.1933 4.975 4.975 0 0 1 0 0.2051 4.5 4.5 0 0 1 1.963 0.7012 7.007 7.007 0 0 0 0.035 -1.0059c0-0.0157-0.003-0.0312-0.004-0.0469a7.007 7.007 0 0 0 -0.466 -2.205 7.007 7.007 0 0 0 -0.463 -0.9825c-0.192-0.3293-0.412-0.6307-0.647-0.916-0.161-0.1977-0.333-0.3897-0.517-0.5703-0.029-0.0277-0.059-0.0529-0.088-0.0801-0.208-0.1968-0.429-0.3822-0.664-0.5547-0.193-0.1409-0.391-0.2757-0.602-0.3984a1.009 1.009 0 0 0 -0.14 -0.0664c-1.105-0.6071-2.3583-0.91402-3.6216-0.877zm-1.9082 5.9961a0.853 1 0 0 0 0 2h3.7813a4.5 4.5 0 0 1 1.3245 -0.7519 0.853 1 0 0 0 0.008 -0.4649h0.001a0.853 1 0 0 0 -0.853 -0.7832h-4.2618z"/><path id="path4656" style="color:#f1f2f2;fill:#cc0000" d="m12.5 9a3.5 3.5 0 1 0 0 7 3.5 3.5 0 0 0 0 -7zm-2.5 2.969h5v1.031h-5z" overflow="visible" class="error"/></svg>
