<?xml version="1.0" encoding="UTF-8" standalone="no"?>
<svg id="svg8" xmlns="http://www.w3.org/2000/svg" version="1.1" viewBox="0 0 16 16" width="32" height="32"><path id="path2" style="color:#f1f2f2;fill:#f1f2f2" d="m7.5 0c-0.277 0-0.5 0.223-0.5 0.5v2a0.499 0.499 0 0 0 0.5 0.5h1c0.277 0 0.5-0.223 0.5-0.5v-2c0-0.277-0.223-0.5-0.5-0.5h-1zm5.455 1.8418a0.499 0.499 0 0 0 -0.359 0.1465l-1.414 1.416a0.499 0.499 0 0 0 0 0.707l0.707 0.7071a0.499 0.499 0 0 0 0.707 0l1.414-1.4141a0.499 0.499 0 0 0 0 -0.707l-0.707-0.709a0.499 0.499 0 0 0 -0.348 -0.1465zm-9.8984 0.002a0.499 0.499 0 0 0 -0.3593 0.1464l-0.709 0.7071a0.499 0.499 0 0 0 0 0.707l1.416 1.4141a0.499 0.499 0 0 0 0.707 0l0.7071-0.7071a0.499 0.499 0 0 0 0 -0.707l-1.4141-1.4141a0.499 0.499 0 0 0 -0.3477 -0.1464zm4.9317 2.164a3.98 3.98 0 0 0 -3.9785 3.9785c0 2.1967 1.7805 4.0097 3.9785 4.0097 0.7342 0 1.4169-0.217 2.0117-0.568v-1.428h1.428c0.352-0.5955 0.568-1.2788 0.568-2.0137 0-2.197-1.811-3.9785-4.0077-3.9785zm0 1.9883v0.0019c1.116 0 2.0197 0.8723 2.0197 1.9883a2.017 2.017 0 0 1 -2.0197 2.0197c-1.117 0-1.9903-0.9037-1.9903-2.0197s0.8733-1.9902 1.9903-1.9902zm-7.4883 1.0039c-0.277 0-0.5 0.223-0.5 0.5v1a0.499 0.499 0 0 0 0.5 0.5h2c0.277 0 0.5-0.223 0.5-0.5v-1c0-0.277-0.223-0.5-0.5-0.5h-2zm13 0c-0.277 0-0.5 0.223-0.5 0.5v1a0.499 0.499 0 0 0 0.5 0.5h2c0.277 0 0.5-0.223 0.5-0.5v-1c0-0.277-0.223-0.5-0.5-0.5h-2zm-9.7363 4.035a0.499 0.499 0 0 0 -0.3594 0.147l-1.4141 1.414a0.499 0.499 0 0 0 0 0.707l0.7071 0.707a0.499 0.499 0 0 0 0.707 0l1.4141-1.414a0.499 0.499 0 0 0 0 -0.707l-0.7071-0.707a0.499 0.499 0 0 0 -0.3476 -0.147zm3.7363 1.965c-0.277 0-0.5 0.223-0.5 0.5v2a0.499 0.499 0 0 0 0.5 0.5h1c0.277 0 0.5-0.223 0.5-0.5v-2c0-0.277-0.223-0.5-0.5-0.5h-1z"/><path id="path4560" d="m11 11h1.375l1.125 1.094 1.094-1.094h1.406v1.469l-1.094 1.062 1.094 1.063v1.406h-1.437l-1.063-1.062-1.062 1.062h-1.438v-1.406l1.063-1.063-1.063-1.061z" style="color:#f1f2f2;fill:#cc0000" overflow="visible"/></svg>
