<svg xmlns="http://www.w3.org/2000/svg" viewBox="0 0 16 16" width="32" height="32">
    <path style="line-height:normal;-inkscape-font-specification:'Bitstream Vera Sans';text-indent:0;text-align:start;text-decoration-line:none;text-transform:none;marker:none" d="M8 5H7c-.265 0-.53.093-.719.281l-3 3L3 8.562v.875l.281.282 3 3c.188.188.454.281.72.281h1v-1c0-.265-.094-.53-.282-.719L5.438 9l2.28-2.281c.189-.188.282-.454.282-.72V5z" color="#000" font-weight="400" font-family="Bitstream Vera Sans" overflow="visible" fill="#f1f2f2"/>
    <path style="line-height:normal;-inkscape-font-specification:Sans;text-indent:0;text-align:start;text-decoration-line:none;text-transform:none;marker:none" d="M12 4v2.5c0 .84-.66 1.5-1.5 1.5H5v2h5.5c1.921 0 3.5-1.579 3.5-3.5V4z" color="#000" font-weight="400" font-family="Sans" overflow="visible" fill="#f1f2f2"/>
</svg>
