<svg viewBox="0 0 16 16" width="32" height="32" xmlns="http://www.w3.org/2000/svg">
    <g fill="#f1f2f2">
        <path d="M8 0C3.595 0 0 3.595 0 8c0 4.405 3.595 8 8 8 4.405 0 8-3.595 8-8 0-4.405-3.595-8-8-8zm0 2.188A5.798 5.798 0 0 1 13.813 8 5.798 5.798 0 0 1 8 13.813 5.798 5.798 0 0 1 2.188 8 5.798 5.798 0 0 1 8 2.187z" style="text-indent:0;text-align:start;line-height:normal;text-transform:none;block-progression:tb;marker:none;-inkscape-font-specification:Sans" font-weight="400" color="#f1f2f2" overflow="visible" font-family="Sans"/>
        <path d="M8.15 2.96l.486.2-.22.575c-.282.13-.545.24-.841.331l-.2.31-.154.088L7 4l.177-.177v-.177l-.442-.287.132-.133.708-.199.575-.066zm-3.119.946l-.093.219s-.147.052-.188.063c-.264.24-.694.622-1.062 1.187a4.734 4.734 0 0 0-.25.438c-.037.075-.093.141-.125.218-.047.101-.084.204-.125.313-.018.05-.016.105-.032.156a4.953 4.953 0 0 0-.218 1.25c.056.09.125.219.125.219l.375.25.437.125L4 8.53l.281.188.157-.032.125.063v.031l-.157.438-.125.187.032.063-.063.312.313.656.343.313.157.188-.032.468.094.281-.094.438c.221.16.473.283.719.406l-.031-.125.156-.156.062-.156.25-.063.22-.5-.094-.125.125-.187.28-.063.188-.344-.062-.437.25-.313.031-.312c-.313-.158-.596-.337-.906-.5l-.188-.313-.25-.062-.187-.406-.375.031-.313-.25-.343.313v.03c-.104-.03-.252-.004-.344-.062l-.063-.25v-.218l-.218.03L4 7.626l-.125.031-.156.157-.125.031-.188-.094v-.218l.032-.282.28-.187.22-.032L4 6.906l.281.063.188.281.031-.437.375-.282.156-.343.282-.094.125-.25.343-.062.188-.25h-.5l.281-.125H6l.313-.125.062-.125-.125-.125L6.125 5l.031-.125-.093-.187-.219.062.031-.187-.28-.125-.188.343v.157l-.22.093-.124.282-.031-.282-.407-.156-.031-.187.469-.25.218-.22.032-.25-.125-.062h-.156zM9.75 3.25l-.281.063-.281.187v.125l-.375.281.062.344.25-.156.156.156.157.094.093-.282-.062-.156.062-.094.25-.218h.094l-.094.219v.218c.096-.026.184-.05.281-.062l-.28.187v.125l-.313.25-.313-.062V4.28L9 4.375l.062.156h-.218l-.157.219-.156.187L8.25 5l.188.156.03.156H8.25L8 5.47v.406h.125L8.25 6l.25-.125.094-.25.187-.125.063-.094.312-.062.157.187.156.094-.094.219.188-.063.062-.219-.187-.218H9.5l.219.156.062.25.157.219.062-.313.094-.062c.102.106.195.255.281.375h.313l.218.75c-.096.088-.183.164-.281.25h-.25L10 6.875h-.156l-.156.188-.375-.407-.25-.062-.407.062-.5.188c-.198.224-.25.33-.437.562l.031.344.094.094-.188.28.188.5c.176.2.355.395.531.595L8.656 9l.125.125.25-.188.094.126h.281l.188.156-.125.344.218.218-.03.375.155.281-.093.25c-.01.173-.032.359-.032.532.086.234.139.451.22.687l.093.406v.157h.125l.25-.125h.25c.004-.003-.004-.029 0-.032l.437-.437-.062-.156.25-.25-.188-.188.25-.219.22-.125.093-.125-.063-.25v-.656l.22-.406.187-.281.28-.594v-.156c-.117.014-.26.022-.374.031l.25-.25.344-.25.187-.219v-.218c-.041-.079-.083-.14-.125-.22l-.156.188-.125-.156-.188-.125v-.313l.22.22h.218c.109.098.217.2.312.312L13 7.25c-.356-1.326-.827-2.136-1.406-2.844l-.032-.031a5.109 5.109 0 0 0-.906-.688l-.156.157-.281-.282h.218a5.053 5.053 0 0 0-.687-.312z"/>
    </g>
</svg>
