<svg xmlns="http://www.w3.org/2000/svg" viewBox="0 0 16 16" width="32" height="32">
    <path d="M8 1c-.467 0-.935.18-1.293.537l-5.17 5.17a1.825 1.825 0 0 0 0 2.586l5.17 5.17c.716.716 1.87.716 2.586 0l5.17-5.17a1.825 1.825 0 0 0 0-2.586l-5.17-5.17A1.823 1.823 0 0 0 8 1zM6 6l4 2-4 2V6z" opacity=".3" fill="#f1f2f2"/>
    <path d="M4.666 3C3.743 3 3 3.743 3 4.666v6.668C3 12.257 3.743 13 4.666 13h6.668c.923 0 1.666-.743 1.666-1.666V4.666C13 3.743 12.257 3 11.334 3H4.666zM6 6l4 2-4 2V6z" fill="#f1f2f2"/>
</svg>
