<svg xmlns="http://www.w3.org/2000/svg" viewBox="0 0 16 16" width="32" height="32">
    <path style="line-height:normal;-inkscape-font-specification:Sans;text-indent:0;text-align:start;text-decoration-line:none;text-transform:none;marker:none" d="M5 7c-.31 0-.615.09-.812.281L.594 11l3.656 3.719c.198.19.44.281.75.281h1v-1c0-.257-.13-.529-.312-.719L4.406 12h3.625c.022-.277.113-1 .723-2H4.375l1.219-1.281C5.777 8.529 6 8.257 6 8V7z" color="#000" font-weight="400" font-family="Sans" overflow="visible" opacity=".5" fill="#f1f2f2"/>
    <path style="marker:none" d="M12.5 9a3.5 3.5 0 1 0 0 7 3.5 3.5 0 0 0 0-7zM10 11.969h5V13h-5z" class="error" color="#f1f2f2" overflow="visible" fill="#c00"/>
    <path style="line-height:normal;-inkscape-font-specification:Sans;text-indent:0;text-align:start;text-decoration-line:none;text-transform:none;marker:none" d="M12.48 8.031L15.406 5 11.75 1.281C11.552 1.091 11.31 1 11 1h-1v1c0 .257.13.529.313.719L11.593 4H7c-.528-.007-1 .472-1 1s.472 1.007 1 1h4.625l-1.219 1.281c-.182.19-.406.462-.406.719v.426c.62-.377 1.909-.507 2.48-.395z" color="#000" font-weight="400" font-family="Sans" overflow="visible" opacity=".5" fill="#f1f2f2"/>
</svg>
