<svg xmlns="http://www.w3.org/2000/svg" viewBox="0 0 16 16" width="32" height="32">
    <path style="text-decoration-line:none;text-transform:none;text-indent:0" d="M3.469 1A2.468 2.468 0 0 0 .998 3.469v9.062A2.468 2.468 0 0 0 3.471 15H8c0-.174.029-.339.07-.5A1.915 1.915 0 0 1 8 14H3.47A1.443 1.443 0 0 1 2 12.531v-9.06C2 2.638 2.637 2 3.469 2h9.061c.687 0 1.234.438 1.407 1.057L8.5 8.375 6.563 6.437 4.438 8.563l3 3 .562.563V10c0-1.108.892-2 2-2h3.031l.97-.996V8h1V3.47A2.468 2.468 0 0 0 12.528 1H3.47z" font-weight="400" font-family="Sans" fill="#f1f2f2"/>
    <path d="M11.5 9c-.822 0-1.5.626-1.5 1.385v1.685h-.5c-.277 0-.5.205-.5.461V15h6v-2.469c0-.256-.223-.461-.5-.461H14v-1.685C14 9.625 13.322 9 12.5 9zm0 .923h1c.286 0 .5.198.5.462v1.685h-2v-1.685c0-.264.214-.462.5-.462z" overflow="visible" fill="#f60" color="#f1f2f2"/>
</svg>
