<svg xmlns="http://www.w3.org/2000/svg" viewBox="0 0 16 16" width="32" height="32">
    <path d="M5 11v3H4c-1 0-1 0-1 1s0 1 1.01 1H12c1 0 1 0 1-1s0-1-1-1h-1v-3z" opacity=".965" fill="#f1f2f2"/>
    <path d="M.8 1a.8.8 0 0 0-.8.8v10.4a.8.8 0 0 0 .8.8h14.4a.8.8 0 0 0 .8-.8V1.8a.8.8 0 0 0-.8-.8zM2 3h12v7H2z" fill="#f1f2f2"/>
    <rect ry=".5" y="5" x="4" height="2" width="5" fill="#f1f2f2"/>
    <path fill="#f1f2f2" d="M4 6h1v2H4zm0 2h5v1H4z"/>
    <rect ry=".75" y="4" x="10" height="3" width="3" fill="#f1f2f2"/>
    <path fill="#f1f2f2" d="M8 6h1v2H8z"/>
</svg>
