<?xml version="1.0" encoding="UTF-8" standalone="no"?>
<svg id="svg12" xmlns="http://www.w3.org/2000/svg" version="1.1" viewBox="0 0 16 16" width="32" height="32"><path id="path4532" style="opacity:.5;fill:#f1f2f2" d="m7.9766 1a7 7 0 0 0 -6.9766 7.0156 7 7 0 0 0 0.0957 1.0801l-0.0059-0.0059c0.0045 0.0286 0.0128 0.0556 0.0176 0.084a7 7 0 0 0 0.0977 0.4746c0.012 0.0497 0.024 0.0992 0.0371 0.1485a7 7 0 0 0 0.1406 0.4691c0.0203 0.059 0.0446 0.117 0.0664 0.175a7 7 0 0 0 0.166 0.414c0.0344 0.078 0.0724 0.152 0.1094 0.227a7 7 0 0 0 0.1758 0.344c0.0462 0.082 0.099 0.16 0.1484 0.24a7 7 0 0 0 0.42 0.609c0.0496 0.065 0.0966 0.131 0.1484 0.194a7 7 0 0 0 0.2715 0.301c0.0528 0.056 0.1035 0.115 0.1582 0.169a7 7 0 0 0 0.2851 0.266c0.0691 0.062 0.1375 0.124 0.209 0.184a7 7 0 0 0 0.2695 0.211c0.089 0.066 0.1795 0.131 0.2715 0.193a7 7 0 0 0 0.2637 0.172c0.0976 0.06 0.1983 0.115 0.2988 0.17a7 7 0 0 0 0.2793 0.148c0.1303 0.064 0.2639 0.122 0.3985 0.178a7 7 0 0 0 0.1836 0.078c0.1587 0.061 0.3206 0.111 0.4843 0.16a7 7 0 0 0 0.334 0.092c0.1567 0.039 0.3142 0.076 0.4746 0.104a7 7 0 0 0 0.2071 0.027c0.1405 0.02 0.2809 0.039 0.4238 0.051a7 7 0 0 0 0.5781 0.027c0.206-0.001 0.4107-0.012 0.6152-0.031a7 7 0 0 0 0.4493 -0.059c0.0585-0.009 0.1175-0.016 0.1757-0.027a7 7 0 0 0 0.5 -0.113c0.0266-0.007 0.0536-0.013 0.0801-0.02a7 7 0 0 0 0.5349 -0.17 7 7 0 0 0 0.014 -0.004 7 7 0 0 0 4.623 -6.576v-0.0312a7 7 0 0 0 -7.0234 -6.9688zm0.0019 1c3.1395-0.0105 6.0075 2.8354 6.0215 5.9746v0.0254c0 2.468-1.767 4.756-4.0469 5.625l-2.9531-6.625-3 5-1.2656-1.266c-0.4614-0.8316-0.7323-1.7614-0.7344-2.7203-0.007-3.1393 2.8393-6.0032 5.9785-6.0137z"/><path id="path4539" style="opacity:.5;fill:#f1f2f2" d="m7.9902 4.0137c-1.6553 0.0056-2.9934 1.4003-2.9902 3.1167 0.0019 0.3579-0.1183 0.5334 0 0.8696l2-3 2.5 5c1.127-0.4774 1.499-1.6135 1.5-2.8757v-0.0142c-0.008-1.7164-1.3544-3.102-3.0098-3.0964z"/></svg>
