<?xml version="1.0" encoding="UTF-8" standalone="no"?>
<svg id="svg4" xmlns="http://www.w3.org/2000/svg" version="1.1" viewBox="0 0 16 16" width="32" height="32"><g id="g5804" transform="translate(-248.05 -50.648)"><path id="rect5797" d="m263.55 51.647c0.27684 0 0.5 0.22187 0.5 0.5v14c0 0.13906-0.0659 0.25301-0.15625 0.34375-0.0903 0.09074-0.20533 0.15625-0.34375 0.15625-0.019 0.0019-0.0429 0-0.0625 0h-14.876c-0.29617 0-0.5625-0.22568-0.5625-0.5v-2c0-0.27432 0.26634-0.5 0.5625-0.5h12.438v-11.5c0-0.27813 0.22316-0.5 0.5-0.5z" style="color:#000000;display:block;fill:#f1f2f2"/><path id="path5802" d="m259.05 51.767v9.8814h-9.7472l3.743-3.791-4.9958-5.096 2.2611-2.113 4.7667 5.2203z" style="color:#000000;display:block;fill:#f1f2f2"/></g></svg>
