<svg viewBox="0 0 16 16" width="32" height="32" xmlns="http://www.w3.org/2000/svg">
    <g fill="#f1f2f2">
        <path d="M7.5.986a2.495 2.495 0 0 0-2.5 2.5V8.5C5 9.885 6.115 11 7.5 11a2.5 2.5 0 0 0 .816-.146A4.5 4.5 0 0 1 9.971 8.78c.01-.093.029-.185.029-.281V3.486c0-1.385-1.115-2.5-2.5-2.5zM3.5 5a.5.5 0 0 0-.5.5v2.969a4.516 4.516 0 0 0 3 4.25V14H4c-.565 0-1 .49-1 1v1h6.678A4.5 4.5 0 0 1 8 12.5a4.5 4.5 0 0 1 .04-.553A3.546 3.546 0 0 1 7.5 12C5.548 12 4 10.433 4 8.469V5.5a.5.5 0 0 0-.5-.5zm8 0a.5.5 0 0 0-.5.5.46.46 0 0 0 .031.187v2.565A4.5 4.5 0 0 1 12 8.033V5.5a.5.5 0 0 0-.5-.5z" style="line-height:normal;-inkscape-font-specification:Sans;text-indent:0;text-align:start;text-decoration-line:none;text-transform:none;block-progression:tb;marker:none" color="#f1f2f2" font-weight="400" font-family="Sans" overflow="visible"/>
        <path d="M16 12.5a3.5 3.5 0 0 1-3.5 3.5A3.5 3.5 0 0 1 9 12.5 3.5 3.5 0 0 1 12.5 9a3.5 3.5 0 0 1 3.5 3.5z" style="isolation:auto;mix-blend-mode:normal;marker:none" color="#000" overflow="visible"/>
    </g>
</svg>
