<svg xmlns="http://www.w3.org/2000/svg" viewBox="0 0 16 16" width="32" height="32">
    <g fill="#f1f2f2">
        <path style="marker:none" d="M3 8h10v7.059c0 .492-.472.937-.996.937H4c-.539 0-1-.43-1-1z" color="#f1f2f2" overflow="visible"/>
        <path style="line-height:normal;-inkscape-font-specification:Sans;text-indent:0;text-align:start;text-decoration-line:none;text-transform:none;marker:none" d="M6.688 2.969a1 1 0 0 0-.657.375L3.22 6.812a1 1 0 0 0-.22.625v1a1 1 0 1 0 2 0v-.656l2.594-3.156a1 1 0 0 0-.907-1.656zm2.218 3a1 1 0 1 0-.031 2l2.156.375V8.5a1 1 0 1 0 2 0v-1a1 1 0 0 0-.812-1l-3-.5a1 1 0 0 0-.313-.031z" color="#000" font-weight="400" font-family="Sans" overflow="visible"/>
    </g>
</svg>
