<?xml version="1.0" encoding="UTF-8" standalone="no"?>
<svg id="svg10" xmlns="http://www.w3.org/2000/svg" viewBox="0 0 16 16" width="32" height="32" version="1.1"><g id="g8" color="#f1f2f2" fill="#f1f2f2"><path id="rect21" style="fill:#f1f2f2" d="m3 3c-0.554 0-1 0.446-1 1v8c0 0.554 0.446 1 1 1h10c0.554 0 1-0.446 1-1v-8c0-0.554-0.446-1-1-1h-10zm0.7949 2a0.73467 0.68476 0 0 1 0.5235 0.2148l2.4492 2.2813a0.73467 0.68476 0 0 1 0 0.998l-2.4492 2.2829a0.75794 0.70645 0 1 1 -1.0704 -0.9977l1.9141-1.7832-1.9141-1.7832a0.73467 0.68476 0 0 1 0.3067 -1.1777 0.73467 0.68476 0 0 1 0.2402 -0.0352zm4.2051 5h4v1h-4v-1z"/><path id="rect20" style="opacity:.9;fill:#f1f2f2" d="m1 1c-0.554 0-1 0.446-1 1v12c0 0.554 0.446 1 1 1h14c0.554 0 1-0.446 1-1v-12c0-0.554-0.446-1-1-1h-14zm0.8574 1h12.286c0.474 0 0.857 0.3826 0.857 0.8574v10.286c0 0.474-0.383 0.857-0.857 0.857h-12.286c-0.4744 0-0.857-0.383-0.857-0.857v-10.286c0-0.4744 0.3826-0.857 0.8574-0.857z"/></g></svg>
