<svg xmlns="http://www.w3.org/2000/svg" viewBox="0 0 16 16" width="32" height="32">
    <g color="#000">
        <path style="line-height:normal;-inkscape-font-specification:Sans;text-indent:0;text-align:start;text-decoration-line:none;text-transform:none;marker:none" d="M1.781 9A1 1 0 0 0 1 10v4a1 1 0 0 0 1 1h4a1 1 0 1 0 0-2H3v-3a1 1 0 0 0-1.22-1z" font-weight="400" font-family="Sans" overflow="visible" fill="#f1f2f2"/>
        <path style="line-height:normal;-inkscape-font-specification:Sans;text-indent:0;text-align:start;text-decoration-line:none;text-transform:none;marker:none" d="M6.375 8.5a1 1 0 0 0-.594.281l-4.5 4.5a1.016 1.016 0 1 0 1.438 1.438l4.5-4.5A1 1 0 0 0 6.375 8.5z" font-weight="400" font-family="Sans" overflow="visible" fill="#f1f2f2"/>
        <path d="M1 14h1v1H1z" style="marker:none" overflow="visible" fill="#bdbdbd"/>
        <path style="line-height:normal;-inkscape-font-specification:Sans;text-indent:0;text-align:start;text-decoration-line:none;text-transform:none;marker:none" d="M9.906 1A1.001 1.001 0 1 0 10 3h3v3a1 1 0 1 0 2 0V2a1 1 0 0 0-1-1h-4a1 1 0 0 0-.094 0z" font-weight="400" font-family="Sans" overflow="visible" fill="#f1f2f2"/>
        <path d="M14 1h1v1h-1z" style="marker:none" overflow="visible" fill="#bdbdbd"/>
        <path style="line-height:normal;-inkscape-font-specification:Sans;text-indent:0;text-align:start;text-decoration-line:none;text-transform:none;marker:none" d="M13.781 1a1 1 0 0 0-.5.281l-4.5 4.469a1.016 1.016 0 1 0 1.438 1.438l4.5-4.47A1 1 0 0 0 13.78 1z" font-weight="400" font-family="Sans" overflow="visible" fill="#f1f2f2"/>
        <path d="M1 9h1v1H1zm5 5h1v1H6zm8-8h1v1h-1zM9 1h1v1H9z" style="marker:none" overflow="visible" fill="#f1f2f2"/>
    </g>
</svg>
