<svg xmlns="http://www.w3.org/2000/svg" viewBox="0 0 16 16" width="32" height="32">
    <path style="text-decoration-color:#000;font-variant-numeric:normal;font-variant-ligatures:normal;text-decoration-line:none;font-variant-position:normal;mix-blend-mode:normal;font-feature-settings:normal;shape-padding:0;font-variant-alternates:normal;text-indent:0;font-variant-caps:normal;text-decoration-style:solid;text-orientation:mixed;isolation:auto;text-transform:none" d="M1.143 0A1.14 1.14 0 0 0 0 1.143v13.714C0 15.49.51 16 1.143 16h13.714A1.14 1.14 0 0 0 16 14.857V1.143A1.14 1.14 0 0 0 14.857 0H1.143zm1.714 2h10.286c.474 0 .857.383.857.857v4.694h-.559l-1.785-3.215a.75.75 0 0 0-1.379.164l-.509 1.836-1.111-2a.75.75 0 0 0-.684-.385.75.75 0 0 0-.69.531L5.83 9.283 4.67 6.965A.75.75 0 0 0 4 6.55H2V2.857C2 2.383 2.383 2 2.858 2zm5.346 4.611l1.14 2.053a.75.75 0 0 0 1.38-.164l.509-1.836 1.112 2a.75.75 0 0 0 .656.387h1v4.092a.856.856 0 0 1-.857.857H2.857A.856.856 0 0 1 2 13.143V8.051h1.537l1.793 3.584a.75.75 0 0 0 1.387-.117l1.486-4.907z" fill="#f1f2f2" color="#000" white-space="normal"/>
</svg>
