<svg xmlns="http://www.w3.org/2000/svg" viewBox="0 0 16 16" width="32" height="32">
    <path d="M2.06 1.02C.937 1.02 0 1.956 0 3.08v11.197c0 .448.36.743.809.743H15.19c.449 0 .809-.295.809-.743V12h.025V3.08c0-.083-.015-.163-.025-.244V8h-1.975v5.02H2v-.684h.025C2.02 12.293 2 12.256 2 12.21V5.08c0-.05.01-.06.06-.06H9v-4H2.061zM15 12.092v.119c0 .011-.005.02-.006.031l.006-.15z" style="line-height:normal;text-indent:0;text-align:start;text-decoration-line:none;text-decoration-style:solid;text-decoration-color:#000;text-transform:none;isolation:auto;mix-blend-mode:normal;marker:none" color="#000" font-weight="400" font-family="sans-serif" white-space="normal" overflow="visible" fill="#f1f2f2"/>
    <path d="M12 1.007v1.996h-2V5h2v1.997h2V5h2V3.003h-2V1.007z" fill="#690"/>
</svg>
