<svg xmlns="http://www.w3.org/2000/svg" viewBox="0 0 16 16" width="32" height="32">
    <g fill-rule="evenodd">
        <path opacity=".3" d="M11.507 4c.18.066-1.625 1.018-1.177 5.6.2 2.033 3.219 1.448 5.67 1.639v2.58A2.177 2.177 0 0 1 13.818 16H2.182A2.177 2.177 0 0 1 0 13.818v-2.44c1.952-.108 3.763-.24 4.56-1.673 2.341-4.211 5.674-5.521 6.736-5.688.12-.019.185-.027.211-.018z" stroke-width="2" fill="#f1f2f2"/>
        <path style="line-height:normal;font-variant-ligatures:normal;font-variant-position:normal;font-variant-caps:normal;font-variant-numeric:normal;font-variant-alternates:normal;font-feature-settings:normal;text-indent:0;text-align:start;text-decoration-line:none;text-decoration-style:solid;text-decoration-color:#000;text-transform:none;text-orientation:mixed;shape-padding:0;isolation:auto;mix-blend-mode:normal" d="M11.912 3.01c-.114-.008-.157 0-.197.004-.08.008-.125.016-.186.025-.755.119-1.961.533-3.396 1.477-1.435.943-3.033 2.422-4.264 4.636-.198.357-.438.527-.892.672-.455.146-1.106.206-1.856.22-.354.008-.732.004-1.121.003v2.021c.39-.004.766-.015 1.162-.023.817-.016 1.635-.064 2.424-.316.79-.253 1.568-.772 2.031-1.604 1.059-1.903 2.411-3.147 3.615-3.94.017-.01.029-.012.045-.023-.254.91-.383 2.048-.244 3.47.097.988.872 1.761 1.66 2.048.789.286 1.625.314 2.485.318.98.004 1.985-.006 2.822.041V9.97c-.974-.047-1.95.033-2.813.029-.786-.003-1.464-.073-1.81-.2-.346-.125-.324-.08-.352-.359-.23-2.358.343-3.458.78-4.015.218-.279.4-.41.533-.508.033-.024.06-.042.121-.092.03-.024.069-.048.156-.15.044-.051.109-.119.176-.29.067-.17.118-.534-.049-.845a.988.988 0 0 0-.56-.477c-.138-.047-.213-.049-.27-.052z" color="#000" font-weight="400" font-family="sans-serif" white-space="normal" overflow="visible" fill="#ebebeb" fill-rule="nonzero" stroke-width="2"/>
        <path d="M13.818.5c.94 0 1.682.742 1.682 1.682v11.636c0 .94-.742 1.682-1.682 1.682H2.182C1.242 15.5.5 14.758.5 13.818V2.182C.5 1.242 1.242.5 2.182.5h11.636z" stroke="#f1f2f2" fill="none"/>
    </g>
</svg>
