<?xml version="1.0" encoding="UTF-8" standalone="no"?>
<svg
   xmlns:dc="http://purl.org/dc/elements/1.1/"
   xmlns:cc="http://creativecommons.org/ns#"
   xmlns:rdf="http://www.w3.org/1999/02/22-rdf-syntax-ns#"
   xmlns:svg="http://www.w3.org/2000/svg"
   xmlns="http://www.w3.org/2000/svg"
   version="1.1"
   id="svg2"
   viewBox="0 0 21.999999 21.999999"
   height="22"
   width="22">
  <metadata
     id="metadata9">
    <rdf:RDF>
      <cc:Work
         rdf:about="">
        <dc:format>image/svg+xml</dc:format>
        <dc:type
           rdf:resource="http://purl.org/dc/dcmitype/StillImage" />
        <dc:title></dc:title>
      </cc:Work>
    </rdf:RDF>
  </metadata>
  <defs
     id="defs4" />
  <g
     id="g14"
     style="color:#000000;fill:#656666;fill-opacity:1"
     transform="translate(2.9570609,2.9881708)">
    <path
       id="path2"
       overflow="visible"
       font-weight="400"
       d="m 10.829,0.024 a 1,1 0 0 0 -0.781,1 v 4 a 1,1 0 0 0 1,1 h 4 a 1,1 0 1 0 0,-2 h -3 v -3 a 1,1 0 0 0 -1.219,-1 z"
       style="font-weight:400;line-height:normal;font-family:Sans;-inkscape-font-specification:Sans;text-indent:0;text-align:start;text-decoration:none;text-decoration-line:none;text-transform:none;overflow:visible;fill:#656666;marker:none;fill-opacity:1" />
    <path
       id="path4"
       overflow="visible"
       font-weight="400"
       d="m 14.923,0.024 a 1,1 0 0 0 -0.594,0.282 l -4,4 a 1.0164661,1.0164661 0 1 0 1.438,1.437 l 4,-4 A 1,1 0 0 0 14.923,0.024 Z"
       style="font-weight:400;line-height:normal;font-family:Sans;-inkscape-font-specification:Sans;text-indent:0;text-align:start;text-decoration:none;text-decoration-line:none;text-transform:none;overflow:visible;fill:#656666;marker:none;fill-opacity:1" />
    <path
       id="path6"
       overflow="visible"
       style="overflow:visible;fill:#2e2e2e;marker:none;fill-opacity:1"
       d="m 10.048,5.024 h 1 v 1 h -1 z" />
    <path
       id="path8"
       overflow="visible"
       font-weight="400"
       d="m 0.954,6.024 a 1,1 0 0 0 -0.906,1 v 8 a 1,1 0 0 0 1,1 h 8 a 1,1 0 0 0 1,-1 v -8 a 1,1 0 0 0 -1,-1 h -8 a 1,1 0 0 0 -0.094,0 z m 1.094,2 h 6 v 6 h -6 z"
       style="font-weight:400;line-height:normal;font-family:Sans;-inkscape-font-specification:Sans;text-indent:0;text-align:start;text-decoration:none;text-decoration-line:none;text-transform:none;overflow:visible;fill:#656666;marker:none;fill-opacity:1" />
    <path
       id="path10"
       overflow="visible"
       font-weight="400"
       d="m 0.954,8.024 a 1.0011039,1.0011039 0 1 0 0.094,2 h 8 a 1,1 0 1 0 0,-2 h -8 a 1,1 0 0 0 -0.094,0 z"
       style="font-weight:400;line-height:normal;font-family:Sans;-inkscape-font-specification:Sans;text-indent:0;text-align:start;text-decoration:none;text-decoration-line:none;text-transform:none;overflow:visible;fill:#656666;fill-rule:evenodd;marker:none;fill-opacity:1" />
    <path
       id="path12"
       overflow="visible"
       style="overflow:visible;fill:#656666;marker:none;fill-opacity:1"
       d="m 15.048,5.024 h 1 v 1 h -1 z m -5,-5 h 1 v 1 h -1 z m -1,15 h 1 v 1 h -1 z m -9,0 h 1 v 1 h -1 z" />
  </g>
</svg>
