<svg xmlns="http://www.w3.org/2000/svg" viewBox="-3 -3 22 22">
    <path style="line-height:normal;-inkscape-font-specification:Sans;text-indent:0;text-align:start;text-decoration-line:none;text-transform:none;marker:none" d="M3.188 1c-1.091 0-2 .91-2 2H9V1zM12 7v7H1.187c0 1.09.91 2 2 2H12c1.09 0 2-.91 2-2V7z" color="#000" font-weight="400" font-family="Sans" overflow="visible" fill="#f1f2f2"/>
    <path style="line-height:normal;text-indent:0;text-align:start;text-decoration-line:none;text-decoration-style:solid;text-decoration-color:#000;text-transform:none;isolation:auto;mix-blend-mode:normal" d="M.69 12a.5.5 0 1 0 0 1H2.5a.5.5 0 1 0 0-1zm0-2a.5.5 0 1 0 0 1H2.5a.5.5 0 1 0 0-1zm0-2a.5.5 0 1 0 0 1H2.5a.5.5 0 1 0 0-1zm0-2a.5.5 0 1 0 0 1H2.5a.5.5 0 1 0 0-1zm0-2a.5.5 0 1 0 0 1H2.5a.5.5 0 1 0 0-1z" color="#000" font-weight="400" font-family="sans-serif" white-space="normal" overflow="visible" fill="#f1f2f2"/>
    <path d="M7 10c.328.066.666.007 1 0 .334-.007.669.04 1 0 .624-.074 1.196-.462 1.523-.998a2.41 2.41 0 0 0 .26-1.817A2.807 2.807 0 0 0 9.75 5.652 3.366 3.366 0 0 0 8.009 5a3.737 3.737 0 0 0-2.565.746 3.69 3.69 0 0 0-1.382 2.285 3.647 3.647 0 0 0 .185 1.895c.228.6.618 1.137 1.119 1.54.5.402 1.11.668 1.744.76A3.647 3.647 0 0 0 9 12v-1c-.453.299-1 .453-1.542.437a2.677 2.677 0 0 1-1.513-.53 2.676 2.676 0 0 1-.932-1.304A2.676 2.676 0 0 1 5 8a2.818 2.818 0 0 1 1.154-1.511C6.697 6.136 7.354 5.969 8 6c.537.026 1.082.193 1.483.551.2.18.362.404.456.656.095.252.12.53.061.793-.054.24-.18.464-.355.637a1.294 1.294 0 0 1-.645.34V8a1.628 1.628 0 0 0-.595-.737 1.628 1.628 0 0 0-.905-.277c-.32 0-.64.098-.905.277-.266.18-.476.44-.595.737-.158.394-.152.856.033 1.238.186.383.55.678.967.762zm1.036-.977a.708.708 0 0 1-.814.132.707.707 0 0 1-.378-.732.707.707 0 0 1 .453-.554A.706.706 0 0 1 8 8" style="line-height:125%;-inkscape-font-specification:'Cantarell Bold';text-indent:0;text-align:start;text-decoration-line:none;text-transform:none;marker:none" color="#000" font-weight="700" font-family="Cantarell" letter-spacing="0" word-spacing="0" fill="#f1f2f2"/>
    <path d="M12 .02v1.996h-2v1.997h2V6.01h2V4.013h2V2.016h-2V.02z" fill="#690"/>
</svg>
