<svg xmlns="http://www.w3.org/2000/svg" viewBox="-3 -3 22 22">
    <g fill="#f1f2f2">
        <path style="line-height:normal;-inkscape-font-specification:Sans;text-indent:0;text-align:start;text-decoration-line:none;text-transform:none;marker:none" d="M12.906 1A1 1 0 0 0 12 2v13a1 1 0 1 0 2 0V3h1a1 1 0 1 0 0-2h-2a1 1 0 0 0-.094 0z" color="#000" font-weight="400" font-family="Sans" overflow="visible"/>
        <path style="line-height:normal;-inkscape-font-specification:Sans;text-indent:0;text-align:start;text-decoration-line:none;text-transform:none;marker:none" d="M13 6v3h3V6h-2.5zm1 1h1v1h-1zm-1 3v3h3v-3h-2.5zm1 1h1v1h-1zM0 4v12h10v-2h1v-2H8v2H2V6h3V4H1z" color="#000" font-weight="400" font-family="Sans" overflow="visible"/>
        <path d="M6 1l5 4H8v4.531H6z"/>
        <path d="M7.995 9.505A2.495 2.495 0 0 1 5.5 12a2.495 2.495 0 0 1-2.495-2.495A2.495 2.495 0 0 1 5.5 7.01a2.495 2.495 0 0 1 2.495 2.495z"/>
    </g>
</svg>
