<svg xmlns="http://www.w3.org/2000/svg" viewBox="-3 -3 22 22">
    <path d="M2.812 1.031a1 1 0 0 0-.812 1V14.97a1 1 0 0 0 1 1h10a1 1 0 0 0 1-1V9.938a1 1 0 1 0-2 0v4.03H4V3.032h1.969a1 1 0 1 0 0-2h-2.97a1 1 0 0 0-.187 0z" style="line-height:normal;-inkscape-font-specification:Sans;text-indent:0;text-align:start;text-decoration-line:none;text-transform:none;marker:none" color="#000" font-weight="400" font-family="Sans" overflow="visible" fill="#f1f2f2"/>
    <path d="M9 1.997v1.996H7V5.99h2v1.997h2V5.99h2V3.993h-2V1.997z" fill="#690"/>
</svg>
