<?xml version="1.0" encoding="UTF-8" standalone="no"?>
<svg id="svg8" xmlns="http://www.w3.org/2000/svg" version="1.1" viewBox="-3 -3 22 22"><path id="path2" style="color:#f1f2f2;fill:#f1f2f2" d="m7.5 3c-0.277 0-0.5 0.223-0.5 0.5v2a0.499 0.499 0 0 0 0.5 0.5h1c0.277 0 0.5-0.223 0.5-0.5v-2c0-0.277-0.223-0.5-0.5-0.5h-1zm-4.4453 1.8418a0.499 0.499 0 0 0 -0.3613 0.1465l-0.7071 0.707a0.499 0.499 0 0 0 0 0.707l1.4258 1.4258a0.499 0.499 0 0 0 0.707 0l0.7071-0.707a0.499 0.499 0 0 0 0 -0.707l-1.4258-1.4258a0.499 0.499 0 0 0 -0.3457 -0.1465zm9.9003 0.002a0.499 0.499 0 0 0 -0.359 0.1464l-1.426 1.4239a0.499 0.499 0 0 0 0 0.7089l0.707 0.7071a0.499 0.499 0 0 0 0.709 0l1.424-1.4258a0.499 0.499 0 0 0 0 -0.707l-0.707-0.7071a0.499 0.499 0 0 0 -0.348 -0.1464zm-6.7109 4.1562a0.428 0.428 0 0 0 -0.375 0.2617l-0.8359 2.2173c-0.101 0.234 0.1263 0.527 0.4043 0.521a25395 25395 0 0 0 4.5625 0v-2h0.418l-0.279-0.7383c-0.073-0.193-0.3362-0.3073-0.5472-0.2363-0.213 0.07-0.8199 0.2617-1.5859 0.2617a5.147 5.147 0 0 1 -1.5879 -0.2598 0.465 0.465 0 0 0 -0.1739 -0.0273zm-5.7714 1c-0.262 0-0.47266 0.223-0.47266 0.5v1a0.486 0.486 0 0 0 0.47266 0.5h2.0273c0.262 0 0.4727-0.223 0.4727-0.5v-1c0-0.277-0.2107-0.5-0.4727-0.5h-2.0273z"/><path id="path4560" style="color:#f1f2f2;fill:#cc0000" overflow="visible" d="m11 11h1.375l1.125 1.094 1.094-1.094h1.406v1.469l-1.094 1.062 1.094 1.063v1.406h-1.437l-1.063-1.062-1.062 1.062h-1.438v-1.406l1.063-1.063-1.063-1.061z"/></svg>
