<svg viewBox="-3 -3 22 22" xmlns="http://www.w3.org/2000/svg">
    <g fill="#f1f2f2">
        <path d="M4.969.594C2.979 1.407 1.433 3.009.625 5l2.906.781a5.128 5.128 0 0 1 2.25-2.218L4.97.592zm6.062 0l-.812 2.969a5.128 5.128 0 0 1 2.25 2.218L15.375 5c-.808-1.99-2.354-3.593-4.344-4.406zm-7.5 9.625L.625 11c.808 1.99 2.354 3.593 4.344 4.406l.812-2.969a5.128 5.128 0 0 1-2.25-2.218zm8.906 0a5.128 5.128 0 0 1-2.218 2.25L11 15.375c1.99-.808 3.593-2.354 4.406-4.344l-2.969-.812z"/>
        <path d="M8 0a8 8 0 1 0 0 16A8 8 0 0 0 8 0zm0 3a5 5 0 1 1 0 10A5 5 0 0 1 8 3z" opacity=".3"/>
    </g>
</svg>
