<svg xmlns="http://www.w3.org/2000/svg" viewBox="-3 -3 22 22">
    <path d="M8.272 0C6.625.023 5.065.5 3.894 1.249c-1.17.748-1.973 1.58-1.96 2.706.01.802.694 1.402 1.544 1.391.914-.011 1.732-.71 1.722-1.551 0-.064 0-.146-.024-.219-.023-.072-.071-.155-.13-.316-.053-.125-.09-.167-.09-.216-.006-.387.278-.77.857-1.084C6.39 1.644 7.039 1.012 8 1c.886-.011 1.76.593 2.205.924.443.33.787 1.436.795 2.076.008.744-.332.866-.774 1.5-.005.005.004.015 0 .02-.462.633-.772.666-1.892 1.294-1.322.734-2.082 1.392-2.567 2.06-.486.669-.634 1.476-.795 2.792-.02.169.141.337.322.334l1.061-.013c.153-.002.296-.12.315-.263.125-.981.368-1.614.824-2.096.457-.483 1.157-.856 2.3-1.182h.02c1.286-.396 2.034-.782 2.784-1.525v-.02c.925-.934 1.482-2.07 1.468-3.237-.013-1.123-.654-2.086-1.687-2.721C11.346.308 9.928-.02 8.272 0zM6.267 13c-1.256.013-2.28.84-2.267 1.786a1.1 1.1 0 0 0 .48.893c.31.218.752.326 1.23.32 1.228-.011 2.303-.792 2.29-1.702-.011-.738-.76-1.307-1.733-1.297z" fill="#f1f2f2"/>
</svg>
