<svg xmlns="http://www.w3.org/2000/svg" viewBox="-3 -3 22 22">
    <path style="line-height:normal;-inkscape-font-specification:'Bitstream Vera Sans';text-indent:0;text-align:start;text-decoration-line:none;text-transform:none;marker:none" d="M1.78 1.72a1 1 0 0 0-.406 1.78l5 4L7 8l.625-.5 5-4a1 1 0 1 0-1.25-1.562L7 5.438l-4.375-3.5a1 1 0 0 0-.843-.219z" color="#000" font-weight="400" font-family="Bitstream Vera Sans" overflow="visible" fill="#f1f2f2"/>
    <path style="line-height:normal;-inkscape-font-specification:'Bitstream Vera Sans';text-indent:0;text-align:start;text-decoration-line:none;text-transform:none;marker:none" d="M.813 1A1.034 1.034 0 0 0 0 2v9c0 .524.477 1 1 1h6v-2H2V3h10v4h2V2c0-.523-.476-1-1-1H1a1.478 1.478 0 0 0-.094 0 1.478 1.478 0 0 0-.093 0z" color="#000" font-weight="400" font-family="Bitstream Vera Sans" overflow="visible" fill="#f1f2f2"/>
    <path style="marker:none" d="M8.875 8.07A.86.86 0 0 0 8 8.936v6.195a.86.86 0 0 0 .875.868h6.25a.86.86 0 0 0 .875-.868V8.937a.86.86 0 0 0-.875-.868zM11 9.06h2v3.966h-2zm0 4.957h2v.991h-2z" class="warning" color="#f1f2f2" overflow="visible" fill="#f60"/>
</svg>
