<svg xmlns="http://www.w3.org/2000/svg" viewBox="-3 -3 22 22">
    <defs>
        <clipPath id="a">
            <path style="marker:none" color="#f1f2f2" fill="none" stroke="#fff" stroke-width="2" stroke-linecap="round" stroke-linejoin="round" overflow="visible" d="M21 281h14v11H21z"/>
        </clipPath>
    </defs>
    <path d="M5.5.987c1.385 0 2.5 1.115 2.5 2.5V8.5C8 9.885 6.885 11 5.5 11A2.495 2.495 0 0 1 3 8.5V3.487c0-1.385 1.115-2.5 2.5-2.5z" style="marker:none" color="#f1f2f2" overflow="visible" fill="#f1f2f2"/>
    <path transform="matrix(.99397 0 0 1 -22.293 -275.486)" style="line-height:normal;-inkscape-font-specification:Sans;text-indent:0;text-align:start;text-decoration-line:none;text-transform:none;marker:none" d="M27.969 273.625a4.531 4.531 0 0 0-4.532 4.531v5.813a4.531 4.531 0 0 0 9.063 0v-5.813a4.531 4.531 0 0 0-4.531-4.531zm0 1a3.514 3.514 0 0 1 3.531 3.531v5.813a3.514 3.514 0 0 1-3.531 3.531 3.514 3.514 0 0 1-3.532-3.531v-5.813a3.514 3.514 0 0 1 3.532-3.531z" clip-path="url(#a)" color="#f1f2f2" font-weight="400" font-family="Sans" overflow="visible" fill="#f1f2f2"/>
    <path d="M2 5.5a.5.5 0 0 1-.5.5.5.5 0 0 1-.5-.5.5.5 0 0 1 .5-.5.5.5 0 0 1 .5.5zm8 0a.5.5 0 0 1-.5.5.5.5 0 0 1-.5-.5.5.5 0 0 1 .5-.5.5.5 0 0 1 .5.5z" style="marker:none" color="#f1f2f2" overflow="visible" fill="#f1f2f2"/>
    <path style="line-height:normal;-inkscape-font-specification:Sans;text-indent:0;text-align:start;text-decoration-line:none;text-transform:none;marker:none" d="M1.906 14A1.001 1.001 0 1 0 2 16h7a1 1 0 1 0 0-2H2a1 1 0 0 0-.094 0z" color="#f1f2f2" font-weight="400" font-family="Sans" overflow="visible" fill="#f1f2f2"/>
    <path d="M1 15h9v1H1z" style="marker:none" color="#f1f2f2" overflow="visible" fill="#f1f2f2"/>
    <path d="M4 12h3v4H4z" style="marker:none" color="#f1f2f2" overflow="visible" fill="#f1f2f2"/>
    <path style="line-height:normal;-inkscape-font-specification:Sans;text-indent:0;text-align:start;text-decoration-line:none;text-transform:none;marker:none" d="M13 .992c-1.098 0-2.008.91-2.008 2.008 0 1.099.91 2.008 2.008 2.008 1.099 0 2.008-.91 2.008-2.008 0-1.099-.91-2.008-2.008-2.008zm0 1.016a.98.98 0 0 1 .992.992.979.979 0 0 1-.992.992.979.979 0 0 1-.992-.992.98.98 0 0 1 .992-.992zm0 3.984c-1.098 0-2.008.91-2.008 2.008 0 1.099.91 2.008 2.008 2.008 1.099 0 2.008-.91 2.008-2.008 0-1.099-.91-2.008-2.008-2.008zm0 1.016a.98.98 0 0 1 .992.992.979.979 0 0 1-.992.992.979.979 0 0 1-.992-.992.98.98 0 0 1 .992-.992z" color="#000" font-weight="400" font-family="Sans" overflow="visible" opacity=".5" fill="#f1f2f2"/>
    <path style="marker:none" d="M11 11h1.375l1.125 1.094L14.594 11H16v1.469l-1.094 1.062L16 14.594V16h-1.437L13.5 14.937 12.438 16H11v-1.406l1.063-1.063L11 12.47z" color="#f1f2f2" overflow="visible" fill="#c00"/>
</svg>
