<svg xmlns="http://www.w3.org/2000/svg" viewBox="-3 -3 22 22">
    <path style="text-indent:0;text-decoration-line:none;text-transform:none" d="M3.469 1A2.468 2.468 0 0 0 .998 3.469v9.062A2.468 2.468 0 0 0 3.471 15H10v-1H3.47A1.443 1.443 0 0 1 2 12.531v-9.06C2 2.638 2.637 2 3.469 2H12.53c.687 0 1.234.437 1.406 1.057L8.5 8.375 6.562 6.437 4.438 8.563l3 3L8.5 12.626l1.063-1.063.437-.449V10h1.084L14 7.004V10h1V3.47A2.468 2.468 0 0 0 12.53 1H3.468z" font-weight="400" font-family="Sans" overflow="visible" fill="#f1f2f2"/>
    <path d="M16 13l-2 3h-1l-2-3h2v-2h1v2z" fill="#c00"/>
</svg>
