<svg xmlns="http://www.w3.org/2000/svg" viewBox="-3 -3 22 22">
    <path style="text-indent:0;text-decoration-line:none;text-transform:none" d="M3.469 1A2.468 2.468 0 0 0 .998 3.469v9.062A2.468 2.468 0 0 0 3.471 15H10v-1H3.47A1.443 1.443 0 0 1 2 12.531v-9.06C2 2.638 2.637 2 3.469 2h9.061c.687 0 1.234.437 1.406 1.057L8.5 8.375 6.562 6.437 4.438 8.563l3 3L8.5 12.626l1.063-1.063.437-.449V10h1.084L14 7.004V10h1V3.47A2.468 2.468 0 0 0 12.53 1H3.468z" font-weight="400" font-family="Sans" overflow="visible" fill="#f1f2f2"/>
    <path style="marker:none" d="M11 11h1.375l1.125 1.094L14.594 11H16v1.469l-1.094 1.062L16 14.594V16h-1.438L13.5 14.937 12.437 16H11v-1.406l1.062-1.063L11 12.47z" overflow="visible" color="#f1f2f2" fill="#c00"/>
</svg>
