<svg viewBox="-3 -3 22 22" xmlns="http://www.w3.org/2000/svg">
    <g color="#000" fill="#f1f2f2">
        <path d="M13 1a1 1 0 0 0-1 1v13a1 1 0 1 0 2 0V3h1a1 1 0 1 0 0-2z" style="line-height:normal;font-variant-ligatures:normal;font-variant-position:normal;font-variant-caps:normal;font-variant-numeric:normal;font-variant-alternates:normal;font-feature-settings:normal;text-indent:0;text-align:start;text-decoration-line:none;text-decoration-style:solid;text-decoration-color:#000;text-transform:none;text-orientation:mixed;shape-padding:0;isolation:auto;mix-blend-mode:normal" font-weight="400" font-family="sans-serif" white-space="normal" overflow="visible"/>
        <path d="M13 6v3h3V6zm1 1h1v1h-1zm-1 3v3h3v-3zm1 1h1v1h-1z" style="line-height:normal;font-variant-ligatures:normal;font-variant-position:normal;font-variant-caps:normal;font-variant-numeric:normal;font-variant-alternates:normal;font-feature-settings:normal;text-indent:0;text-align:start;text-decoration-line:none;text-decoration-style:solid;text-decoration-color:#000;text-transform:none;text-orientation:mixed;shape-padding:0;isolation:auto;mix-blend-mode:normal;marker:none" font-weight="400" font-family="sans-serif" white-space="normal" overflow="visible"/>
        <path d="M0 4v12h11.017v-2h1.022v-2H9.017v2H2V6h10.16V4h-1z" style="line-height:normal;font-variant-ligatures:normal;font-variant-position:normal;font-variant-caps:normal;font-variant-numeric:normal;font-variant-alternates:normal;font-feature-settings:normal;text-indent:0;text-align:start;text-decoration-line:none;text-decoration-style:solid;text-decoration-color:#000;text-transform:none;text-orientation:mixed;shape-padding:0;isolation:auto;mix-blend-mode:normal" font-weight="400" font-family="sans-serif" white-space="normal" overflow="visible"/>
        <path d="M4 7.007v1H3v1h1v1H3v1h1v1h1v-1h1v1h1v-1h1v-1H7v-1h1v-1H7v-1H6v1H5v-1z" style="isolation:auto;mix-blend-mode:normal;marker:none" overflow="visible"/>
    </g>
</svg>
