<svg xmlns="http://www.w3.org/2000/svg" viewBox="-3 -3 22 22">
    <path opacity=".5" d="M2.334 1C1.595 1 1 1.596 1 2.334v11.332C1 14.405 1.595 15 2.334 15h6.428A4.5 4.5 0 0 1 8 12.5a4.5 4.5 0 0 1 .508-2.068L8 9.722l-1.685 2.36a1.001 1.001 0 1 1-1.63-1.164L6.055 9H4c-.554 0-1-.446-1-1s.446-1 1-1h2.055l-1.37-1.918a1 1 0 0 1 .772-1.594 1 1 0 0 1 .857.43L8 6.278l1.685-2.36a1 1 0 0 1 .829-.43 1 1 0 0 1 .8 1.594L9.945 7H12c.554 0 1 .446 1 1 0 .01-.006.019-.006.03A4.5 4.5 0 0 1 15 8.76V2.334C15 1.596 14.405 1 13.666 1H2.334zM8 7c-.554 0-1 .446-1 1s.446 1 1 1 1-.446 1-1-.446-1-1-1z" stroke-width=".875" fill="#f1f2f2"/>
    <path d="M12.5 9a3.5 3.5 0 1 0 0 7 3.5 3.5 0 0 0 0-7zM10 11.969h5V13h-5z" class="error" overflow="visible" fill="#c00" color="#f1f2f2"/>
</svg>
