<svg xmlns="http://www.w3.org/2000/svg" viewBox="-3 -3 22 22">
    <g color="#000" fill="#f1f2f2">
        <path style="line-height:normal;-inkscape-font-specification:Sans;text-indent:0;text-align:start;text-decoration-line:none;text-transform:none;marker:none" d="M2 0C.948 0 0 .845 0 1.938v11.124C0 14.155.948 15 2 15h11c1.052 0 2-.845 2-1.938V1.938C15 .845 14.052 0 13 0zm0 5h3.031v2H2zm4.031 0H9v2H6.031zM10 5h3v2h-3zM2 8h3.031v2H2zm4.031 0H9v2H6.031zM10 8h3v2h-3zm-8 3h3.031v2H2zm4.031 0H9v2H6.031zM10 11h3v2h-3z" font-weight="400" font-family="Sans" overflow="visible"/>
        <path d="M10 8h3v2h-3z" style="marker:none" overflow="visible" opacity=".35"/>
    </g>
</svg>
