<?xml version="1.0" encoding="UTF-8" standalone="no"?>
<svg id="svg4" xmlns="http://www.w3.org/2000/svg" version="1.1" viewBox="-3 -3 22 22"><path id="path4511" style="fill:#f1f2f2" d="m1.7559 5c-0.4188 0-0.7559 0.3371-0.7559 0.7559v4.4881c0 0.419 0.3371 0.756 0.7559 0.756h5.4882c0.4188 0 0.7559-0.337 0.7559-0.756v-4.4881c0-0.4188-0.3371-0.7559-0.7559-0.7559zm0.2441 1h5v4h-5v-3z"/><path id="path4519" style="fill:#f1f2f2" d="m8.7559 5c-0.4188 0-0.7559 0.3371-0.7559 0.7559v4.4881c0 0.419 0.3371 0.756 0.7559 0.756h5.4881c0.419 0 0.756-0.337 0.756-0.756v-4.4881c0-0.4188-0.337-0.7559-0.756-0.7559zm0.2441 1h5v4h-5v-3z"/><rect id="rect4521" style="opacity:.7;fill:#f1f2f2" ry=".37795" height="2" width="3" y="7" x="3"/><rect id="rect4525" style="opacity:.7;fill:#f1f2f2" ry=".37795" height="2" width="3" y="7" x="10"/></svg>
