#define bullett_width 8
#define bullett_height 7
static unsigned char bullett_bits[] = {
   0x00, 0x12, 0x24, 0x48, 0x24, 0x12, 0x00 };
