<?xml version="1.0" encoding="utf-8"?>
<!-- Generator: Adobe Illustrator 19.1.0, SVG Export Plug-In . SVG Version: 6.00 Build 0)  -->
<!DOCTYPE svg PUBLIC "-//W3C//DTD SVG 1.1//EN" "http://www.w3.org/Graphics/SVG/1.1/DTD/svg11.dtd">
<svg version="1.1" id="Layer_1" xmlns="http://www.w3.org/2000/svg" xmlns:xlink="http://www.w3.org/1999/xlink" x="0px" y="0px"
	 viewBox="0 0 52 52" enable-background="new 0 0 52 52" xml:space="preserve">
<g>
	<circle fill="#008FBF" cx="21.8" cy="37" r="2"/>
	<circle fill="#008FBF" cx="17.8" cy="48" r="2"/>
	<circle fill="#008FBF" cx="25.8" cy="49" r="1"/>
	<circle fill="#008FBF" cx="8.8" cy="49" r="1"/>
	<circle fill="#008FBF" cx="21.8" cy="43" r="1"/>
	<path fill="#008FBF" d="M14,44.4l-0.5-1c0.3-0.2,0.5-0.5,0.7-0.8c0.2-0.3,0.3-0.6,0.4-1l1.1,0c0.6,0,1-0.4,1-1c0-0.6-0.4-1-1-1
		l-1.1,0c-0.1-0.7-0.5-1.3-1-1.9l0.6-1c0.3-0.5,0.2-1.1-0.3-1.4c-0.5-0.3-1.1-0.2-1.4,0.3l-0.6,1c-0.7-0.2-1.4-0.3-2.1-0.1l-0.5-1
		C9.1,35,8.5,34.9,8,35.1c-0.5,0.3-0.7,0.9-0.4,1.3l0.5,1c-0.3,0.2-0.5,0.5-0.7,0.8c-0.2,0.3-0.3,0.6-0.4,1l-1.1,0c-0.6,0-1,0.4-1,1
		c0,0.4,0.2,0.7,0.5,0.9c0.1,0.1,0.3,0.1,0.5,0.2l1.1,0c0.1,0.7,0.5,1.3,1,1.9l-0.6,1c-0.3,0.5-0.2,1.1,0.3,1.4
		c0.5,0.3,1.1,0.2,1.4-0.3l0.6-1c0.7,0.2,1.4,0.3,2.1,0.1l0.5,1c0.1,0.2,0.2,0.3,0.3,0.4c0.3,0.2,0.7,0.2,1,0
		C14,45.5,14.2,44.9,14,44.4z M9.6,42.3c-0.9-0.6-1.2-1.8-0.6-2.8c0.6-0.9,1.8-1.2,2.8-0.6c0.9,0.6,1.2,1.8,0.6,2.8
		C11.8,42.6,10.5,42.9,9.6,42.3z"/>
	<g>
		<g>
			<path fill="#008FBF" d="M46.3,43.9l-2.1-1.2l1.5-0.4c0.5-0.1,0.8-0.6,0.6-1.1c-0.1-0.5-0.6-0.8-1.1-0.6L42,41.4l-1.2-0.7
				c0.1-0.3,0.1-0.5,0.1-0.8c0-0.2,0-0.5-0.1-0.7l1.2-0.7l3.2,0.9c0.1,0,0.2,0,0.2,0c0.4,0,0.8-0.3,0.9-0.7c0.1-0.5-0.1-1-0.6-1.1
				l-1.5-0.4l2.1-1.2c0.4-0.2,0.6-0.8,0.3-1.2c-0.2-0.4-0.8-0.6-1.2-0.3l-2.1,1.2l0.4-1.6c0.1-0.5-0.2-1-0.7-1.1
				c-0.5-0.1-1,0.2-1.1,0.7L41.1,37l-1.2,0.7c-0.3-0.3-0.7-0.5-1.2-0.7v-1.3l2.4-2.3c0.4-0.3,0.4-0.9,0-1.3c-0.3-0.4-0.9-0.4-1.3,0
				l-1.2,1.1v-2.5c0-0.5-0.4-0.9-0.9-0.9c-0.5,0-0.9,0.4-0.9,0.9v2.5L35.8,32c-0.4-0.3-0.9-0.3-1.3,0c-0.3,0.4-0.3,0.9,0,1.3
				l2.4,2.3V37c-0.5,0.2-0.9,0.4-1.3,0.8l-1-0.6l-0.8-3.3c-0.1-0.5-0.6-0.8-1.1-0.7c-0.5,0.1-0.8,0.6-0.7,1.1l0.4,1.6l-2.1-1.2
				c-0.4-0.2-1-0.1-1.2,0.3c-0.2,0.4-0.1,1,0.3,1.2l2.1,1.2L30,37.9c-0.5,0.1-0.8,0.6-0.6,1.1c0.1,0.4,0.5,0.7,0.9,0.7
				c0.1,0,0.2,0,0.2,0l3.2-0.9l1.1,0.7c0,0.2-0.1,0.3-0.1,0.5c0,0.2,0,0.5,0.1,0.7l-1.2,0.7l-3.2-0.9c-0.5-0.1-1,0.1-1.1,0.6
				c-0.1,0.5,0.1,1,0.6,1.1l1.5,0.4l-2.1,1.2c-0.4,0.2-0.6,0.8-0.3,1.2c0.2,0.3,0.5,0.4,0.8,0.4c0.2,0,0.3,0,0.4-0.1l2.1-1.2
				l-0.4,1.6c-0.1,0.5,0.2,1,0.7,1.1c0.1,0,0.1,0,0.2,0c0.4,0,0.8-0.3,0.9-0.7l0.8-3.3l1.2-0.7c0.3,0.3,0.7,0.5,1.2,0.7v1.3
				l-2.4,2.3c-0.4,0.3-0.4,0.9,0,1.3c0.2,0.2,0.4,0.3,0.6,0.3c0.2,0,0.5-0.1,0.6-0.3l1.2-1.1v2.5c0,0.5,0.4,0.9,0.9,0.9
				c0.5,0,0.9-0.4,0.9-0.9v-2.5l1.2,1.1c0.2,0.2,0.4,0.3,0.6,0.3c0.2,0,0.5-0.1,0.6-0.3c0.3-0.4,0.3-0.9,0-1.3l-2.4-2.3v-1.3
				c0.4-0.1,0.7-0.3,1-0.6l1.3,0.7l0.8,3.3c0.1,0.4,0.5,0.7,0.9,0.7c0.1,0,0.1,0,0.2,0c0.5-0.1,0.8-0.6,0.7-1.1l-0.4-1.6l2.1,1.2
				c0.1,0.1,0.3,0.1,0.4,0.1c0.3,0,0.6-0.2,0.8-0.4C46.9,44.7,46.7,44.1,46.3,43.9z M37.9,41.1c-0.7,0-1.3-0.6-1.3-1.3
				c0-0.7,0.6-1.3,1.3-1.3c0.7,0,1.3,0.6,1.3,1.3C39.1,40.6,38.6,41.1,37.9,41.1z"/>
		</g>
	</g>
	<path fill="#A3A3A3" d="M32.6,31c-8,0-18.8,0-18.8,0c-2.8,0-5-2.3-5-5.1s2.3-5.1,5-5.1c0.4,0,0.9,0.1,1.3,0.2c0-0.1,0-0.1,0-0.2
		c0-2.8,2.3-5,5-5c1.2,0,2.3,0.4,3.2,1.1c1.3-2.9,4.2-4.9,7.5-4.9l8.2,7.8c0.6-0.2,1.2-0.3,1.9-0.3c3.1,0,5.7,2.6,5.7,5.7
		c0,2.5-1.6,4.6-3.8,5.4l2.1,1.2c2.2-1.4,3.6-3.8,3.6-6.5c0-4.2-3.4-7.7-7.7-7.7c-0.1,0-0.2,0-0.2,0c-1.2-4.4-5.1-7.5-9.9-7.5
		c-3.3,0-6.4,1.6-8.3,4.2c-0.8-0.3-1.6-0.4-2.5-0.4c-3.2,0-5.9,2.1-6.8,5c-3.7,0.2-6.6,3.3-6.6,7.1c0,3.9,3.2,7.1,7,7.1h15.1
		L32.6,31z"/>
	<g>
		<path fill="#E6E6E6" d="M38,28l4.8,2.6c2.2-0.8,3.8-2.9,3.8-5.4c0-3.1-2.5-5.7-5.7-5.7c-0.7,0-1.3,0.1-1.9,0.3
			c-0.2-4.4-3.8-7.8-8.2-7.8c-3.4,0-6.3,2-7.5,4.9c-0.9-0.7-2-1.1-3.2-1.1c-2.8,0-5,2.2-5,5c0,0.1,0,0.1,0,0.2
			c-0.4-0.1-0.8-0.2-1.3-0.2c-2.8,0-5,2.3-5,5.1s2.3,5.1,5,5.1c0,0,10.8,0,18.8,0L38,28z"/>
	</g>
	<path fill="#FF8833" d="M7.2,19.7c0.6-0.6,1.2-1.1,1.9-1.6c-1.4-2-1.8-4.6-0.8-6.9c1.2-2.7,3.8-4.4,6.6-4.4c0.9,0,1.9,0.2,2.8,0.6
		c2.1,0.9,3.5,2.6,4.1,4.6c1.2-1.3,2.7-2.3,4.4-3l-5.1-1L20,2.1l-5,3.3L10.1,2L8.9,7.8L3.1,8.9l3.3,5L3,18.8L7.2,19.7z"/>
	<g>
		<path fill="#FFB92F" d="M11,17.3c0.3-0.1,0.6-0.2,0.9-0.2c1.4-3,4.4-5,7.8-5.2c-0.5-1.2-1.5-2.1-2.7-2.6c-0.6-0.3-1.3-0.4-2-0.4
			c-2.1,0-4,1.2-4.8,3.2c-0.5,1.3-0.5,2.7,0,4C10.4,16.4,10.7,16.9,11,17.3z"/>
	</g>
</g>
</svg>
