<?xml version="1.0" encoding="utf-8"?>
<!-- Generator: Adobe Illustrator 19.1.0, SVG Export Plug-In . SVG Version: 6.00 Build 0)  -->
<!DOCTYPE svg PUBLIC "-//W3C//DTD SVG 1.1//EN" "http://www.w3.org/Graphics/SVG/1.1/DTD/svg11.dtd">
<svg version="1.1" id="Layer_1" xmlns="http://www.w3.org/2000/svg" xmlns:xlink="http://www.w3.org/1999/xlink" x="0px" y="0px"
	 viewBox="0 0 52 52" enable-background="new 0 0 52 52" xml:space="preserve">
<g>
	<g>
		<path fill="#E6E6E6" d="M12.2,37.8c0.4,0,0.9,0.1,1.3,0.2c0-0.1,0-0.1,0-0.2c0-2.8,2.3-5,5.1-5c1.2,0,2.3,0.4,3.2,1.1
			C23,31,25.9,29,29.3,29c4.4,0,8.1,3.5,8.2,7.9c0.6-0.2,1.2-0.3,1.9-0.3c3.1,0,5.7,2.6,5.7,5.7c0,3.1-2.6,5.7-5.7,5.7
			c-0.2,0-27.2,0-27.2,0c-2.8,0-5.1-2.3-5.1-5.1C7.1,40.1,9.4,37.8,12.2,37.8z"/>
	</g>
	<g>
		<path fill="#A3A3A3" d="M29.2,29c4.4,0,8.1,3.5,8.2,7.9c0.6-0.2,1.2-0.3,1.9-0.3c3.1,0,5.7,2.6,5.7,5.7c0,3.1-2.6,5.7-5.7,5.7
			c-0.2,0-27.2,0-27.2,0c-2.8,0-5.1-2.3-5.1-5.1c0-2.8,2.3-5.1,5.1-5.1c0.4,0,0.9,0.1,1.3,0.2c0-0.1,0-0.1,0-0.2c0-2.8,2.3-5,5.1-5
			c1.2,0,2.3,0.4,3.2,1.1C23,31,25.9,29,29.2,29 M29.2,27c-3.3,0-6.4,1.6-8.3,4.2c-0.8-0.3-1.6-0.4-2.5-0.4c-3.2,0-5.9,2.1-6.8,5
			C8,36,5.1,39.1,5.1,42.9c0,3.9,3.2,7.1,7.1,7.1h27.2c4.2,0,7.7-3.5,7.7-7.7c0-4.3-3.5-7.7-7.7-7.7c-0.1,0-0.2,0-0.2,0
			C38,30.2,34,27,29.2,27L29.2,27z"/>
	</g>
	<path fill="#FF8833" d="M50,18.6l-11.8-1l2.6-11l-10.2,5.7L26,2l-4.7,10.3L11.2,6.6l2.4,10.2c0.4,0,0.7-0.1,1.1-0.1
		c0.7,0,1.4,0.1,2.1,0.2c2.4-2.4,5.7-3.9,9.3-3.9c7.2,0,13,5.8,13,13c0,1.1-0.2,2.2-0.4,3.3c0.8,1,1.5,2.1,2,3.3
		c1.4,0.2,2.6,0.6,3.7,1.3l5.7-0.5L41.1,26L50,18.6z"/>
	<path fill="#FFB92F" d="M22.7,20.5c0.3,0,0.5,0,0.8,0c3.3,0,6.2,1.9,7.7,4.7c2.1,0.3,4.1,1.2,5.8,2.5c0.1-0.5,0.1-1.1,0.1-1.6
		c0-6.1-4.9-11-11-11c-2.7,0-5.2,1-7.1,2.6C20.3,18.3,21.6,19.2,22.7,20.5z"/>
	<path fill="#A3A3A3" d="M6,36.2c0.9-0.8,1.9-1.5,3.1-1.9H7.2c-1.9,0-3.5-1.6-3.5-3.5c0-1.9,1.6-3.5,3.5-3.5h0.6
		c0-3.8,3.1-6.9,6.8-6.9c2.9,0,5.3,1.8,6.3,4.4c0.7-0.4,1.6-0.6,2.4-0.6c1.2,0,2.3,0.5,3.2,1.2c0.8-0.2,1.6-0.3,2.5-0.3
		c-1.3-1.8-3.3-2.9-5.6-2.9c-0.5,0-1,0.1-1.5,0.2c-1.6-2.4-4.3-3.9-7.3-3.9c-4.2,0-7.8,3-8.6,7c-2.4,0.6-4.3,2.8-4.3,5.4
		C1.7,33.4,3.6,35.6,6,36.2z"/>
	<path fill="#E6E6E6" d="M7.2,34.3h1.9c0.4-0.1,0.7-0.2,1.1-0.3c1.5-3.1,4.7-5.2,8.2-5.2c0.6,0,1.2,0.1,1.8,0.2
		c1.7-1.8,3.9-3.1,6.4-3.6c-0.9-0.7-2-1.2-3.2-1.2c-0.9,0-1.7,0.2-2.4,0.6c-1-2.6-3.5-4.4-6.3-4.4c-3.8,0-6.8,3.1-6.8,6.9H7.2
		c-1.9,0-3.5,1.6-3.5,3.5C3.7,32.7,5.3,34.3,7.2,34.3z"/>
</g>
</svg>
