<?xml version="1.0" encoding="utf-8"?>
<!-- Generator: Adobe Illustrator 19.1.0, SVG Export Plug-In . SVG Version: 6.00 Build 0)  -->
<!DOCTYPE svg PUBLIC "-//W3C//DTD SVG 1.1//EN" "http://www.w3.org/Graphics/SVG/1.1/DTD/svg11.dtd">
<svg version="1.1" id="Layer_1" xmlns="http://www.w3.org/2000/svg" xmlns:xlink="http://www.w3.org/1999/xlink" x="0px" y="0px"
	 viewBox="0 0 52 52" enable-background="new 0 0 52 52" xml:space="preserve">
<g>
	<polygon fill="#15AADC" points="7.1,35 11.3,43.5 15.6,36.7 21.5,52 27.5,36.7 31.7,43.5 36,35 	"/>
	<path fill="#8ED1E9" d="M47.2,15.9c-6.5,0-11.7-5.2-11.7-11.7c0-1.1,0.2-2.2,0.5-3.2c-4.3,1.1-7.6,4.6-8.5,9
		c3.5,0.9,6.5,3.4,7.8,6.7c3.6,0.5,6.6,3.1,7.6,6.6c3.5-1.3,6.3-4.2,7.3-7.8C49.2,15.8,48.2,15.9,47.2,15.9z"/>
	<g>
		<path fill="#E6E6E6" d="M8.7,21.7c0.4,0,0.8,0.1,1.2,0.2c0-0.1,0-0.1,0-0.2c0-2.6,2.1-4.7,4.7-4.7c1.1,0,2.2,0.4,3,1.1
			c1.2-2.7,3.9-4.6,7-4.6c4.1,0,7.5,3.2,7.6,7.3c0.6-0.2,1.1-0.3,1.8-0.3c2.9,0,5.3,2.4,5.3,5.3c0,2.9-2.4,5.3-5.3,5.3
			c-0.2,0-25.3,0-25.3,0C6.1,31.1,4,29,4,26.4C4,23.8,6.1,21.7,8.7,21.7z"/>
	</g>
	<path fill="#A3A3A3" d="M24.6,13.5c4.1,0,7.5,3.2,7.6,7.3c0.6-0.2,1.1-0.3,1.8-0.3c2.9,0,5.3,2.4,5.3,5.3s-2.4,5.3-5.3,5.3
		c-0.2,0-25.3,0-25.3,0C6.1,31.1,4,29,4,26.4c0-2.6,2.1-4.7,4.7-4.7c0.4,0,0.8,0.1,1.2,0.2c0-0.1,0-0.1,0-0.2c0-2.6,2.1-4.7,4.7-4.7
		c1.1,0,2.2,0.4,3,1.1C18.7,15.4,21.4,13.5,24.6,13.5 M24.6,11.5c-3.1,0-6,1.5-7.8,3.9c-0.7-0.3-1.5-0.4-2.2-0.4c-3,0-5.6,2-6.4,4.7
		C4.7,20,2,22.9,2,26.4c0,3.7,3,6.7,6.7,6.7H34c4,0,7.3-3.3,7.3-7.3c0-4-3.3-7.3-7.3-7.3c0,0-0.1,0-0.1,0
		C32.7,14.4,29,11.5,24.6,11.5L24.6,11.5z"/>
	<path fill="#008FBF" d="M47.2,15.9c-6.5,0-11.7-5.2-11.7-11.7c0-1.1,0.2-2.2,0.5-3.2c-4.3,1.1-7.6,4.6-8.5,9
		c0.7,0.2,1.3,0.4,1.9,0.7c0.5-2.6,2-4.9,4.2-6.4c0,7.4,6,13.4,13.3,13.6c-1.2,1.7-2.9,2.9-4.8,3.6c0.3,0.6,0.6,1.2,0.8,1.9
		c3.5-1.3,6.3-4.2,7.3-7.8C49.2,15.8,48.2,15.9,47.2,15.9z"/>
</g>
</svg>
