<?xml version="1.0" encoding="utf-8"?>
<!-- Generator: Adobe Illustrator 19.1.0, SVG Export Plug-In . SVG Version: 6.00 Build 0)  -->
<!DOCTYPE svg PUBLIC "-//W3C//DTD SVG 1.1//EN" "http://www.w3.org/Graphics/SVG/1.1/DTD/svg11.dtd">
<svg version="1.1" id="Layer_1" xmlns="http://www.w3.org/2000/svg" xmlns:xlink="http://www.w3.org/1999/xlink" x="0px" y="0px"
	 viewBox="0 0 52 52" enable-background="new 0 0 52 52" xml:space="preserve">
<g>
	<path fill="#8ED1E9" d="M47.1,16.9c-6.5,0-11.7-5.2-11.7-11.7c0-1.1,0.2-2.2,0.5-3.2c-4.3,1.1-7.6,4.6-8.5,9
		c3.5,0.9,6.5,3.4,7.8,6.7c3.6,0.5,6.6,3.1,7.6,6.6c3.5-1.3,6.3-4.2,7.3-7.8C49.1,16.8,48.1,16.9,47.1,16.9z"/>
	<path fill="#15AADC" d="M16.2,50c-0.1,0-0.3,0-0.4-0.1c-0.5-0.2-0.8-0.9-0.5-1.4l5.4-11.8c0.2-0.5,0.9-0.8,1.4-0.5
		c0.5,0.2,0.8,0.9,0.5,1.4l-5.4,11.8C17,49.8,16.6,50,16.2,50z"/>
	<path fill="#15AADC" d="M23.5,45.7c-0.2,0-0.3,0-0.5-0.1c-0.5-0.3-0.7-0.9-0.5-1.4l2.2-4.3c0.3-0.5,0.9-0.7,1.4-0.5
		c0.5,0.3,0.7,0.9,0.5,1.4l-2.2,4.3C24.3,45.5,23.9,45.7,23.5,45.7z"/>
	<path fill="#15AADC" d="M12.2,45.7c-0.2,0-0.3,0-0.5-0.1c-0.5-0.3-0.7-0.9-0.5-1.4l2.2-4.3c0.3-0.5,0.9-0.7,1.4-0.5
		c0.5,0.3,0.7,0.9,0.5,1.4l-2.2,4.3C13,45.5,12.6,45.7,12.2,45.7z"/>
	<path fill="#15AADC" d="M4.9,50c-0.1,0-0.3,0-0.4-0.1c-0.5-0.2-0.8-0.9-0.5-1.4l5.4-11.8c0.2-0.5,0.9-0.8,1.4-0.5
		c0.5,0.2,0.8,0.9,0.5,1.4L5.9,49.4C5.7,49.8,5.3,50,4.9,50z"/>
	<path fill="#15AADC" d="M27.5,50c-0.1,0-0.3,0-0.4-0.1c-0.5-0.2-0.8-0.9-0.5-1.4l5.4-11.8c0.2-0.5,0.9-0.8,1.4-0.5
		c0.5,0.2,0.8,0.9,0.5,1.4l-5.4,11.8C28.3,49.8,27.9,50,27.5,50z"/>
	<g>
		<path fill="#E6E6E6" d="M8.6,22.7c0.4,0,0.8,0.1,1.2,0.2c0-0.1,0-0.1,0-0.2c0-2.6,2.1-4.7,4.7-4.7c1.1,0,2.2,0.4,3,1.1
			c1.2-2.7,3.9-4.6,7-4.6c4.1,0,7.5,3.2,7.6,7.3c0.6-0.2,1.1-0.3,1.8-0.3c2.9,0,5.3,2.4,5.3,5.3c0,2.9-2.4,5.3-5.3,5.3
			c-0.2,0-25.3,0-25.3,0c-2.6,0-4.7-2.2-4.7-4.7C3.9,24.8,6,22.7,8.6,22.7z"/>
	</g>
	<path fill="#A3A3A3" d="M24.4,14.5c4.1,0,7.5,3.2,7.6,7.3c0.6-0.2,1.1-0.3,1.8-0.3c2.9,0,5.3,2.4,5.3,5.3s-2.4,5.3-5.3,5.3
		c-0.2,0-25.3,0-25.3,0c-2.6,0-4.7-2.2-4.7-4.7c0-2.6,2.1-4.7,4.7-4.7c0.4,0,0.8,0.1,1.2,0.2c0-0.1,0-0.1,0-0.2
		c0-2.6,2.1-4.7,4.7-4.7c1.1,0,2.2,0.4,3,1.1C18.6,16.4,21.3,14.5,24.4,14.5 M24.4,12.5c-3.1,0-6,1.5-7.8,3.9
		C16,16.1,15.2,16,14.4,16c-3,0-5.6,2-6.4,4.7c-3.5,0.3-6.2,3.2-6.2,6.7c0,3.7,3,6.7,6.7,6.7h25.3c4,0,7.3-3.3,7.3-7.3
		c0-4-3.3-7.3-7.3-7.3c0,0-0.1,0-0.1,0C32.6,15.4,28.9,12.5,24.4,12.5L24.4,12.5z"/>
	<path fill="#008FBF" d="M47.1,16.9c-6.5,0-11.7-5.2-11.7-11.7c0-1.1,0.2-2.2,0.5-3.2c-4.3,1.1-7.6,4.6-8.5,9
		c0.7,0.2,1.3,0.4,1.9,0.7c0.5-2.6,2-4.9,4.2-6.4c0,7.4,6,13.4,13.3,13.6c-1.2,1.7-2.9,2.9-4.8,3.6c0.3,0.6,0.6,1.2,0.8,1.9
		c3.5-1.3,6.3-4.2,7.3-7.8C49.1,16.8,48.1,16.9,47.1,16.9z"/>
</g>
</svg>
