<?xml version="1.0" encoding="utf-8"?>
<!-- Generator: Adobe Illustrator 19.1.0, SVG Export Plug-In . SVG Version: 6.00 Build 0)  -->
<!DOCTYPE svg PUBLIC "-//W3C//DTD SVG 1.1//EN" "http://www.w3.org/Graphics/SVG/1.1/DTD/svg11.dtd">
<svg version="1.1" id="Layer_1" xmlns="http://www.w3.org/2000/svg" xmlns:xlink="http://www.w3.org/1999/xlink" x="0px" y="0px"
	 viewBox="0 0 52 52" enable-background="new 0 0 52 52" xml:space="preserve">
<g>
	<g>
		<path fill="#8ED1E9" d="M45.6,24c-9.6,0-17.3-7.7-17.3-17.3c0-1.6,0.2-3.2,0.7-4.8C21.7,3.9,16.3,10.3,16,18.1
			c2.6,0.4,4.9,1.6,6.5,3.6c0.3,0,0.5,0,0.8,0c4,0,7.3,2.7,8.3,6.4c2.6,1.2,4.6,3.3,5.7,5.9c0.8,0.1,1.7,0.4,2.4,0.7
			c4.9-2,8.7-6.1,10.2-11.3C48.6,23.8,47.1,24,45.6,24z"/>
	</g>
	<g>
		<path fill="#E6E6E6" d="M11.4,38.9c0.4,0,0.8,0.1,1.2,0.2c0-0.1,0-0.1,0-0.2c0-2.5,2.1-4.6,4.6-4.6c1.1,0,2.1,0.4,2.9,1
			c1.2-2.6,3.8-4.5,6.9-4.5c4,0,7.3,3.2,7.5,7.2c0.5-0.2,1.1-0.3,1.7-0.3c2.9,0,5.2,2.4,5.2,5.2c0,2.8-2.3,5.2-5.2,5.2
			c-0.2,0-24.8,0-24.8,0c-2.5,0-4.6-2.1-4.6-4.6C6.8,41,8.9,38.9,11.4,38.9z"/>
	</g>
	<path fill="#A3A3A3" d="M27,30.9c4,0,7.3,3.2,7.5,7.2c0.5-0.2,1.1-0.3,1.7-0.3c2.9,0,5.2,2.4,5.2,5.2c0,2.8-2.3,5.2-5.2,5.2
		c-0.2,0-24.8,0-24.8,0c-2.5,0-4.6-2.1-4.6-4.6c0-2.5,2.1-4.6,4.6-4.6c0.4,0,0.8,0.1,1.2,0.2c0-0.1,0-0.1,0-0.2
		c0-2.5,2.1-4.6,4.6-4.6c1.1,0,2.1,0.4,2.9,1C21.3,32.8,23.9,30.9,27,30.9 M27,28.9c-3,0-5.8,1.4-7.6,3.8c-0.7-0.2-1.4-0.4-2.2-0.4
		c-2.9,0-5.5,1.9-6.3,4.6c-3.4,0.3-6.1,3.1-6.1,6.6c0,3.7,3,6.6,6.6,6.6h24.8c4,0,7.2-3.2,7.2-7.2c0-4-3.2-7.2-7.2-7.2
		c0,0-0.1,0-0.1,0C35,31.8,31.3,28.9,27,28.9L27,28.9z"/>
	<path fill="#A3A3A3" d="M5.7,37.4c0.8-0.8,1.8-1.4,2.9-1.8H7.2c-1.9,0-3.5-1.6-3.5-3.5c0-1.9,1.6-3.5,3.5-3.5h0.6
		c0-3.8,3.1-6.9,6.8-6.9c2.9,0,5.3,1.8,6.3,4.4c0.7-0.4,1.6-0.6,2.4-0.6c1.5,0,2.8,0.7,3.7,1.7c0.9,0,1.8,0.1,2.6,0.3
		c-1.1-2.4-3.5-4-6.3-4c-0.5,0-1,0.1-1.5,0.2c-1.6-2.4-4.3-3.9-7.3-3.9c-4.2,0-7.8,3-8.6,7c-2.4,0.6-4.3,2.8-4.3,5.4
		C1.7,34.6,3.4,36.7,5.7,37.4z"/>
	<path fill="#E6E6E6" d="M7.2,35.6h1.4c0.3-0.1,0.7-0.2,1.1-0.3c1.4-2.9,4.3-4.8,7.6-4.8c0.5,0,1,0,1.5,0.1c2.1-2.3,5.1-3.6,8.3-3.6
		c0,0,0.1,0,0.1,0c-0.9-1-2.2-1.7-3.7-1.7c-0.9,0-1.7,0.2-2.4,0.6c-1-2.6-3.5-4.4-6.3-4.4c-3.8,0-6.8,3.1-6.8,6.9H7.2
		c-1.9,0-3.5,1.6-3.5,3.5C3.7,34,5.2,35.6,7.2,35.6z"/>
	<path fill="#008FBF" d="M45.6,24c-9.6,0-17.3-7.7-17.3-17.3c0-1.6,0.2-3.2,0.7-4.8C21.7,3.9,16.3,10.3,16,18.1
		c0.7,0.1,1.3,0.2,2,0.5c0.1-5.8,3.4-10.9,8.4-13.5c0,0.5-0.1,1.1-0.1,1.7C26.3,17.4,35,26,45.6,26c0.4,0,0.8,0,1.2,0
		c-2,3.7-5.5,6.4-9.6,7.5c0.1,0.2,0.2,0.4,0.2,0.5c0.8,0.1,1.7,0.4,2.4,0.7c4.9-2,8.7-6.1,10.2-11.3C48.6,23.8,47.1,24,45.6,24z"/>
</g>
</svg>
