<?xml version="1.0" encoding="utf-8"?>
<!-- Generator: Adobe Illustrator 19.1.0, SVG Export Plug-In . SVG Version: 6.00 Build 0)  -->
<!DOCTYPE svg PUBLIC "-//W3C//DTD SVG 1.1//EN" "http://www.w3.org/Graphics/SVG/1.1/DTD/svg11.dtd">
<svg version="1.1" id="Layer_1" xmlns="http://www.w3.org/2000/svg" xmlns:xlink="http://www.w3.org/1999/xlink" x="0px" y="0px"
	 viewBox="0 0 52 52" enable-background="new 0 0 52 52" xml:space="preserve">
<g>
	<g>
		<path fill="#8ED1E9" d="M43.3,30.6c-11.8,0-21.4-9.6-21.4-21.3c0-2,0.3-4,0.8-5.9c-9.2,2.4-16,10.7-16,20.7c0,3,0.6,5.9,1.8,8.5
			c1.9-2.1,4.7-3.5,7.8-3.5c3.1,0,6.1,1.4,8,3.8c0.3,0,0.5,0,0.8,0c4.8,0,8.7,3.9,8.7,8.7c0,1.1-0.2,2.2-0.6,3.2
			c7.5-1.8,13.5-7.5,15.6-14.9C46.9,30.3,45.1,30.6,43.3,30.6z"/>
	</g>
	<path fill="#E6E6E6" d="M30,41.5c0-2.8-2.2-5.1-5-5.1c-0.9,0-1.7,0.2-2.4,0.6c-1-2.6-3.5-4.4-6.3-4.4c-3.8,0-6.8,3.1-6.8,6.9H8.8
		c-1.9,0-3.5,1.6-3.5,3.5c0,1.9,1.6,3.5,3.5,3.5h16.3c0.6,0,1.2-0.2,1.7-0.4C28.7,45.5,30,43.6,30,41.5z"/>
	<path fill="#A3A3A3" d="M16.2,32.7c2.9,0,5.3,1.8,6.3,4.4c0.7-0.4,1.6-0.6,2.4-0.6c2.8,0,5,2.3,5,5.1c0,2.1-1.3,4-3.2,4.7
		c-0.5,0.3-1.1,0.4-1.7,0.4H8.8c-1.9,0-3.5-1.6-3.5-3.5c0-1.9,1.6-3.5,3.5-3.5h0.6C9.4,35.8,12.5,32.7,16.2,32.7 M16.2,30.7
		c-4.2,0-7.8,3-8.6,7c-2.4,0.6-4.3,2.8-4.3,5.4c0,3,2.5,5.5,5.5,5.5h16.3c0.9,0,1.8-0.2,2.6-0.6c2.6-1.1,4.3-3.6,4.3-6.5
		c0-3.9-3.1-7.1-7-7.1c-0.5,0-1,0.1-1.5,0.2C21.9,32.2,19.2,30.7,16.2,30.7L16.2,30.7z"/>
	<path fill="#008FBF" d="M43.3,30.6c-11.8,0-21.4-9.6-21.4-21.3c0-2,0.3-4,0.8-5.9c-9.2,2.4-16,10.7-16,20.7c0,3,0.6,5.9,1.8,8.5
		c0.5-0.5,1-1,1.6-1.4c-0.9-2.2-1.4-4.6-1.4-7.1c0-7.7,4.5-14.5,11.4-17.6c-0.1,0.9-0.2,1.9-0.2,2.8c0,12.9,10.5,23.3,23.4,23.3
		c0.8,0,1.5,0,2.3-0.1c-2.4,4.9-6.8,8.5-12,10.1c-0.1,0.8-0.3,1.5-0.6,2.2c7.5-1.8,13.5-7.5,15.6-14.9
		C46.9,30.3,45.1,30.6,43.3,30.6z"/>
</g>
</svg>
