<?xml version="1.0" encoding="utf-8"?>
<!-- Generator: Adobe Illustrator 19.1.0, SVG Export Plug-In . SVG Version: 6.00 Build 0)  -->
<!DOCTYPE svg PUBLIC "-//W3C//DTD SVG 1.1//EN" "http://www.w3.org/Graphics/SVG/1.1/DTD/svg11.dtd">
<svg version="1.1" id="Layer_1" xmlns="http://www.w3.org/2000/svg" xmlns:xlink="http://www.w3.org/1999/xlink" x="0px" y="0px"
	 viewBox="0 0 52 52" enable-background="new 0 0 52 52" xml:space="preserve">
<g>
	<path fill="#A3A3A3" d="M14.5,32.3c-4.2,0-7.8,3-8.6,7c-2.4,0.6-4.3,2.8-4.3,5.4c0,3,2.5,5.5,5.5,5.5h16.3c0.9,0,1.8-0.2,2.6-0.6
		c2.6-1.1,4.3-3.6,4.3-6.5c0-3.9-3.1-7.1-7-7.1c-0.5,0-1,0.1-1.5,0.2C20.2,33.8,17.5,32.3,14.5,32.3L14.5,32.3z"/>
	<path fill="#E6E6E6" d="M28.3,43.1c0-2.8-2.2-5.1-5-5.1c-0.9,0-1.7,0.2-2.4,0.6c-1-2.6-3.5-4.4-6.3-4.4c-3.8,0-6.8,3.1-6.8,6.9H7.2
		c-1.9,0-3.5,1.6-3.5,3.5c0,1.9,1.6,3.5,3.5,3.5h16.3c0.6,0,1.2-0.2,1.7-0.4C27,47,28.3,45.2,28.3,43.1z"/>
	<path fill="#FF8833" d="M41.1,26l8.9-7.4l-11.8-1l2.6-11l-10.2,5.7L26,2l-4.7,10.3L11.2,6.6l2.6,11L2,18.6l8.9,7.4L2,33.4l5,0.4
		c1.8-1.9,4.2-3,6.9-3.2c-0.6-1.4-0.9-3-0.9-4.7c0-7.2,5.8-13,13-13s13,5.8,13,13c0,5.6-3.5,10.3-8.5,12.2c0.4,0.6,0.7,1.3,1,2
		l9.3,5.3l-2.6-11l11.8-1L41.1,26z"/>
	<path fill="#FFB92F" d="M26,15c-6.1,0-11,4.9-11,11c0,1.7,0.4,3.4,1.1,4.8c2.5,0.4,4.8,1.7,6.4,3.6c0.3,0,0.5,0,0.8,0
		c2.2,0,4.1,0.8,5.7,2.1c4.6-1.3,8-5.5,8-10.6C37,19.9,32.1,15,26,15z"/>
</g>
</svg>
