<?xml version="1.0" encoding="utf-8"?>
<!-- Generator: Adobe Illustrator 19.1.0, SVG Export Plug-In . SVG Version: 6.00 Build 0)  -->
<!DOCTYPE svg PUBLIC "-//W3C//DTD SVG 1.1//EN" "http://www.w3.org/Graphics/SVG/1.1/DTD/svg11.dtd">
<svg version="1.1" id="Layer_1" xmlns="http://www.w3.org/2000/svg" xmlns:xlink="http://www.w3.org/1999/xlink" x="0px" y="0px"
	 viewBox="0 0 52 52" enable-background="new 0 0 52 52" xml:space="preserve">
<circle fill="#008FBF" cx="26" cy="49" r="1"/>
<g>
	<path fill="#A3A3A3" d="M29.7,2c-3.8,0-7.4,1.9-9.5,4.9c-0.9-0.4-2-0.6-3-0.6c-3.6,0-6.7,2.5-7.6,5.8C5.4,12.3,2,15.8,2,20.1
		C2,24.5,5.5,28,9.9,28h31.5c4.7,0,8.6-3.9,8.6-8.6s-3.9-8.6-8.6-8.6c-0.2,0-0.3,0-0.5,0C39.7,5.7,35.1,2,29.7,2L29.7,2z"/>
	<g>
		<path fill="#E6E6E6" d="M9.9,14.2c0.5,0,1,0.1,1.5,0.2c0-0.1,0-0.1,0-0.2c0-3.2,2.6-5.8,5.9-5.8c1.4,0,2.7,0.5,3.7,1.3
			C22.4,6.3,25.8,4,29.7,4c5.1,0,9.3,4,9.5,9.1c0.7-0.2,1.4-0.4,2.2-0.4c3.6,0,6.6,3,6.6,6.6c0,3.6-3,6.6-6.6,6.6
			c-0.2,0-31.5,0-31.5,0C6.6,26,4,23.3,4,20.1C4,16.9,6.6,14.2,9.9,14.2z"/>
	</g>
	<circle fill="#008FBF" cx="25" cy="43" r="2"/>
	<circle fill="#008FBF" cx="19" cy="32" r="2"/>
	<circle fill="#008FBF" cx="10" cy="46" r="2"/>
	<g>
		<path fill="#008FBF" d="M47.3,43.9l-2.1-1.2l1.5-0.4c0.5-0.1,0.8-0.6,0.6-1.1c-0.1-0.5-0.6-0.8-1.1-0.6L43,41.4l-1.2-0.7
			c0.1-0.3,0.1-0.5,0.1-0.8c0-0.2,0-0.5-0.1-0.7l1.2-0.7l3.2,0.9c0.1,0,0.2,0,0.2,0c0.4,0,0.8-0.3,0.9-0.7c0.1-0.5-0.1-1-0.6-1.1
			l-1.5-0.4l2.1-1.2c0.4-0.2,0.6-0.8,0.3-1.2c-0.2-0.4-0.8-0.6-1.2-0.3l-2.1,1.2l0.4-1.6c0.1-0.5-0.2-1-0.7-1.1
			c-0.5-0.1-1,0.2-1.1,0.7L42.1,37L41,37.6c-0.3-0.3-0.7-0.5-1.2-0.7v-1.3l2.4-2.3c0.4-0.3,0.4-0.9,0-1.3c-0.3-0.4-0.9-0.4-1.3,0
			l-1.2,1.1v-2.5c0-0.5-0.4-0.9-0.9-0.9c-0.5,0-0.9,0.4-0.9,0.9v2.5L36.8,32c-0.4-0.3-0.9-0.3-1.3,0c-0.3,0.4-0.3,0.9,0,1.3l2.4,2.3
			V37c-0.5,0.2-0.9,0.4-1.3,0.8l-1-0.6l-0.8-3.3c-0.1-0.5-0.6-0.8-1.1-0.7c-0.5,0.1-0.8,0.6-0.7,1.1l0.4,1.6l-2.1-1.2
			c-0.4-0.2-1-0.1-1.2,0.3c-0.2,0.4-0.1,1,0.3,1.2l2.1,1.2L31,37.9c-0.5,0.1-0.8,0.6-0.6,1.1c0.1,0.4,0.5,0.7,0.9,0.7
			c0.1,0,0.2,0,0.2,0l3.2-0.9l1.1,0.7c0,0.2-0.1,0.3-0.1,0.5c0,0.2,0,0.5,0.1,0.7l-1.2,0.7l-3.2-0.9c-0.5-0.1-1,0.1-1.1,0.6
			c-0.1,0.5,0.1,1,0.6,1.1l1.5,0.4l-2.1,1.2c-0.4,0.2-0.6,0.8-0.3,1.2c0.2,0.3,0.5,0.4,0.8,0.4c0.2,0,0.3,0,0.4-0.1l2.1-1.2
			l-0.4,1.6c-0.1,0.5,0.2,1,0.7,1.1c0.1,0,0.1,0,0.2,0c0.4,0,0.8-0.3,0.9-0.7l0.8-3.3l1.2-0.7c0.3,0.3,0.7,0.5,1.2,0.7v1.3l-2.4,2.3
			c-0.4,0.3-0.4,0.9,0,1.3c0.2,0.2,0.4,0.3,0.6,0.3c0.2,0,0.5-0.1,0.6-0.3l1.2-1.1v2.5c0,0.5,0.4,0.9,0.9,0.9c0.5,0,0.9-0.4,0.9-0.9
			v-2.5l1.2,1.1c0.2,0.2,0.4,0.3,0.6,0.3c0.2,0,0.5-0.1,0.6-0.3c0.3-0.4,0.3-0.9,0-1.3l-2.4-2.3v-1.3c0.4-0.1,0.7-0.3,1-0.6l1.3,0.7
			l0.8,3.3c0.1,0.4,0.5,0.7,0.9,0.7c0.1,0,0.1,0,0.2,0c0.5-0.1,0.8-0.6,0.7-1.1l-0.4-1.6l2.1,1.2c0.1,0.1,0.3,0.1,0.4,0.1
			c0.3,0,0.6-0.2,0.8-0.4C47.9,44.7,47.8,44.1,47.3,43.9z M38.9,41.1c-0.7,0-1.3-0.6-1.3-1.3c0-0.7,0.6-1.3,1.3-1.3
			c0.7,0,1.3,0.6,1.3,1.3C40.2,40.6,39.6,41.1,38.9,41.1z"/>
	</g>
	<path fill="#008FBF" d="M12.5,40L12,39c0.3-0.2,0.5-0.5,0.7-0.8c0.2-0.3,0.3-0.6,0.4-1l1.1,0c0.6,0,1-0.4,1-1c0-0.6-0.4-1-1-1
		l-1.1,0c-0.1-0.7-0.5-1.3-1-1.9l0.6-1c0.3-0.5,0.2-1.1-0.3-1.4s-1.1-0.2-1.4,0.3l-0.6,1c-0.7-0.2-1.4-0.3-2.1-0.1l-0.5-1
		c-0.3-0.5-0.9-0.7-1.3-0.4c-0.5,0.3-0.7,0.9-0.4,1.3l0.5,1c-0.3,0.2-0.5,0.5-0.7,0.8s-0.3,0.6-0.4,1l-1.1,0c-0.6,0-1,0.4-1,1
		c0,0.4,0.2,0.7,0.5,0.9c0.1,0.1,0.3,0.1,0.5,0.2l1.1,0c0.1,0.7,0.5,1.3,1,1.9l-0.6,1c-0.3,0.5-0.2,1.1,0.3,1.4
		c0.5,0.3,1.1,0.2,1.4-0.3l0.6-1c0.7,0.2,1.4,0.3,2.1,0.1l0.5,1c0.1,0.2,0.2,0.3,0.3,0.4c0.3,0.2,0.7,0.2,1,0
		C12.6,41.1,12.8,40.5,12.5,40z M8.2,37.8C7.2,37.2,7,36,7.6,35.1c0.6-0.9,1.8-1.2,2.8-0.6c0.9,0.6,1.2,1.8,0.6,2.8
		C10.3,38.1,9.1,38.4,8.2,37.8z"/>
	<circle fill="#008FBF" cx="45" cy="30" r="1"/>
	<circle fill="#008FBF" cx="18" cy="48" r="1"/>
	<circle fill="#008FBF" cx="19" cy="40" r="1"/>
	<circle fill="#008FBF" cx="28" cy="31" r="1"/>
</g>
</svg>
