<svg height="16.001" width="16" xmlns="http://www.w3.org/2000/svg">
    <g fill="#f1f2f2">
        <path d="M0 10.023L4 6v8z"/>
        <path d="M9.5 8.992L4 9.023v2l5.5-.031c.835-.003 1.5.66 1.5 1.5s-.66 1.5-1.5 1.5H9v2h.5c1.921 0 3.5-1.579 3.5-3.5s-1.574-3.508-3.5-3.5z" style="text-indent:0;text-align:start;line-height:normal;text-transform:none;block-progression:tb;marker:none;-inkscape-font-specification:Sans" font-weight="400" color="#000" overflow="visible" font-family="Sans"/>
        <path d="M12.5 2.992L7 3.023v2l5.5-.031c.835-.003 1.5.66 1.5 1.5s-.66 1.5-1.5 1.5H12v2h.5c1.921 0 3.5-1.579 3.5-3.5s-1.574-3.508-3.5-3.5z" style="text-indent:0;text-align:start;line-height:normal;text-transform:none;block-progression:tb;marker:none;-inkscape-font-specification:Sans" font-weight="400" opacity=".3" color="#000" overflow="visible" font-family="Sans"/>
        <path d="M3 4.023L7 0v8z" opacity=".3"/>
    </g>
</svg>
