<svg xmlns="http://www.w3.org/2000/svg" version="1" viewBox="0 0 16 16">
    <g fill="#f1f2f2">
        <path d="M11.062 1a3.938 3.938 0 0 0-3.937 3.938c.002.283.034.565.096.841L6.5 6.5 4 4H1v3l2.611 2.389L1 12v3h3l1-1h1v-1l.746-.746L9 14.314V13H8v-1H7v-1H6v1H5v1H4v1H2v-2h1v-1h1v-1h1V9H4V8H3V7H2V5h2v1h1v1h1v1h1V7h1V6h.174A3 3 0 0 1 8 5a3 3 0 0 1 3-3 3 3 0 0 1 3 3 3 3 0 0 1-3 3 3 3 0 0 1-1-.176V8H9v1h1l.219-.219A3.937 3.937 0 1 0 11.062 1zM9 9H8v1h1V9z"/>
        <path stroke-linejoin="round" opacity=".2" d="M11 2a3 3 0 0 0-3 3 3 3 0 0 0 .174 1H8v1H7v1H6V7H5V6H4V5H2v2h1v1h1v1h1v1H4v1H3v1H2v2h2v-1h1v-1h1v-1h1v1h1v1h1v1h2v-2h-1v-1H9v-1H8V9h1V8h1v-.176A3 3 0 0 0 11 8a3 3 0 0 0 3-3 3 3 0 0 0-3-3z" stroke-linecap="round" stroke-dasharray="3 1"/>
        <circle stroke-linejoin="round" r="1" cx="11" cy="5" stroke-linecap="round" stroke-dasharray="8.625 2.875" stroke-width="2.875"/>
    </g>
    <path d="M12.5 9.93c-.822 0-1.5.626-1.5 1.385V13h-.5c-.277 0-.5.205-.5.461v2.469h6v-2.469c0-.256-.223-.461-.5-.461H15v-1.685c0-.76-.678-1.385-1.5-1.385zm0 .923h1c.286 0 .5.198.5.462V13h-2v-1.685c0-.264.214-.462.5-.462z" overflow="visible" fill="#f60" color="#f1f2f2"/>
</svg>
