<?xml version="1.0" encoding="UTF-8" standalone="no"?>
<svg id="svg4512" xmlns="http://www.w3.org/2000/svg" height="16" viewBox="0 0 4.2333332 4.2333335" width="16" version="1.1"><rect id="rect4529" style="opacity:.5;fill:#f1f2f2" height=".52917" width="1.0583" y="2.3812" x="2.1167"/><path id="rect4489" style="fill:#f1f2f2" d="m0.52917 0.79375v0.52915h0.26458v1.5875c0 0.29316 0.23601 0.52917 0.52917 0.52917h2.3813v-2.1167c0-0.2931-0.236-0.52915-0.5292-0.52915h-1.3229zm0.79373 0.52915h0.2646v0.69815h-0.0005167v0.62632h1.3245v-0.13488c0 0.00206-0.0009541 0.00366-0.00103 0.00568v-0.1611c0.0003175-0.0001114 0.000716 0.0001121 0.00103 0v-0.3716c0-0.078528-0.055843-0.13488-0.13281-0.13488-0.076223 0-0.13172 0.055464-0.13281 0.13281 8e-7 0.0003519 0 0.0006816 0 0.00103v0.3968h-0.2647v-0.3968c0-0.00142 0.0005019-0.00272 0.0005168-0.00413-0.00181-0.076497-0.056601-0.13126-0.13229-0.13126-0.076965 0-0.13281 0.056347-0.13281 0.13488v0.3973h-0.2645v-0.3968c0-0.21987 0.17701-0.39688 0.39688-0.39688 0.10223 0 0.19437 0.039268 0.26458 0.10232 0.0702-0.063 0.1623-0.1023 0.2645-0.1023 0.2199 0 0.3969 0.177 0.3969 0.3969v0.66146c0 0.14658-0.118 0.26458-0.26458 0.26458h-1.3229c-0.14658 0-0.26458-0.118-0.26458-0.26458v-1.0584z"/></svg>
