<svg xmlns="http://www.w3.org/2000/svg" viewBox="0 0 16 16">
    <g fill="#f1f2f2">
        <path style="text-decoration-line:none;text-transform:none;text-indent:0" d="M5.008 1.824a1 1 0 0 0-.168.014 1 1 0 0 0-.348.133 6.956 6.956 0 0 0-2.545 2.517c-1.94 3.33-.811 7.65 2.518 9.59A6.98 6.98 0 0 0 9 14.949v-2.031a4.973 4.973 0 0 1-3.518-.58 4.982 4.982 0 0 1-1.82-6.805l.028-.027a5.041 5.041 0 0 1 1.82-1.82 1 1 0 0 0-.502-1.862zm6.047.008a1.009 1.009 0 0 0-.537 1.88A4.975 4.975 0 0 1 12.58 10h2.135c.88-3.017-.352-6.381-3.18-8.03a1.009 1.009 0 0 0-.48-.138z"/>
        <path style="text-decoration-line:none;text-transform:none;text-indent:0" font-family="Sans" d="M10.98 7.806a.853 1 0 0 0-.853-.782H5.865a.853 1 0 1 0 0 2h4.262a.853 1 0 0 0 .852-1.218z" overflow="visible" font-weight="400"/>
        <path style="text-decoration-line:none;text-transform:none;text-indent:0" d="M7.773 1.027a6.964 6.964 0 0 0-3.308.946c-3.33 1.94-4.458 6.26-2.518 9.589a6.956 6.956 0 0 0 2.545 2.518 1 1 0 0 0 .348.135 1 1 0 0 0 .67-1.85 5.041 5.041 0 0 1-1.82-1.82l-.028-.027a4.982 4.982 0 0 1 1.82-6.803 4.973 4.973 0 0 1 6.829 1.795 4.975 4.975 0 0 1 .277 4.49h2.121a7.007 7.007 0 0 0-.656-5.51C12.72 2.2 10.261.954 7.773 1.027z"/>
    </g>
    <path d="M11 11h1.375l1.125 1.094L14.593 11H16v1.469l-1.094 1.062L16 14.594V16h-1.438L13.5 14.937 12.437 16H11v-1.406l1.062-1.063L11 12.47z" overflow="visible" fill="#c00" color="#f1f2f2"/>
</svg>
