<?xml version="1.0" encoding="UTF-8" standalone="no"?>
<svg id="svg2" xmlns="http://www.w3.org/2000/svg" viewBox="0 0 16 16" version="1.1"><path id="rect4586" style="fill:#f1f2f2" d="m1 3v6h2v-6h-2zm4 0v10h2v-8h2v2h2v-2h2v2h2v-4h-10zm-4 8v2h2v-2h-2z"/><path id="path4722" class="warning" style="color:#f1f2f2;fill:#5e86d7" overflow="visible" d="m8.875 15.956a0.86 0.86 0 0 1 -0.875 -0.866v-6.195a0.86 0.86 0 0 1 0.875 -0.868h6.25a0.86 0.86 0 0 1 0.875 0.868v6.194a0.86 0.86 0 0 1 -0.875 0.868zm2.125-0.99h2v-3.966h-2zm0-4.957h2v-0.991h-2z"/></svg>
