<svg xmlns="http://www.w3.org/2000/svg" viewBox="0 0 16 16">
    <path style="marker:none" d="M11.5 9c-.822 0-1.5.626-1.5 1.385v1.685h-.5c-.277 0-.5.205-.5.461V15h6v-2.469c0-.256-.223-.461-.5-.461H14v-1.685C14 9.625 13.322 9 12.5 9zm0 .923h1c.286 0 .5.198.5.462v1.685h-2v-1.685c0-.264.214-.462.5-.462z" color="#f1f2f2" overflow="visible" fill="#f60"/>
    <path d="M3.438 1c-1.373 0-2.5 1.101-2.5 2.469v9.062C.938 13.9 2.064 15 3.438 15H8v-1H3.437c-.843 0-1.5-.64-1.5-1.469V3.47c0-.828.657-1.469 1.5-1.469h9.126c.843 0 1.5.64 1.5 1.469V8H15c.022 0 .04.01.063.012V3.469C15.063 2.1 13.934 1 12.563 1z" style="line-height:normal;-inkscape-font-specification:Sans;text-indent:0;text-align:start;text-decoration-line:none;text-transform:none;marker:none" color="#000" font-weight="400" font-family="Sans" overflow="visible" fill="#f1f2f2"/>
</svg>
