<?xml version="1.0" encoding="UTF-8" standalone="no"?>
<svg id="svg12" xmlns="http://www.w3.org/2000/svg" version="1.1" viewBox="0 0 16 16"><path id="path4532" style="fill:#f1f2f2" d="m7.9766 1a7 7 0 0 0 -6.9766 7.0156 7 7 0 0 0 7.0078 6.9844 7 7 0 0 0 6.9922 -7v-0.0312a7 7 0 0 0 -7.0234 -6.9688zm0.0019 1c3.1395-0.0105 6.0075 2.8354 6.0215 5.9746v0.0254c0 3.139-2.853 5.996-5.9922 6s-6.0008-2.847-6.0078-5.9863 2.8393-6.0032 5.9785-6.0137z"/><path id="path4539" style="fill:#f1f2f2" d="m7.9902 4.0137c-1.6553 0.0056-2.9934 1.4003-2.9902 3.1167 0.0019 0.3579-0.1183 0.5334 0 0.8696l2-3 2.5 5c1.127-0.4774 1.499-1.6135 1.5-2.8757v-0.0142c-0.008-1.7164-1.3544-3.102-3.0098-3.0964z"/><path id="path4534" style="fill:#f1f2f2" d="m7 7-3 5-2.9102-2.9102c0.5366 3.4042 3.4715 5.9122 6.918 5.9102 0.80826-0.0034 1.6098-0.14683 2.3691-0.42383z"/></svg>
