<?xml version="1.0" encoding="UTF-8" standalone="no"?>
<svg id="svg4" xmlns="http://www.w3.org/2000/svg" version="1.1" viewBox="0 0 16 16"><path id="path4519" style="fill:#f1f2f2" d="m8.7559 5c-0.4188 0-0.7559 0.3371-0.7559 0.7559v4.4881c0 0.419 0.3371 0.756 0.7559 0.756h5.4881c0.419 0 0.756-0.337 0.756-0.756v-4.4881c0-0.4188-0.337-0.7559-0.756-0.7559zm0.2441 1h5v4h-5v-3z"/><rect id="rect4525" style="opacity:.7;fill:#f1f2f2" ry=".37795" height="2" width="3" y="7" x="10"/><g id="g4589" style="opacity:.5"><path id="path4562" d="m2.7559 5c-0.4188 0-0.7559 0.3371-0.7559 0.7559v3.4882c0 0.4188 0.3371 0.7559 0.7559 0.7559h4.4882c0.4188 0 0.7559-0.3371 0.7559-0.7559v-3.4882c0-0.4188-0.3371-0.7559-0.7559-0.7559h-1.2441zm0.8105 1h2.8672c0.3141 0 0.5664 0.2523 0.5664 0.5664v1.8672c0 0.3141-0.2523 0.5664-0.5664 0.5664h-2.8672c-0.3141 0-0.5664-0.2523-0.5664-0.5664v-1.8672c0-0.3141 0.2523-0.5664 0.5664-0.5664z" style="opacity:1;fill:#f1f2f2"/><rect id="rect4566" style="opacity:.7;fill:#f1f2f2" ry=".18898" height="1" width="2" y="7" x="4"/></g></svg>
