/* XPM */
static char * maximize_active_xpm[] = {
"37 31 3 1",
" 	c None",
".	c #F53155",
"+	c #FFFFFF",
".....................................",
".....................................",
".....................................",
".....................................",
".....................................",
".....................................",
".....................................",
".....................................",
".....................................",
".....................................",
".............+++++++++++.............",
".............+.........+.............",
".............+.........+.............",
".............+.........+.............",
".............+.........+.............",
".............+.........+.............",
".............+.........+.............",
".............+.........+.............",
".............+.........+.............",
".............+.........+.............",
".............+++++++++++.............",
".....................................",
".....................................",
".....................................",
".....................................",
".....................................",
".....................................",
".....................................",
".....................................",
".....................................",
"....................................."};
