<?xml version="1.0" encoding="utf-8"?>
<!-- Generator: Adobe Illustrator 19.1.0, SVG Export Plug-In . SVG Version: 6.00 Build 0)  -->
<!DOCTYPE svg PUBLIC "-//W3C//DTD SVG 1.1//EN" "http://www.w3.org/Graphics/SVG/1.1/DTD/svg11.dtd">
<svg version="1.1" id="Layer_1" xmlns="http://www.w3.org/2000/svg" xmlns:xlink="http://www.w3.org/1999/xlink" x="0px" y="0px"
	 viewBox="0 0 52 52" enable-background="new 0 0 52 52" xml:space="preserve">
<g>
	<path id="XMLID_24_" fill="#FF8833" d="M8.5,18.6c0.6-0.6,1.2-1.1,1.9-1.6c-1.4-2-1.8-4.6-0.8-6.9c1.2-2.7,3.8-4.4,6.6-4.4
		c0.9,0,1.9,0.2,2.8,0.6c2.1,0.9,3.5,2.6,4.1,4.6c1.2-1.3,2.7-2.3,4.4-3l-5.1-1L21.2,1l-5,3.3L11.3,1l-1.2,5.8L4.3,7.9l3.3,5
		l-3.4,4.9L8.5,18.6z"/>
	<g id="XMLID_20_">
		<path fill="#FFB92F" d="M13.2,16c1.4-3,4.4-5,7.8-5.2c-0.5-1.2-1.4-2.2-2.7-2.7c-0.6-0.3-1.3-0.4-2-0.4c-2.1,0-4,1.2-4.8,3.2
			c-0.8,1.9-0.4,3.9,0.9,5.4C12.6,16.1,12.9,16,13.2,16z"/>
	</g>
	<path id="XMLID_17_" fill="#15AADC" d="M23.2,49.6c-0.2,0-0.3,0-0.5-0.1c-0.6-0.3-0.9-1-0.6-1.6l6-13.1c0.3-0.6,1-0.9,1.6-0.6
		c0.6,0.3,0.9,1,0.6,1.6l-6,13.1C24.1,49.3,23.7,49.6,23.2,49.6z"/>
	<path id="XMLID_15_" fill="#15AADC" d="M31.3,45.4c-0.2,0-0.4,0-0.5-0.1c-0.6-0.3-0.8-1-0.5-1.6l2.4-4.8c0.3-0.6,1-0.8,1.6-0.5
		c0.6,0.3,0.8,1,0.5,1.6l-2.4,4.8C32.2,45.2,31.8,45.4,31.3,45.4z"/>
	<path id="XMLID_14_" fill="#15AADC" d="M18.7,45.4c-0.2,0-0.4,0-0.5-0.1c-0.6-0.3-0.8-1-0.5-1.6l2.4-4.8c0.3-0.6,1-0.8,1.6-0.5
		c0.6,0.3,0.8,1,0.5,1.6l-2.4,4.8C19.6,45.2,19.2,45.4,18.7,45.4z"/>
	<path id="XMLID_12_" fill="#15AADC" d="M10.7,49.6c-0.2,0-0.3,0-0.5-0.1c-0.6-0.3-0.9-1-0.6-1.6l6-13.1c0.3-0.6,1-0.9,1.6-0.6
		c0.6,0.3,0.9,1,0.6,1.6l-6,13.1C11.5,49.3,11.1,49.6,10.7,49.6z"/>
	<path id="XMLID_7_" fill="#15AADC" d="M35.9,49.6c-0.2,0-0.3,0-0.5-0.1c-0.6-0.3-0.9-1-0.6-1.6l6-13.1c0.3-0.6,1-0.9,1.6-0.6
		c0.6,0.3,0.9,1,0.6,1.6l-6,13.1C36.8,49.3,36.3,49.6,35.9,49.6z"/>
	<g>
		<path fill="#E6E6E6" d="M15.1,19.8c0.4,0,0.9,0.1,1.3,0.2c0-0.1,0-0.1,0-0.2c0-2.8,2.3-5,5.1-5c1.2,0,2.3,0.4,3.2,1.1
			c1.3-2.9,4.2-4.9,7.6-4.9c4.4,0,8.1,3.5,8.2,7.9c0.6-0.2,1.2-0.3,1.9-0.3c3.1,0,5.7,2.6,5.7,5.7c0,3.1-2.6,5.7-5.7,5.7
			c-0.2,0-27.2,0-27.2,0c-2.8,0-5.1-2.3-5.1-5.1C10,22.1,12.3,19.8,15.1,19.8z"/>
	</g>
	<path fill="#A3A3A3" d="M32.2,11c4.4,0,8.1,3.5,8.2,7.9c0.6-0.2,1.2-0.3,1.9-0.3c3.1,0,5.7,2.6,5.7,5.7S45.4,30,42.3,30
		c-0.2,0-27.2,0-27.2,0c-2.8,0-5.1-2.3-5.1-5.1s2.3-5.1,5.1-5.1c0.4,0,0.9,0.1,1.3,0.2c0-0.1,0-0.1,0-0.2c0-2.8,2.3-5,5.1-5
		c1.2,0,2.3,0.4,3.2,1.1C25.9,13,28.8,11,32.2,11 M32.2,9L32.2,9c-3.3,0-6.4,1.6-8.3,4.2c-0.8-0.3-1.6-0.4-2.5-0.4
		c-3.2,0-5.9,2.1-6.8,5C10.9,18,8,21.1,8,24.9c0,3.9,3.2,7.1,7.1,7.1h27.2c4.2,0,7.7-3.5,7.7-7.7c0-4.3-3.5-7.7-7.7-7.7
		c-0.1,0-0.2,0-0.2,0C40.9,12.2,36.9,9,32.2,9L32.2,9L32.2,9z"/>
</g>
</svg>
