<?xml version="1.0" encoding="utf-8"?>
<!-- Generator: Adobe Illustrator 19.1.0, SVG Export Plug-In . SVG Version: 6.00 Build 0)  -->
<!DOCTYPE svg PUBLIC "-//W3C//DTD SVG 1.1//EN" "http://www.w3.org/Graphics/SVG/1.1/DTD/svg11.dtd">
<svg version="1.1" id="Layer_1" xmlns="http://www.w3.org/2000/svg" xmlns:xlink="http://www.w3.org/1999/xlink" x="0px" y="0px"
	 viewBox="0 0 52 52" enable-background="new 0 0 52 52" xml:space="preserve">
<g>
	<path fill="#A3A3A3" d="M30.7,24.2l0.5-1.2h1.3H44h3.1l-1.3,2.8l-1.7,3.8h3.4h1c0.8-1.2,1.3-2.7,1.3-4.3c0-4.2-3.4-7.7-7.7-7.7
		c-0.1,0-0.2,0-0.2,0c-1.2-4.4-5.1-7.5-9.9-7.5c-3.3,0-6.4,1.6-8.3,4.2c-0.8-0.3-1.6-0.4-2.5-0.4c-3.2,0-5.9,2.1-6.8,5
		C10.9,19.1,8,22.1,8,25.9c0,3.9,3.2,7.1,7,7.1h11.6L30.7,24.2z"/>
	<path fill="#FF8833" d="M8.5,19.7c0.6-0.6,1.2-1.1,1.9-1.6c-1.4-2-1.8-4.6-0.8-6.9c1.2-2.7,3.8-4.4,6.6-4.4c0.9,0,1.9,0.2,2.8,0.6
		c2.1,0.9,3.5,2.6,4.1,4.6c1.2-1.3,2.7-2.3,4.4-3l-5.1-1l-1.1-5.9l-5,3.3L11.3,2l-1.2,5.8L4.3,8.9l3.3,5l-3.4,4.9L8.5,19.7z"/>
	<path fill="#15AADC" d="M12,50c-0.2,0-0.3,0-0.4-0.1c-0.5-0.2-0.7-0.8-0.4-1.3l5-10c0.2-0.5,0.8-0.7,1.3-0.4
		c0.5,0.2,0.7,0.8,0.4,1.3l-5,10C12.7,49.8,12.4,50,12,50z"/>
	<path fill="#15AADC" d="M4,50c-0.2,0-0.3,0-0.4-0.1c-0.5-0.2-0.7-0.8-0.4-1.3l5-10c0.2-0.5,0.8-0.7,1.3-0.4
		c0.5,0.2,0.7,0.8,0.4,1.3l-5,10C4.7,49.8,4.4,50,4,50z"/>
	<path fill="#15AADC" d="M4,42c-0.2,0-0.3,0-0.4-0.1c-0.5-0.2-0.7-0.8-0.4-1.3l4-8c0.2-0.5,0.8-0.7,1.3-0.4c0.5,0.2,0.7,0.8,0.4,1.3
		l-4,8C4.7,41.8,4.4,42,4,42z"/>
	<g>
		<polygon fill="#FFB92F" points="47.5,31.6 41,31.6 44,25 32.5,25 27,37 33.5,37 28,50 		"/>
	</g>
	<path fill="#15AADC" d="M26,39h-2.1l-4.8,9.6c-0.2,0.5,0,1.1,0.4,1.3C19.7,50,19.8,50,20,50c0.4,0,0.7-0.2,0.9-0.6l5-10
		C26,39.3,26,39.2,26,39z"/>
	<g>
		<path fill="#E6E6E6" d="M30.7,24.2l0.5-1.2h1.3H44h3.1l-1.3,2.8l-1.7,3.8h1.7c1.2-1.1,2-2.6,2-4.3c0-3.1-2.5-5.7-5.7-5.7
			c-0.7,0-1.3,0.1-1.9,0.3c-0.2-4.4-3.8-7.8-8.2-7.8c-3.4,0-6.3,2-7.5,4.9c-0.9-0.7-2-1.1-3.2-1.1c-2.8,0-5,2.2-5,5
			c0,0.1,0,0.1,0,0.2c-0.4-0.1-0.8-0.2-1.3-0.2c-2.8,0-5,2.3-5,5.1s2.3,5.1,5,5.1c0,0,6.1,0,12.5,0L30.7,24.2z"/>
	</g>
	<g>
		<path fill="#FFB92F" d="M12.2,17.3c0.3-0.1,0.6-0.2,0.9-0.2c1.4-3,4.4-5,7.7-5.2c-0.5-1.1-1.4-2.1-2.7-2.6c-0.6-0.3-1.3-0.4-2-0.4
			c-2.1,0-4,1.2-4.8,3.2c-0.5,1.3-0.5,2.7,0,4C11.6,16.4,11.9,16.9,12.2,17.3z"/>
	</g>
	<path fill="#15AADC" d="M13.9,35l-2.8,5.6c-0.2,0.5,0,1.1,0.4,1.3C11.7,42,11.8,42,12,42c0.4,0,0.7-0.2,0.9-0.6l3.2-6.4H13.9z"/>
	<path fill="#15AADC" d="M21.9,35l-2.8,5.6c-0.2,0.5,0,1.1,0.4,1.3C19.7,42,19.8,42,20,42c0.4,0,0.7-0.2,0.9-0.6l3.2-6.4H21.9z"/>
</g>
</svg>
