<?xml version="1.0" encoding="utf-8"?>
<!-- Generator: Adobe Illustrator 19.1.0, SVG Export Plug-In . SVG Version: 6.00 Build 0)  -->
<!DOCTYPE svg PUBLIC "-//W3C//DTD SVG 1.1//EN" "http://www.w3.org/Graphics/SVG/1.1/DTD/svg11.dtd">
<svg version="1.1" id="Layer_1" xmlns="http://www.w3.org/2000/svg" xmlns:xlink="http://www.w3.org/1999/xlink" x="0px" y="0px"
	 viewBox="0 0 52 52" enable-background="new 0 0 52 52" xml:space="preserve">
<g id="XMLID_2_">
	<path id="XMLID_28_" fill="#FF8833" d="M41.1,26l8.9-7.4l-11.8-1l2.6-11l-10.2,5.7L26,2l-4.7,10.3L11.2,6.6l2.6,11L2,18.6l8.9,7.4
		L2,33.4l11.8,1l-2.6,11l10.2-5.7L26,50l4.7-10.3l10.2,5.7l-2.6-11l11.8-1L41.1,26z M26,39c-7.2,0-13-5.8-13-13s5.8-13,13-13
		s13,5.8,13,13S33.2,39,26,39z"/>
	<path id="XMLID_27_" fill="#FFB92F" d="M26,15c-6.1,0-11,4.9-11,11s4.9,11,11,11s11-4.9,11-11S32.1,15,26,15z"/>
</g>
</svg>
