<?xml version="1.0" encoding="utf-8"?>
<!-- Generator: Adobe Illustrator 19.1.0, SVG Export Plug-In . SVG Version: 6.00 Build 0)  -->
<!DOCTYPE svg PUBLIC "-//W3C//DTD SVG 1.1//EN" "http://www.w3.org/Graphics/SVG/1.1/DTD/svg11.dtd">
<svg version="1.1" id="Layer_1" xmlns="http://www.w3.org/2000/svg" xmlns:xlink="http://www.w3.org/1999/xlink" x="0px" y="0px"
	 viewBox="0 0 52 52" enable-background="new 0 0 52 52" xml:space="preserve">
<g>
	<g>
		<path fill="#E6E6E6" d="M12.1,24.8c0.4,0,0.9,0.1,1.3,0.2c0-0.1,0-0.1,0-0.2c0-2.8,2.3-5,5.1-5c1.2,0,2.3,0.4,3.2,1.1
			c1.3-2.9,4.2-4.9,7.6-4.9c4.4,0,8.1,3.5,8.2,7.9c0.6-0.2,1.2-0.3,1.9-0.3c3.1,0,5.7,2.6,5.7,5.7c0,3.1-2.6,5.7-5.7,5.7
			c-0.2,0-27.2,0-27.2,0C9.3,35,7,32.7,7,29.9C7,27.1,9.3,24.8,12.1,24.8z"/>
	</g>
	<g>
		<path fill="#A3A3A3" d="M29.2,16c4.4,0,8.1,3.5,8.2,7.9c0.6-0.2,1.2-0.3,1.9-0.3c3.1,0,5.7,2.6,5.7,5.7S42.4,35,39.3,35
			c-0.2,0-27.2,0-27.2,0C9.3,35,7,32.7,7,29.9s2.3-5.1,5.1-5.1c0.4,0,0.9,0.1,1.3,0.2c0-0.1,0-0.1,0-0.2c0-2.8,2.3-5,5.1-5
			c1.2,0,2.3,0.4,3.2,1.1C22.9,18,25.8,16,29.2,16 M29.2,14L29.2,14c-3.3,0-6.4,1.6-8.3,4.2c-0.8-0.3-1.6-0.4-2.5-0.4
			c-3.2,0-5.9,2.1-6.8,5C7.9,23,5,26.1,5,29.9c0,3.9,3.2,7.1,7.1,7.1h27.2c4.2,0,7.7-3.5,7.7-7.7c0-4.3-3.5-7.7-7.7-7.7
			c-0.1,0-0.2,0-0.2,0C37.9,17.2,33.9,14,29.2,14L29.2,14L29.2,14z"/>
	</g>
</g>
</svg>
