<?xml version="1.0" encoding="utf-8"?>
<!-- Generator: Adobe Illustrator 19.1.0, SVG Export Plug-In . SVG Version: 6.00 Build 0)  -->
<!DOCTYPE svg PUBLIC "-//W3C//DTD SVG 1.1//EN" "http://www.w3.org/Graphics/SVG/1.1/DTD/svg11.dtd">
<svg version="1.1" id="Layer_1" xmlns="http://www.w3.org/2000/svg" xmlns:xlink="http://www.w3.org/1999/xlink" x="0px" y="0px"
	 viewBox="0 0 52 52" enable-background="new 0 0 52 52" xml:space="preserve">
<g>
	<g>
		<path fill="#8ED1E9" d="M47.1,16.9c-6.5,0-11.7-5.2-11.7-11.7c0-1.1,0.2-2.2,0.5-3.2c-4.3,1.1-7.6,4.6-8.5,9
			c3.5,0.9,6.5,3.4,7.8,6.7c3.6,0.5,6.6,3.1,7.6,6.6c3.5-1.3,6.3-4.2,7.3-7.8C49.1,16.8,48.1,16.9,47.1,16.9z"/>
	</g>
	<path fill="#008FBF" d="M47.1,16.9c-6.5,0-11.7-5.2-11.7-11.7c0-1.1,0.2-2.2,0.5-3.2c-4.3,1.1-7.6,4.6-8.5,9
		c0.7,0.2,1.3,0.4,1.9,0.7c0.5-2.6,2-4.9,4.2-6.4c0,7.4,6,13.4,13.3,13.6c-1.2,1.7-2.9,2.9-4.8,3.6c0.3,0.6,0.6,1.2,0.8,1.9
		c3.5-1.3,6.3-4.2,7.3-7.8C49.1,16.8,48.1,16.9,47.1,16.9z"/>
	<circle fill="#008FBF" cx="21" cy="38" r="2"/>
	<circle fill="#008FBF" cx="16.1" cy="48" r="2"/>
	<circle fill="#008FBF" cx="24.1" cy="49" r="1"/>
	<circle fill="#008FBF" cx="3" cy="49" r="1"/>
	<circle fill="#008FBF" cx="20" cy="44" r="1"/>
	<g>
		<g>
			<path fill="#008FBF" d="M44.6,43.9l-2.1-1.2l1.5-0.4c0.5-0.1,0.8-0.6,0.6-1.1c-0.1-0.5-0.6-0.8-1.1-0.6l-3.2,0.9l-1.2-0.7
				c0.1-0.3,0.1-0.5,0.1-0.8c0-0.2,0-0.5-0.1-0.7l1.2-0.7l3.2,0.9c0.1,0,0.2,0,0.2,0c0.4,0,0.8-0.3,0.9-0.7c0.1-0.5-0.1-1-0.6-1.1
				l-1.5-0.4l2.1-1.2c0.4-0.2,0.6-0.8,0.3-1.2c-0.2-0.4-0.8-0.6-1.2-0.3l-2.1,1.2l0.4-1.6c0.1-0.5-0.2-1-0.7-1.1
				c-0.5-0.1-1,0.2-1.1,0.7L39.4,37l-1.2,0.7c-0.3-0.3-0.7-0.5-1.2-0.7v-1.3l2.4-2.3c0.4-0.3,0.4-0.9,0-1.3c-0.3-0.4-0.9-0.4-1.3,0
				l-1.2,1.1v-2.5c0-0.5-0.4-0.9-0.9-0.9c-0.5,0-0.9,0.4-0.9,0.9v2.5L34.2,32c-0.4-0.3-0.9-0.3-1.3,0c-0.3,0.4-0.3,0.9,0,1.3
				l2.4,2.3V37c-0.5,0.2-0.9,0.4-1.3,0.8l-1-0.6l-0.8-3.3c-0.1-0.5-0.6-0.8-1.1-0.7c-0.5,0.1-0.8,0.6-0.7,1.1l0.4,1.6l-2.1-1.2
				c-0.4-0.2-1-0.1-1.2,0.3c-0.2,0.4-0.1,1,0.3,1.2l2.1,1.2l-1.5,0.4c-0.5,0.1-0.8,0.6-0.6,1.1c0.1,0.4,0.5,0.7,0.9,0.7
				c0.1,0,0.2,0,0.2,0l3.2-0.9l1.1,0.7c0,0.2-0.1,0.3-0.1,0.5c0,0.2,0,0.5,0.1,0.7l-1.2,0.7l-3.2-0.9c-0.5-0.1-1,0.1-1.1,0.6
				c-0.1,0.5,0.1,1,0.6,1.1l1.5,0.4l-2.1,1.2c-0.4,0.2-0.6,0.8-0.3,1.2c0.2,0.3,0.5,0.4,0.8,0.4c0.2,0,0.3,0,0.4-0.1l2.1-1.2
				l-0.4,1.6c-0.1,0.5,0.2,1,0.7,1.1c0.1,0,0.1,0,0.2,0c0.4,0,0.8-0.3,0.9-0.7l0.8-3.3l1.2-0.7c0.3,0.3,0.7,0.5,1.2,0.7v1.3
				l-2.4,2.3c-0.4,0.3-0.4,0.9,0,1.3c0.2,0.2,0.4,0.3,0.6,0.3c0.2,0,0.5-0.1,0.6-0.3l1.2-1.1v2.5c0,0.5,0.4,0.9,0.9,0.9
				c0.5,0,0.9-0.4,0.9-0.9v-2.5l1.2,1.1c0.2,0.2,0.4,0.3,0.6,0.3c0.2,0,0.5-0.1,0.6-0.3c0.3-0.4,0.3-0.9,0-1.3l-2.4-2.3v-1.3
				c0.4-0.1,0.7-0.3,1-0.6l1.3,0.7l0.8,3.3c0.1,0.4,0.5,0.7,0.9,0.7c0.1,0,0.1,0,0.2,0c0.5-0.1,0.8-0.6,0.7-1.1l-0.4-1.6l2.1,1.2
				c0.1,0.1,0.3,0.1,0.4,0.1c0.3,0,0.6-0.2,0.8-0.4C45.2,44.7,45.1,44.1,44.6,43.9z M36.2,41.1c-0.7,0-1.3-0.6-1.3-1.3
				c0-0.7,0.6-1.3,1.3-1.3c0.7,0,1.3,0.6,1.3,1.3C37.5,40.6,36.9,41.1,36.2,41.1z"/>
		</g>
	</g>
	<path fill="#008FBF" d="M12.2,45.4l-0.5-1c0.3-0.2,0.5-0.5,0.7-0.8c0.2-0.3,0.3-0.6,0.4-1l1.1,0c0.6,0,1-0.4,1-1c0-0.6-0.4-1-1-1
		l-1.1,0c-0.1-0.7-0.5-1.3-1-1.9l0.6-1c0.3-0.5,0.2-1.1-0.3-1.4c-0.5-0.3-1.1-0.2-1.4,0.3l-0.6,1c-0.7-0.2-1.4-0.3-2.1-0.1l-0.5-1
		c-0.3-0.5-0.9-0.7-1.3-0.4c-0.5,0.3-0.7,0.9-0.4,1.3l0.5,1c-0.3,0.2-0.5,0.5-0.7,0.8c-0.2,0.3-0.3,0.6-0.4,1l-1.1,0
		c-0.6,0-1,0.4-1,1c0,0.4,0.2,0.7,0.5,0.9c0.1,0.1,0.3,0.1,0.5,0.2l1.1,0c0.1,0.7,0.5,1.3,1,1.9l-0.6,1c-0.3,0.5-0.2,1.1,0.3,1.4
		c0.5,0.3,1.1,0.2,1.4-0.3l0.6-1c0.7,0.2,1.4,0.3,2.1,0.1l0.5,1c0.1,0.2,0.2,0.3,0.3,0.4c0.3,0.2,0.7,0.2,1,0
		C12.3,46.5,12.5,45.9,12.2,45.4z M7.8,43.3c-0.9-0.6-1.2-1.8-0.6-2.8c0.6-0.9,1.8-1.2,2.8-0.6c0.9,0.6,1.2,1.8,0.6,2.8
		C10,43.6,8.8,43.9,7.8,43.3z"/>
	<path fill="#A3A3A3" d="M25.7,34l3.1-1.8c-7.4,0-20.2,0-20.2,0c-2.6,0-4.7-2.2-4.7-4.7c0-2.6,2.1-4.7,4.7-4.7
		c0.4,0,0.8,0.1,1.2,0.2c0-0.1,0-0.1,0-0.2c0-2.6,2.1-4.7,4.7-4.7c1.1,0,2.2,0.4,3,1.1c1.2-2.7,3.9-4.6,7-4.6c4.1,0,7.5,3.2,7.6,7.3
		c0.6-0.2,1.1-0.3,1.8-0.3c2.9,0,5.3,2.4,5.3,5.3c0,0.8-0.2,1.6-0.5,2.3l1.8,1c0.5-1,0.8-2.1,0.8-3.3c0-4-3.3-7.3-7.3-7.3
		c0,0-0.1,0-0.1,0c-1.1-4.1-4.9-7-9.3-7c-3.1,0-6,1.5-7.8,3.9C16,16.1,15.2,16,14.4,16c-3,0-5.6,2-6.4,4.7c-3.5,0.3-6.2,3.2-6.2,6.7
		c0,3.7,3,6.7,6.7,6.7h17.1C25.7,34,25.7,34,25.7,34z"/>
	<g>
		<path fill="#E6E6E6" d="M36.2,27.7l2.4,1.4c0.3-0.7,0.5-1.5,0.5-2.3c0-2.9-2.4-5.3-5.3-5.3c-0.6,0-1.2,0.1-1.8,0.3
			c-0.1-4.1-3.5-7.3-7.6-7.3c-3.1,0-5.8,1.9-7,4.6c-0.8-0.7-1.9-1.1-3-1.1c-2.6,0-4.7,2.1-4.7,4.7c0,0.1,0,0.1,0,0.2
			c-0.4-0.1-0.8-0.2-1.2-0.2c-2.6,0-4.7,2.2-4.7,4.7c0,2.6,2.1,4.7,4.7,4.7c0,0,12.9,0,20.2,0L36.2,27.7z"/>
	</g>
</g>
</svg>
