<?xml version="1.0" encoding="utf-8"?>
<!-- Generator: Adobe Illustrator 19.1.0, SVG Export Plug-In . SVG Version: 6.00 Build 0)  -->
<!DOCTYPE svg PUBLIC "-//W3C//DTD SVG 1.1//EN" "http://www.w3.org/Graphics/SVG/1.1/DTD/svg11.dtd">
<svg version="1.1" id="Layer_1" xmlns="http://www.w3.org/2000/svg" xmlns:xlink="http://www.w3.org/1999/xlink" x="0px" y="0px"
	 viewBox="0 0 52 52" enable-background="new 0 0 52 52" xml:space="preserve">
<g>
	<g>
		<path fill="#8ED1E9" d="M35.1,17.7c3.2,0.4,5.8,2.5,7.1,5.3h3.1c2.3-1.5,4-3.8,4.7-6.5c-0.9,0.2-1.9,0.4-2.9,0.4
			c-6.5,0-11.7-5.2-11.7-11.7c0-1.1,0.2-2.2,0.5-3.2c-4.3,1.1-7.6,4.6-8.5,9C30.8,11.9,33.7,14.4,35.1,17.7z"/>
	</g>
	<g>
		<polygon fill="#FFB92F" points="49,31.6 42.4,31.6 45.5,25 34,25 28.5,37 35,37 29.5,50 		"/>
	</g>
	<path fill="#15AADC" d="M5.6,35.5l-2.5,5.1c-0.2,0.5,0,1.1,0.4,1.3C3.7,42,3.8,42,4,42c0.4,0,0.7-0.2,0.9-0.6l2.7-5.5
		C6.9,35.9,6.3,35.7,5.6,35.5z"/>
	<path fill="#15AADC" d="M17.4,38.1c-0.5-0.2-1.1,0-1.3,0.4l-5,10c-0.2,0.5,0,1.1,0.4,1.3C11.7,50,11.8,50,12,50
		c0.4,0,0.7-0.2,0.9-0.6l5-10C18.1,39,17.9,38.4,17.4,38.1z"/>
	<path fill="#15AADC" d="M9.4,38.1c-0.5-0.2-1.1,0-1.3,0.4l-5,10c-0.2,0.5,0,1.1,0.4,1.3C3.7,50,3.8,50,4,50c0.4,0,0.7-0.2,0.9-0.6
		l5-10C10.1,39,9.9,38.4,9.4,38.1z"/>
	<path fill="#15AADC" d="M25.4,38.1c-0.5-0.2-1.1,0-1.3,0.4l-5,10c-0.2,0.5,0,1.1,0.4,1.3C19.7,50,19.8,50,20,50
		c0.4,0,0.7-0.2,0.9-0.6l5-10C26.1,39,25.9,38.4,25.4,38.1z"/>
	<path fill="#15AADC" d="M13.4,36l-2.3,4.6c-0.2,0.5,0,1.1,0.4,1.3C11.7,42,11.8,42,12,42c0.4,0,0.7-0.2,0.9-0.6l2.7-5.4H13.4z"/>
	<path fill="#15AADC" d="M21.4,36l-2.3,4.6c-0.2,0.5,0,1.1,0.4,1.3C19.7,42,19.8,42,20,42c0.4,0,0.7-0.2,0.9-0.6l2.7-5.4H21.4z"/>
	<path fill="#008FBF" d="M29.2,11.7c0.5-2.6,2-4.9,4.2-6.4c0,7.4,6,13.4,13.3,13.6c-1.2,1.7-2.9,2.9-4.8,3.6
		c0.1,0.2,0.2,0.4,0.3,0.5h3.1c2.3-1.5,4-3.8,4.7-6.5c-0.9,0.2-1.9,0.4-2.9,0.4c-6.5,0-11.7-5.2-11.7-11.7c0-1.1,0.2-2.2,0.5-3.2
		c-4.3,1.1-7.6,4.6-8.5,9C27.9,11.2,28.5,11.4,29.2,11.7z"/>
	<g>
		<path fill="#E6E6E6" d="M32.2,24.2l0.5-1.2H34h3.5c-1-0.9-2.2-1.5-3.7-1.5c-0.6,0-1.2,0.1-1.8,0.3c-0.1-4.1-3.5-7.3-7.6-7.3
			c-3.1,0-5.8,1.9-7,4.6c-0.8-0.7-1.9-1.1-3-1.1c-2.6,0-4.7,2.1-4.7,4.7c0,0.1,0,0.1,0,0.2c-0.4-0.1-0.8-0.2-1.2-0.2
			c-2.6,0-4.7,2.2-4.7,4.7c0,2.6,2.1,4.7,4.7,4.7c0,0,12.5,0,19.9,0L32.2,24.2z"/>
	</g>
	<path fill="#A3A3A3" d="M28.5,32.1c-7.4,0-19.9,0-19.9,0c-2.6,0-4.7-2.2-4.7-4.7c0-2.6,2.1-4.7,4.7-4.7c0.4,0,0.8,0.1,1.2,0.2
		c0-0.1,0-0.1,0-0.2c0-2.6,2.1-4.7,4.7-4.7c1.1,0,2.2,0.4,3,1.1c1.2-2.7,3.9-4.6,7-4.6c4.1,0,7.5,3.2,7.6,7.3
		c0.6-0.2,1.1-0.3,1.8-0.3c1.4,0,2.7,0.6,3.7,1.5h2.6c-1.3-2.1-3.6-3.5-6.2-3.5c0,0-0.1,0-0.1,0c-1.1-4.1-4.9-7-9.3-7
		c-3.1,0-6,1.5-7.8,3.9C16,16.1,15.2,16,14.4,16c-3,0-5.6,2-6.4,4.7c-3.5,0.3-6.2,3.2-6.2,6.7c0,3.7,3,6.7,6.7,6.7h19L28.5,32.1z"/>
</g>
</svg>
