<?xml version="1.0" encoding="utf-8"?>
<!-- Generator: Adobe Illustrator 19.1.0, SVG Export Plug-In . SVG Version: 6.00 Build 0)  -->
<!DOCTYPE svg PUBLIC "-//W3C//DTD SVG 1.1//EN" "http://www.w3.org/Graphics/SVG/1.1/DTD/svg11.dtd">
<svg version="1.1" id="Layer_1" xmlns="http://www.w3.org/2000/svg" xmlns:xlink="http://www.w3.org/1999/xlink" x="0px" y="0px"
	 viewBox="0 0 52 52" enable-background="new 0 0 52 52" xml:space="preserve">
<g>
	<polygon fill="#15AADC" points="9,30 14,40 19,32 26,50 33,32 38,40 43,30 	"/>
	<g>
		<path fill="#E6E6E6" d="M9.9,14.2c0.5,0,1,0.1,1.5,0.2c0-0.1,0-0.1,0-0.2c0-3.2,2.6-5.8,5.9-5.8c1.4,0,2.7,0.5,3.7,1.3
			C22.4,6.3,25.8,4,29.7,4c5.1,0,9.3,4,9.5,9.1c0.7-0.2,1.4-0.4,2.2-0.4c3.6,0,6.6,3,6.6,6.6c0,3.6-3,6.6-6.6,6.6
			c-0.2,0-31.5,0-31.5,0C6.6,26,4,23.3,4,20.1C4,16.9,6.6,14.2,9.9,14.2z"/>
	</g>
	<path fill="#A3A3A3" d="M29.7,4c5.1,0,9.3,4,9.5,9.1c0.7-0.2,1.4-0.4,2.2-0.4c3.6,0,6.6,3,6.6,6.6c0,3.6-3,6.6-6.6,6.6
		c-0.2,0-31.5,0-31.5,0C6.6,26,4,23.3,4,20.1s2.6-5.9,5.9-5.9c0.5,0,1,0.1,1.5,0.2c0-0.1,0-0.1,0-0.2c0-3.2,2.6-5.8,5.9-5.8
		c1.4,0,2.7,0.5,3.7,1.3C22.4,6.3,25.8,4,29.7,4 M29.7,2c-3.8,0-7.4,1.9-9.5,4.9c-0.9-0.4-2-0.6-3-0.6c-3.6,0-6.7,2.5-7.6,5.8
		C5.4,12.3,2,15.8,2,20.1C2,24.5,5.5,28,9.9,28h31.5c4.7,0,8.6-3.9,8.6-8.6s-3.9-8.6-8.6-8.6c-0.2,0-0.3,0-0.5,0
		C39.7,5.7,35.1,2,29.7,2L29.7,2z"/>
</g>
</svg>
