<?xml version="1.0" encoding="utf-8"?>
<!-- Generator: Adobe Illustrator 19.1.0, SVG Export Plug-In . SVG Version: 6.00 Build 0)  -->
<!DOCTYPE svg PUBLIC "-//W3C//DTD SVG 1.1//EN" "http://www.w3.org/Graphics/SVG/1.1/DTD/svg11.dtd">
<svg version="1.1" id="Layer_1" xmlns="http://www.w3.org/2000/svg" xmlns:xlink="http://www.w3.org/1999/xlink" x="0px" y="0px"
	 viewBox="0 0 52 52" enable-background="new 0 0 52 52" xml:space="preserve">
<g>
	<path fill="#15AADC" d="M11.5,46.8c-0.1,0-0.3,0-0.4-0.1c-0.5-0.2-0.7-0.8-0.4-1.3l5-10c0.2-0.5,0.8-0.7,1.3-0.4
		c0.5,0.2,0.7,0.8,0.4,1.3l-5,10C12.2,46.5,11.9,46.8,11.5,46.8z"/>
	<path fill="#15AADC" d="M3.5,46.8c-0.1,0-0.3,0-0.4-0.1c-0.5-0.2-0.7-0.8-0.4-1.3l5-10c0.2-0.5,0.8-0.7,1.3-0.4
		c0.5,0.2,0.7,0.8,0.4,1.3l-5,10C4.2,46.5,3.9,46.8,3.5,46.8z"/>
	<path fill="#15AADC" d="M3.5,38.8c-0.1,0-0.3,0-0.4-0.1c-0.5-0.2-0.7-0.8-0.4-1.3l4-8c0.2-0.5,0.8-0.7,1.3-0.4
		c0.5,0.2,0.7,0.8,0.4,1.3l-4,8C4.2,38.5,3.9,38.8,3.5,38.8z"/>
	<path fill="#15AADC" d="M14.3,30l-3.7,7.3c-0.2,0.5,0,1.1,0.4,1.3c0.1,0.1,0.3,0.1,0.4,0.1c0.4,0,0.7-0.2,0.9-0.6l4-8
		c0-0.1,0-0.1,0.1-0.2H14.3z"/>
	<g>
		<polygon fill="#FFB92F" points="46,28.4 39.5,28.4 42.5,21.8 31,21.8 25.5,33.8 32,33.8 26.5,46.8 		"/>
	</g>
	<g>
		<path fill="#E6E6E6" d="M29.2,20.9l0.5-1.2H31h11.5h3.1l-1.3,2.8l-1.2,2.6c1.7-1,2.9-2.9,2.9-5c0-3.1-2.6-5.7-5.7-5.7
			c-0.7,0-1.3,0.1-1.9,0.3C38.2,10.5,34.6,7,30.2,7c-3.4,0-6.3,2-7.6,4.9c-0.9-0.7-2-1.1-3.2-1.1c-2.8,0-5.1,2.3-5.1,5
			c0,0.1,0,0.1,0,0.2c-0.4-0.1-0.8-0.2-1.3-0.2c-2.8,0-5.1,2.3-5.1,5.1c0,2.8,2.3,5.1,5.1,5.1c0,0,6.9,0,13.8,0L29.2,20.9z"/>
	</g>
	<path fill="#15AADC" d="M22.3,30l-3.7,7.3c-0.2,0.5,0,1.1,0.4,1.3c0.1,0.1,0.3,0.1,0.4,0.1c0.4,0,0.7-0.2,0.9-0.6l4-8
		c0-0.1,0-0.1,0.1-0.2H22.3z"/>
	<path fill="#15AADC" d="M25.5,35.8h-2.1l-4.8,9.6c-0.2,0.5,0,1.1,0.4,1.3c0.1,0.1,0.3,0.1,0.4,0.1c0.4,0,0.7-0.2,0.9-0.6l5-10
		C25.5,36.1,25.5,35.9,25.5,35.8z"/>
	<path fill="#A3A3A3" d="M26.9,26c-6.9,0-13.8,0-13.8,0C10.3,26,8,23.7,8,20.9c0-2.8,2.3-5.1,5.1-5.1c0.4,0,0.9,0.1,1.3,0.2
		c0-0.1,0-0.1,0-0.2c0-2.8,2.3-5,5.1-5c1.2,0,2.3,0.4,3.2,1.1C23.9,9,26.8,7,30.2,7c4.4,0,8.1,3.5,8.2,7.9c0.6-0.2,1.2-0.3,1.9-0.3
		c3.1,0,5.7,2.6,5.7,5.7c0,2.1-1.2,4-2.9,5l-0.5,1.1H45c1.8-1.4,3-3.6,3-6.1c0-4.3-3.5-7.7-7.7-7.7c-0.1,0-0.2,0-0.2,0
		C38.9,8.2,34.9,5,30.2,5c-3.3,0-6.4,1.6-8.3,4.2c-0.8-0.3-1.6-0.4-2.5-0.4c-3.2,0-5.9,2.1-6.8,5C8.9,14,6,17.1,6,20.9
		c0,3.9,3.2,7.1,7.1,7.1H26L26.9,26z"/>
</g>
</svg>
