<svg xmlns="http://www.w3.org/2000/svg" width="16" height="16">
    <g fill="#333">
        <path d="M8.035 0C3.652 0 .094 3.6.094 8s3.558 8 7.941 8c4.384 0 7.97-3.594 7.97-8a7.87 7.87 0 0 0-.126-1.297 1 1 0 0 0-1.656-.586L8.494 11.25l-2.67-2.672.676-.662 1.227 1.313a1 1 0 0 0 1.423.039l5.063-4.862a1 1 0 0 0 .098-1.336A7.943 7.943 0 0 0 8.035 0z" fill-rule="evenodd"/>
    </g>
    <path d="M8.036 1c-3.84 0-6.942 3.135-6.942 7s3.103 7 6.942 7c3.838 0 6.97-3.135 6.97-7a7.04 7.04 0 0 0-.116-1.137l-6.434 5.763-4.053-4.055 2.126-2.086 1.928 2.06 5.062-4.862A6.93 6.93 0 0 0 8.036 1z" fill="#f1f2f2" fill-rule="evenodd"/>
</svg>
