<svg xmlns="http://www.w3.org/2000/svg" height="16" width="16">
    <g color="#000">
        <path style="marker:none" d="M8 0c-.255 0-.505.013-.748.035a1 1 0 0 0-.89.805l-.26 1.34-.973-.934a1 1 0 0 0-1.201-.139c-.48.285-.868.615-1.217.926a1 1 0 0 0-.239 1.178l.569 1.193-1.315-.175a1 1 0 0 0-1.05.591A7.895 7.895 0 0 0 .21 6.285a1 1 0 0 0 .5 1.094L1.855 8l-1.144.621a1 1 0 0 0-.5 1.094c.109.497.257.987.465 1.465a1 1 0 0 0 1.05.592l1.315-.176-.569 1.193a1 1 0 0 0 .239 1.178c.35.31.736.641 1.217.926a1 1 0 0 0 1.2-.139l.973-.934.26 1.34a1 1 0 0 0 .89.805 8.108 8.108 0 0 0 1.497 0 1 1 0 0 0 .89-.805l.26-1.34.973.934a1 1 0 0 0 1.201.139c.48-.285.867-.615 1.217-.926a1 1 0 0 0 .238-1.178l-.568-1.193 1.314.175a1 1 0 0 0 1.051-.591c.208-.478.356-.968.465-1.465a1 1 0 0 0-.5-1.094L14.144 8l1.145-.621a1 1 0 0 0 .5-1.094 7.892 7.892 0 0 0-.465-1.465 1 1 0 0 0-1.05-.591l-1.315.175.568-1.193a1 1 0 0 0-.238-1.178c-.35-.31-.737-.641-1.217-.926a1 1 0 0 0-1.201.14l-.973.933-.26-1.34a1 1 0 0 0-.89-.805A8.093 8.093 0 0 0 8 0zm0 6c1.116 0 2 .884 2 2s-.884 2-2 2c-1.117 0-2-.884-2-2s.883-2 2-2z" overflow="visible" fill="#323232"/>
        <path style="marker:none" d="M8 1c-.22 0-.44.011-.656.031l-.406 2.094a5.012 5.012 0 0 0-.969.312L4.438 1.97c-.389.23-.727.514-1.063.812l.906 1.906a5.057 5.057 0 0 0-.593.813l-2.094-.281A6.91 6.91 0 0 0 1.188 6.5l1.843 1a4.826 4.826 0 0 0-.03.5c0 .173.013.332.03.5l-1.843 1c.097.445.228.872.406 1.281l2.094-.281c.17.29.371.563.593.812l-.906 1.907c.336.298.674.582 1.063.812l1.531-1.469c.306.137.634.24.969.313l.406 2.094a7.118 7.118 0 0 0 1.312 0l.407-2.094c.334-.073.663-.176.968-.313l1.532 1.47c.388-.23.727-.515 1.062-.813l-.906-1.907c.222-.249.424-.522.594-.812l2.093.281a6.91 6.91 0 0 0 .407-1.281l-1.844-1c.017-.168.031-.327.031-.5s-.014-.332-.031-.5l1.844-1a6.908 6.908 0 0 0-.407-1.281l-2.093.281a5.057 5.057 0 0 0-.594-.813l.906-1.906c-.335-.298-.674-.582-1.062-.812L10.03 3.437a5.015 5.015 0 0 0-.968-.312l-.407-2.094A7.118 7.118 0 0 0 8 1zm0 4a3 3 0 1 1 0 6 3 3 0 0 1 0-6z" overflow="visible" fill="#f1f2f2"/>
    </g>
</svg>
