<svg xmlns="http://www.w3.org/2000/svg" width="16" height="16">
    <g color="#000">
        <path style="marker:none" d="M12.031 0c-1.038 0-2.07.425-2.808 1.154-.567.56-.883 1.308-1.04 2.088L5.599 4.496C5.089 4.271 4.588 4 4.03 4a1.032 1.032 0 0 0-.002 0 4.046 4.046 0 0 0-2.761 1.111C.664 5.69.318 6.478.166 7.3a1.032 1.032 0 0 0-.047 1.14c.104.89.45 1.755 1.084 2.39.74.74 1.78 1.171 2.828 1.171.6 0 1.132-.31 1.672-.57l2.465 1.244c.144.803.458 1.577 1.035 2.154.74.74 1.78 1.172 2.828 1.172a4.047 4.047 0 0 0 2.828-1.172A4.047 4.047 0 0 0 16.031 12a4.047 4.047 0 0 0-1.172-2.828A4.047 4.047 0 0 0 12.031 8a4.047 4.047 0 0 0 2.828-1.172A4.047 4.047 0 0 0 16.031 4a4.047 4.047 0 0 0-1.172-2.828A4.047 4.047 0 0 0 12.031 0zM9.648 7.088c.695.53 1.506.91 2.381.912-.835.001-1.611.35-2.289.836l-1.713-.87c0-.027-.009-.055-.01-.083z" overflow="visible" fill="#333"/>
        <path style="marker:none" d="M12.031 1.031a2.969 2.969 0 0 0-2.967 2.93L5.74 5.574a2.969 2.969 0 0 0-1.709-.543 2.969 2.969 0 0 0-2.96 2.838L1 7.904l.066.034A2.969 2.969 0 0 0 1.062 8a2.969 2.969 0 0 0 2.97 2.969 2.969 2.969 0 0 0 1.816-.621l3.216 1.625a2.969 2.969 0 0 0-.002.027 2.969 2.969 0 0 0 2.97 2.969A2.969 2.969 0 0 0 15 12a2.969 2.969 0 0 0-2.969-2.969 2.969 2.969 0 0 0-2.217.998l-2.87-1.455A2.969 2.969 0 0 0 7 8a2.969 2.969 0 0 0-.092-.725l2.838-1.382a2.969 2.969 0 0 0 2.285 1.076A2.969 2.969 0 0 0 15 4a2.969 2.969 0 0 0-2.969-2.969z" overflow="visible" fill="#f1f2f2"/>
    </g>
</svg>
