<svg xmlns="http://www.w3.org/2000/svg" version="1.1" viewBox="-4 -4 24 24"><rect ry="1.1111" height="10" width="10" y="3" x="3" fill="#333"/><path d="m5 2c-1.0907 0-2 0.9093-2 2s0.9093 2 2 2h-3c-1.0907 0-2 0.9093-2 2-1.4572e-16 1.0907 0.9093 2 2 2h3c-1.0907 0-2 0.909-2 2s0.9093 2 2 2h6c1.091 0 2-0.909 2-2s-0.909-2-2-2h3c1.091 0 2-0.9093 2-2s-0.909-2-2-2h-3c1.091 0 2-0.9093 2-2s-0.909-2-2-2h-6z" fill="#333"/><g fill="#f1f2f2"><rect ry="1" height="2" width="6" y="7" x="1"/><rect ry="1" height="2" width="6" y="7" x="9"/><rect ry="1" height="2" width="8" y="3" x="4"/><rect ry="1" height="2" width="8" y="11" x="4"/></g></svg>
