<svg xmlns="http://www.w3.org/2000/svg" width="16" height="16">
    <g transform="translate(-582 -382)">
        <rect width="4" height="4" x="585" y="391" ry="1.634" fill="#323232"/>
        <rect width="4" height="4" x="592" y="391" ry="1.414" fill="#323232"/>
        <path style="marker:none" d="M588 383a1 1 0 0 0-1 1v5a4.048 4.048 0 0 0-2.828 1.172A4.048 4.048 0 0 0 583 393c0 1.047.431 2.088 1.172 2.828.74.74 1.78 1.172 2.828 1.172a4.048 4.048 0 0 0 2.828-1.172c.288-.288.485-.65.672-1.012.187.362.384.724.672 1.012.74.74 1.78 1.172 2.828 1.172a4.048 4.048 0 0 0 2.828-1.172A4.048 4.048 0 0 0 598 393v-9a1 1 0 0 0-1-1h-7zm3 4h3v2a4.048 4.048 0 0 0-2.828 1.172c-.074.073-.105.178-.172.258zm-4 4l.766.152.648.434.434.648.152.766-.152.766-.434.648-.648.434L587 395l-.766-.152-.648-.434-.434-.648L585 393l.152-.766.434-.648.648-.434L587 391zm7 0l.766.152.648.434.434.648.152.766-.152.766-.434.648-.648.434L594 395l-.766-.152-.648-.434-.434-.648L592 393l.152-.766.434-.648.648-.434L594 391z" color="#000" overflow="visible" fill="#323232"/>
        <path style="marker:none" d="M588 384v6.174a3 3 0 0 0-1-.174 3 3 0 0 0-3 3 3 3 0 0 0 3 3 3 3 0 0 0 3-3v-7h5v4.174a3 3 0 0 0-1-.174 3 3 0 0 0-3 3 3 3 0 0 0 3 3 3 3 0 0 0 3-3v-9h-9zm-1 8a1 1 0 0 1 1 1 1 1 0 0 1-1 1 1 1 0 0 1-1-1 1 1 0 0 1 1-1zm7 0a1 1 0 0 1 1 1 1 1 0 0 1-1 1 1 1 0 0 1-1-1 1 1 0 0 1 1-1z" color="#000" overflow="visible" fill="#f1f2f2"/>
    </g>
</svg>
