<svg xmlns="http://www.w3.org/2000/svg" width="16" height="16">
    <g color="#f1f2f2" font-weight="400" font-family="Sans">
        <path style="line-height:normal;-inkscape-font-specification:Sans;text-indent:0;text-align:start;text-decoration-line:none;text-transform:none;marker:none" d="M13.875-.004a.973.973 0 0 0-.15.016c-.05.009-.103.024-.157.039a1.94 1.94 0 0 0-1.54 1.972v.178C10.82 1.524 9.493 1.027 8 1.027c-3.718 0-6.888 2.391-7.928 5.68A.973.973 0 0 0 1 7.973h2.191a.973.973 0 0 0 .885-.567C4.724 5.995 6.221 4.973 8 4.973c.148 0 .249.11.393.125-.155.28-.357.537-.36.888a1.983 1.983 0 0 0 0 .34l-.006-.107V7A.973.973 0 0 0 9 7.973h6A.973.973 0 0 0 15.973 7V2l-.004.094a1.96 1.96 0 0 0 0-.375l.004.093V1A.973.973 0 0 0 15 .027h-.813l.243.03a1.968 1.968 0 0 0-.555-.06zM1 8.027A.973.973 0 0 0 .027 9v5l.004-.094a1.96 1.96 0 0 0 0 .375l-.004-.094V15a.973.973 0 0 0 .973.973h.813l-.243-.03c.18.047.367.067.555.06a.973.973 0 0 0 .15-.015c.05-.009.103-.024.157-.039a1.94 1.94 0 0 0 1.54-1.972v-.178c1.208.677 2.534 1.174 4.028 1.174 3.718 0 6.888-2.391 7.928-5.68A.973.973 0 0 0 15 8.027h-2.191a.973.973 0 0 0-.885.567c-.648 1.411-2.145 2.433-3.924 2.433-.148 0-.249-.11-.393-.125.155-.28.357-.537.36-.888a1.983 1.983 0 0 0 0-.34l.006.107V9A.973.973 0 0 0 7 8.027H3.191z" overflow="visible" fill="#333"/>
        <path style="line-height:normal;-inkscape-font-specification:Sans;text-indent:0;text-align:start;text-decoration-line:none;text-transform:none;marker:none" d="M13.906.969a1.048 1.048 0 0 0-.125.031c-.447.1-.792.542-.781 1v1.688c0 .104-.007.153-.008.242A7.416 7.416 0 0 0 8 2C4.7 2 1.909 4.126 1 7h2.191C4.001 5.235 5.848 4 8 4c1.176 0 2.253.378 3.127 1H10c-.524 0-1 .476-1 1a1 1 0 0 0 0 .219V7h6V2a.979.979 0 0 0 0-.188V1h-.813a1.002 1.002 0 0 0-.28-.031zM1 9v5a.979.979 0 0 0 0 .188V15h.813c.091.024.186.034.28.031.043-.008.085-.018.126-.031.447-.1.792-.542.781-1v-1.688c0-.104.007-.153.008-.242A7.416 7.416 0 0 0 8 14c3.3 0 6.091-2.126 7-5h-2.191c-.81 1.765-2.657 3-4.809 3a5.374 5.374 0 0 1-3.127-1H6c.524 0 1-.476 1-1a1 1 0 0 0 0-.219V9H1z" overflow="visible" fill="#f1f2f2"/>
    </g>
</svg>
