<?xml version="1.0" encoding="UTF-8" standalone="no"?>
<svg
   xmlns:dc="http://purl.org/dc/elements/1.1/"
   xmlns:cc="http://creativecommons.org/ns#"
   xmlns:rdf="http://www.w3.org/1999/02/22-rdf-syntax-ns#"
   xmlns:svg="http://www.w3.org/2000/svg"
   xmlns="http://www.w3.org/2000/svg"
   height="35"
   width="35"
   xml:space="preserve"
   viewBox="0 0 35 35"
   y="0px"
   x="0px"
   id="Layer_1"
   version="1.1"><metadata
     id="metadata79"><rdf:RDF><cc:Work
         rdf:about=""><dc:format>image/svg+xml</dc:format><dc:type
           rdf:resource="http://purl.org/dc/dcmitype/StillImage" /><dc:title></dc:title></cc:Work></rdf:RDF></metadata><defs
     id="defs77" /><g
     transform="translate(0,-437)"
     id="g44" /><g
     transform="translate(0,-437)"
     id="g46" /><g
     transform="translate(0,-437)"
     id="g48" /><g
     transform="translate(0,-437)"
     id="g50" /><g
     transform="translate(0,-437)"
     id="g52" /><g
     transform="translate(0,-437)"
     id="g54" /><g
     transform="translate(0,-437)"
     id="g56" /><g
     transform="translate(0,-437)"
     id="g58" /><g
     transform="translate(0,-437)"
     id="g60" /><g
     transform="translate(0,-437)"
     id="g62" /><g
     transform="translate(0,-437)"
     id="g64" /><g
     transform="translate(0,-437)"
     id="g66" /><g
     transform="translate(0,-437)"
     id="g68" /><g
     transform="translate(0,-437)"
     id="g70" /><g
     transform="translate(0,-437)"
     id="g72" /><rect
     y="0"
     x="0"
     height="35"
     width="35"
     id="rect4564"
     style="opacity:0;fill:#cc0000;fill-opacity:1;stroke:none;stroke-width:1.24140167;stroke-miterlimit:4;stroke-dasharray:none" /><g
     style="fill:#f1f2f2;fill-opacity:1"
     transform="translate(-7.108875,-436.61144)"
     id="g4584"><g
       style="fill:#f1f2f2;fill-opacity:1"
       id="g4"
       transform="matrix(0.0625,0,0,0.0625,8.108875,437.61144)"><path
         style="fill:#f1f2f2;fill-opacity:1"
         id="path2"
         d="m 210.16,276.71 c -0.211,0.105 -21.58,10.51 -41.574,10.51 -20.07,0 -41.4,-10.425 -41.613,-10.53 l -16.715,33.527 c 1.181,0.592 29.265,14.466 58.328,14.466 29.063,0 57.147,-13.874 58.328,-14.466 z" /></g><g
       style="fill:#f1f2f2;fill-opacity:1"
       id="g12"
       transform="matrix(0.0625,0,0,0.0625,8.108875,437.61144)"><g
         style="fill:#f1f2f2;fill-opacity:1"
         id="g10"><path
           style="fill:#f1f2f2;fill-opacity:1"
           d="m 384.989,276.71 c -0.21,0.105 -21.58,10.51 -41.574,10.51 -20.07,0 -41.4,-10.425 -41.613,-10.53 l -16.715,33.527 c 1.181,0.592 29.265,14.466 58.328,14.466 29.063,0 57.147,-13.874 58.328,-14.466 z"
           id="path8" /></g></g><g
       style="fill:#f1f2f2;fill-opacity:1"
       id="g18"
       transform="matrix(0.0625,0,0,0.0625,8.108875,437.61144)"><g
         style="fill:#f1f2f2;fill-opacity:1"
         id="g16"><path
           style="fill:#f1f2f2;fill-opacity:1"
           d="m 256,374.634 c -13.772,0 -24.976,11.204 -24.976,24.976 0,13.772 11.204,24.976 24.976,24.976 13.767,0 24.971,-11.202 24.976,-24.976 0,-13.772 -11.202,-24.976 -24.976,-24.976 z"
           id="path14" /></g></g><g
       style="fill:#f1f2f2;fill-opacity:1"
       id="g24"
       transform="matrix(0.0625,0,0,0.0625,8.108875,437.61144)"><g
         style="fill:#f1f2f2;fill-opacity:1"
         id="g22"><polygon
           style="fill:#f1f2f2;fill-opacity:1"
           points="280.976,187.32 245.027,187.32 287.976,144.369 274.732,112.393 193.561,112.393 193.561,149.856 229.51,149.856 186.56,192.805 199.805,224.783 280.976,224.783 "
           id="polygon20" /></g></g><g
       style="fill:#f1f2f2;fill-opacity:1"
       id="g30"
       transform="matrix(0.0625,0,0,0.0625,8.108875,437.61144)"><g
         style="fill:#f1f2f2;fill-opacity:1"
         id="g28"><polygon
           style="fill:#f1f2f2;fill-opacity:1"
           points="387.122,162.341 351.173,162.341 394.123,119.391 380.878,87.415 299.707,87.415 299.707,124.878 335.656,124.878 292.707,167.829 305.951,199.805 387.122,199.805 "
           id="polygon26" /></g></g><g
       style="fill:#f1f2f2;fill-opacity:1"
       id="g36"
       transform="matrix(0.0625,0,0,0.0625,8.108875,437.61144)"><g
         style="fill:#f1f2f2;fill-opacity:1"
         id="g34"><polygon
           style="fill:#f1f2f2;fill-opacity:1"
           points="493.268,137.366 457.32,137.366 500.269,94.415 487.024,62.439 405.854,62.439 405.854,99.902 441.802,99.902 398.853,142.853 412.098,174.829 493.268,174.829 "
           id="polygon32" /></g></g><path
       d="m 39.874561,450.87975 h -2.381812 c 0.179875,0.883 0.274625,1.7965 0.274625,2.73169 0,7.53131 -6.12725,13.65856 -13.658562,13.65856 -7.531312,0 -13.6585,-6.12725 -13.6585,-13.65856 0,-7.53131 6.12725,-13.65856 13.658562,-13.65856 1.594938,0 3.126562,0.27575 4.550689,0.7805 h 2.473686 v -1.495 c -2.12175,-1.04119 -4.505812,-1.62694 -7.024375,-1.62694 -8.822498,0 -15.999999,7.17762 -15.999999,16 0,8.82238 7.177501,16 15.999999,16 8.8225,0 16,-7.17762 16,-16 0,-0.93119 -0.08087,-1.84375 -0.234313,-2.73169 z"
       id="path38"
       style="fill:#f1f2f2;fill-opacity:1;stroke-width:0.0625" /></g></svg>