<svg xmlns="http://www.w3.org/2000/svg" width="16" height="16">
    <path d="M4.77.87C2.072.87-.144 3.071-.144 5.765c0 1.401.6 2.678 1.551 3.57v.002l5.715 5.486a1.142 1.142 0 0 0 1.57.012L14.59 9.34a1.142 1.142 0 0 0 0-.002 4.897 4.897 0 0 0 1.552-3.572c0-2.694-2.215-4.897-4.912-4.897-1.283 0-2.352.605-3.23 1.416C7.12 1.474 6.052.87 4.77.87z" fill="#323232"/>
    <path d="M15 5.766a3.763 3.763 0 0 0-3.77-3.757c-1.37 0-2.57.73-3.23 1.822a3.77 3.77 0 0 0-3.23-1.822A3.763 3.763 0 0 0 1 5.766a3.74 3.74 0 0 0 1.19 2.738h-.001L7.914 14l5.898-5.496h-.002A3.739 3.739 0 0 0 15 5.766" fill="#f1f2f2"/>
</svg>
