/* XPM */
static char * hide_active_xpm[] = {
"7 22 3 1",
" 	c None",
".	c #37BF8D",
"+	c #FFFFFF",
".......",
".......",
".......",
".......",
".......",
".......",
".......",
".......",
".......",
".......",
".......",
"+++++++",
".......",
".......",
".......",
".......",
".......",
".......",
".......",
".......",
".......",
"......."};
