/* XPM */
static char * maximize_toggled_pressed_xpm[] = {
"7 22 3 1",
" 	c None",
".	c #37BF8D",
"+	c #CF3D47",
".......",
".......",
".......",
".......",
".......",
".......",
".......",
".......",
"..+++++",
"..+...+",
"+++++.+",
"+...+.+",
"+...+++",
"+...+..",
"+++++..",
".......",
".......",
".......",
".......",
".......",
".......",
"......."};
